/* XPM */
static char *c56d37ae297a4705efd37e5bb482edc1O7c2aBi6gvVu46U3[] = {
/* columns rows colors chars-per-pixel */
"64 64 253 2 ",
"   c #0B0608",
".  c #15090C",
"X  c #180E11",
"o  c #171416",
"O  c #1B1415",
"+  c #1C1A1A",
"@  c #26060B",
"#  c #37070D",
"$  c #370B12",
"%  c #261010",
"&  c #271717",
"*  c #231C1C",
"=  c #351817",
"-  c #27211E",
";  c #1E1C22",
":  c #221E22",
">  c #252224",
",  c #2B2423",
"<  c #2B2727",
"1  c #2E2C2B",
"2  c #352923",
"3  c #332E2B",
"4  c #392E2D",
"5  c #34312D",
"6  c #3A352C",
"7  c #2D2A31",
"8  c #362F31",
"9  c #353331",
"0  c #3A3533",
"q  c #3C3A36",
"w  c #3E3B39",
"e  c #47070D",
"r  c #54050E",
"t  c #470911",
"y  c #590914",
"u  c #4F1517",
"i  c #630A15",
"p  c #680815",
"a  c #730C19",
"s  c #790B18",
"d  c #67151C",
"f  c #79121C",
"g  c #47281C",
"h  c #68211F",
"j  c #701824",
"k  c #4E2F28",
"l  c #47342B",
"z  c #433B34",
"x  c #433D3B",
"c  c #493E3E",
"v  c #6E302B",
"b  c #78501E",
"n  c #4D492E",
"m  c #5A562A",
"M  c #494436",
"N  c #45413E",
"B  c #584637",
"V  c #6E4E32",
"C  c #6A6628",
"Z  c #7A772A",
"A  c #726F32",
"S  c #493F40",
"D  c #464342",
"F  c #494443",
"G  c #4A4945",
"H  c #4A4A4A",
"J  c #564C49",
"K  c #58544B",
"L  c #4F5153",
"P  c #585957",
"I  c #72554A",
"U  c #685A54",
"Y  c #756B4E",
"T  c #67675A",
"R  c #5E6060",
"E  c #646562",
"W  c #6B6C66",
"Q  c #747368",
"!  c #787772",
"~  c #870819",
"^  c #840C1B",
"/  c #920C1D",
"(  c #9A0D1C",
")  c #88111D",
"_  c #97111F",
"`  c #AA091E",
"'  c #8B0E21",
"]  c #9A0E22",
"[  c #8C1322",
"{  c #881625",
"}  c #931223",
"|  c #9C1324",
" . c #9B1729",
".. c #A70E23",
"X. c #A31324",
"o. c #AC1425",
"O. c #AD162A",
"+. c #A8192A",
"@. c #B21026",
"#. c #B61426",
"$. c #B4152B",
"%. c #BB162C",
"&. c #B41A2D",
"*. c #BB1A2D",
"=. c #B31930",
"-. c #BC1B31",
";. c #902C31",
":. c #AA2C33",
">. c #BB2334",
",. c #C4162C",
"<. c #C31B2E",
"1. c #CB1B2E",
"2. c #D01B2F",
"3. c #C41C32",
"4. c #CB1C33",
"5. c #D31D33",
"6. c #DB1D34",
"7. c #C92436",
"8. c #D52135",
"9. c #DB2236",
"0. c #D72639",
"q. c #DD2439",
"w. c #E3263A",
"e. c #E52A3D",
"r. c #944B3C",
"t. c #84563A",
"y. c #87752E",
"u. c #A77732",
"i. c #D5753D",
"p. c #943843",
"a. c #AC3746",
"s. c #B73947",
"d. c #C33C4B",
"f. c #C73C4C",
"g. c #D23B4D",
"h. c #E72F42",
"j. c #845A43",
"k. c #895552",
"l. c #B54B4B",
"z. c #94684B",
"x. c #8F6A52",
"c. c #AC784F",
"v. c #AA7856",
"b. c #88766B",
"n. c #977A68",
"m. c #A87C63",
"M. c #C94D53",
"N. c #C8715A",
"B. c #C37D61",
"V. c #7F817C",
"C. c #A3981E",
"Z. c #8A862C",
"A. c #8A8736",
"S. c #938F31",
"D. c #999738",
"F. c #BA8F33",
"G. c #A09D3A",
"H. c #B5AD2F",
"J. c #A7A53A",
"K. c #CDB227",
"L. c #CABB26",
"P. c #CEB937",
"I. c #D6C826",
"U. c #DFD123",
"Y. c #E6D924",
"T. c #EFDD35",
"R. c #EFE226",
"E. c #939252",
"W. c #B08A4C",
"Q. c #AAA842",
"!. c #B9B745",
"~. c #B2B14E",
"^. c #82827C",
"/. c #8A887A",
"(. c #948679",
"). c #939571",
"_. c #B88568",
"`. c #A58776",
"'. c #B28973",
"]. c #AAA577",
"[. c #AFAB7A",
"{. c #CA9653",
"}. c #D2B052",
"|. c #E4BB57",
" X c #C48A69",
".X c #D28D6A",
"XX c #C89665",
"oX c #C68D75",
"OX c #CA9475",
"+X c #D89979",
"@X c #D6AB6F",
"#X c #E5AF78",
"$X c #C4C24C",
"%X c #C9C84C",
"&X c #CCCA52",
"*X c #D1CD53",
"=X c #D5D456",
"-X c #F5DC42",
";X c #8B8B86",
":X c #928F82",
">X c #97968A",
",X c #979691",
"<X c #9C9B94",
"1X c #A79889",
"2X c #B89088",
"3X c #A19E96",
"4X c #A39E98",
"5X c #9FA09B",
"6X c #B5AD8C",
"7X c #A7A399",
"8X c #A4A29B",
"9X c #B7A89B",
"0X c #A6A5A0",
"qX c #ADABA5",
"wX c #ACABA6",
"eX c #B4ADA3",
"rX c #B4B3AD",
"tX c #BBB6AA",
"yX c #B9B7B3",
"uX c #BBB9B4",
"iX c #C88A8B",
"pX c #D48B8F",
"aX c #C8988A",
"sX c #D59998",
"dX c #D8A39C",
"fX c #CBB091",
"gX c #E7B481",
"hX c #DAA5A3",
"jX c #C5BAAC",
"kX c #D9B8A2",
"lX c #C3BEB3",
"zX c #E0AFA4",
"xX c #D6C390",
"cX c #D6CBAC",
"vX c #C5C1B5",
"bX c #C9C5BA",
"nX c #CAC5BC",
"mX c #D3CAB8",
"MX c #C5C7C1",
"NX c #C2C8C2",
"BX c #CCCBC4",
"VX c #D3CEC5",
"CX c #D6D4CA",
"ZX c #D9DAD4",
"AX c #E6D4CC",
"SX c #E5DAD6",
"DX c #E9DED5",
"FX c #E6DCD9",
"GX c #E8DED9",
"HX c #E9E1D6",
"JX c #E1E0DA",
"KX c #EBE3DA",
"LX c #EAE9E3",
/* pixels */
"3 3 3 3 4 4 4 4 8 4 0 4 z n m C C Z Z.S.D.A.m q N N q z w w q 0 z w x S x x S x N N N c x c c c c S S c S S F c D F D D D D D S ",
"5 5 3 4 4 9 4 8 8 4 4 z z m m C A Z.A.E.D.E.E.V q q N z x w w N N N x x S x S S N N c c c c S S S F F S F c D F F F D D H S H H ",
"4 4 4 5 5 4 4 5 8 4 8 0 n m C C y.A.E.Q.Q.E.S.D.A w w N x x x x w x x x S w S x N D N N c c S c S S F c F F F F F F F F D H D H ",
"4 4 4 4 4 5 5 3 8 9 0 z n m C y.Z.S.G.Q.Q.Q.D.Q.Q.A.N w x w x x N x x x S S w S N G N N D c F c F M F F F F F G F H F H D D H D ",
"4 4 4 3 6 3 6 3 1 6 6 l m m Z y.S.D.Q.Q.Q.Q.Q.J.D.D.D.B D x x x w S x N w N x x N N N G G N N N F F M G F F F F G G G D H H H D ",
"4 4 6 3 4 3 6 3 6 1 6 n m C Z Z.D.J.~.!.!.!.Q.J.J.J.J.D.K w x N x x x N N N x D N N N N N N G G N F F F F H F G G F G G H D H H ",
"4 4 4 3 3 3 3 6 1 6 l m m C Z S.G.~.$X!.!.!.~.!.Q.J.J.J.J.A q q w w w w x x x x q N N N q G G N F N F F F F F F F F G G G H D G ",
"4 6 3 6 6 3 3 3 2 6 n m C Z Z.D.J.~.$X$X!.!.!.!.!.J.H.J.J.J.Z x 0 w q q w w x w N q N N N q q G c N N N S D D D F F D D D D D D ",
"4 2 3 3 3 3 3 3 1 1 6 m A Z.Z.D.~.%X%X%X$X$X!.!.!.!.!.J.J.J.J.S.M 9 w 0 q q q q q q q q q n q q N N N N N N N N S D N D D D D D ",
"3 3 3 3 3 3 3 1 1 2 1 1 M A S.S.D.!.=X&X&X%X&X$X$X!.!.!.!.J.J.J.S.m 7 0 q 9 9 q q q q q 9 q q q q q q q q q q q x w N w x w x x ",
"3 3 3 1 1 1 < 1 1 1 < 1 > < n Z A.Z.G.$X=X&X&X&X%X$X$X!.!.!.J.J.G.D.m w 9 9 1 9 9 9 9 9 9 6 6 6 9 9 q 9 9 q 9 q 0 0 q w q q w w ",
"< < < < < < < < > > > > > > ; < m Z Z.Z.Q.&X=X&X&X%X$X$X!.!.!.H.J.G.S.A 9 1 1 1 1 1 1 1 1 1 1 1 9 1 1 9 1 9 9 9 9 9 9 9 0 0 9 0 ",
", , > > > - > > > > : : ; ; ; ; ; 1 m Z.Z.S.!.=X=X=X%X%X%X$X!.!.H.J.J.S.Z 6 1 1 1 1 1 1 1 1 1 1 1 1 1 9 1 1 9 1 1 1 9 1 7 9 9 7 ",
"o + * * < * o o o o o o o ; + + + + o 1 C Z.Z.G.$X=X=X=X%X%X%X!.!.!.J.G.Z.m q 1 9 1 1 9 1 1 1 > 1 1 1 1 1 9 1 9 9 9 9 9 9 9 9 9 ",
"+ + + * > 1 < < + o + o o o o + + + + + o 6 C Z.S.Q.&X=X=X&X%X%X$X!.H.J.Z.C n 9 9 6 9 6 q n q 9 q 6 q q w w N N N N D D D D H D ",
"K H G G G F G K K H G G G G D H M n 6 - - + + n C Z S.!.=X=X=X&X%X$X$XJ.S.A G q q q q q G P T ! V.P P V.T W W Q W W W W Q Q Q W ",
"wX0X5X5X5X<X,X,X>X<X<X<X<X<X3X>X>X,X:Xb.Q U K H K A A Z S.$X=X=X=X%X%X~.~.E.V.T T T W W Q Q /.>XV.>XV.>X>X>X>X<X<X>X>X>X<X<X>X>X",
"xXfX6X6X6X[.[.[.].].].].].].[.~.].].].).>X;X/././.^.^.E.E.Z.J.&X=X=X&X$X[.~.).).:X>X).:X)./.>X<X].>X<X8X5X5X5X5X8X8X5X>X<X<X<X>X",
"I.I.I.I.I.I.I.L.L.L.H.K.H.H.C.C.H.C.H.Z.A.Y Y T T T T W T Y A.S.Q.=X=X!.Q.)./.V.V./.V.V.^.;X^.^.V.V.V.V.V.V.V.V.V.V.V.V.V.V.V.V.",
"R.R.R.Y.U.Y.Y.U.U.U.U.I.I.I.U.L.K.K.H.C.C m M 9 0 0 0 x F J T A Z D.!.$XE.Y T P E E T P P P P E K V.P V.E E W E V.P T T R T L H ",
"-X-X-XT.T.Y.U.Y.U.U.U.I.I.L.I.L.L.L.H.D.A.A K J J U J H G N F G P Y A V.).E.R H L R T W E P P P P V.V.P H L R R W R R R E R H H ",
"+X#XgXgXgXgX#X@X|.}.P.L.L.L.L.P.P.P.}.{.{._._.'.'.'.'.2X1X:X/.^.V.V.V.).).>X<X>X;X;X;X,X>X<X<X,XV.V.>X>XV.V.V.).5X5X;X).>XV.;XV.",
"N.B.B.B.B.B. XXX X XXXXX{.XXXXXX_._._._.'.n.n.(.(.(.(.(.1XeXtXuXtXtXtXlXlXuXtXuXvXvXvXvXlXlXvXnXNXvXvXNXNXNXvXNXNXuXvXtXrX0X>XqX",
"+XOX.X.X.X+X+XaXgX+X#X+X+XOXOX'._._._.`.`.`.`.`.`.(.`.>X7X7XeXtXNXcXvXvXbXbXbXbXbXbXnXnXBXBXmXmXcXCXNXmXNXmXmXmXmXNXbXtXqX5X>XrX",
" XoX XoXoX XoXOXoXoXOXOXOXoX XoXoX'.OXoXoXoX'.oXoXaXaXfXfXtXlXvXvXbXnXnXmXmXmXmXmXmXcXmXmXnXmXmXmXcXCXmXCXAXZXHXZXCXmXnXlX7X7XvX",
"v.x.v.n.n.n.n.n.(.(.(.(./.(.(././.).:X>X:X>X<X>X<X<X7X7XeXjXbXnXvXcXlXjXjXfXfX#X@X|.&X|.}.}.XXaXfXfXaXaX@X@XgXgXxXxXCXVXbXqXqXnX",
",X1X3X3X5X0X4X4X4X8X4X4X8X<X4X8X3X8X4X4X8X8XqX7X7XqXeXtXjXlXmXjXjXfXfX@XOXOXXXXXXX{.{.{.{..X@XaXaXOXaX2X'.N.N.i.F..XfXkXcX6XqXmX",
"4X3X<X3X4X4X<X4X4X4X<X4X8X<X4X4X8X4X4X8X8X7X7X7XqXwXtXvXjX9XfX6X[.XX{. X{.c.v.v.m._.n.m.m.v.}.|.}.}.|.}.v.v.x.z.OXxX#XfXxXfXtXCX",
"<X3X4X4X<X4X<X4X<X4X4X<X0X<X<X8X<X8X5X8X0X0X8XqXeXuXyXtX9XfX6X2X'.'.`.v.x.k.I j.t.j.z.z.z.c.v.{.F.{.{.u.z.z.j.V u.W.W.W.W.W.'.>X",
"0X4X0X0X0X0X0X0X0X0X0X0X0X0X0XwX0X0X0XwXwXwXrXrXuXuXtXfXfXfXaX@X@X{.{.W.c.u.t.Y Y j.j.z.v.v.v._..X X XB.v.z.x.x.V V B g u.F.}.}.",
"wXwXeXwXwXwXwXwXwXwXwXwXwXwXwXwXwXrXrXrXrXyXyXuXvXuXeX6X1X`.v.c.W.u.u.y.t.m B B z J G B v I z.v.v.v.z.I I T U z 9 0 N - b u.F.F.",
"yXrXyXrXyXrXrXyXyXrXrXrXrXrXyXrXrXrXrXrXuXuXuXNXbXjX9X1Xb.k.U J F 0 3 + X .           . o < ! 1XjX>Xb.0           .         X K ",
"yXyXyXMXyXyXyXyXyXyXyXyXyXyXyXrXrXrXyXuXuXuXMXbXbXlX7X(.b.I I B J B z 3 > + + o O : : 7 F ! uXZXJXJXMX;XD 9 > o o o X     o > N ",
"NXNXNXMXMXMXMXMXMXMXMXBXMXMXMXMXBXBXMXMXBXMXBXBXVXBXlX3X(.b.Y x.(.1XrXuXyX0X0X<X8XyXMXBXFXLXJXCXBXMXVXZXCXMXrX;X;X! P 7 9 x 1 : ",
"k.E k.k.I I U I J J J J J J K J L J L K P T W Q b.b.x.V B k m U b.>XeXlXVXCXCXCXVXVXVXlXMXnXlXlXlXMXMXMXVXZXZXVXBX8XW S 5 * + : ",
"6.6.6.6.q.6.5.4.8.4.3.<.<.-.*.#.O.X.| } ;.;.;.b B v n g g g & % & < S U b.,XwXrXeXeXjXjXtXeXeXeXeXeXeXrXeX<X;X^.W F 9 3 < + + : ",
"w.w.6.6.6.h.w.h.h.h.h.w.e.e.e.e.w.e.w.9.7.7.>.:. .;.f d d u e e # @ $ g x K b.`.2XeXeXeXeX7X9X9XwXeX4X3Xb.! T F 0 , 2 , > O + : ",
"6.6.6.6.6.6.6.6.h.0.h.6.q.q.w.9.9.9.8.7.7.7.<.<.<.*.*.<.&.o.X.) a u u g v V t.z.z.x.n.n.n.x.b.x.Y I J z 2 < & & & - < 2 - + + - ",
"6.6.6.6.6.6.6.6.q.q.6.h.q.q.9.4.1.*.#.o.o.o.| ( o.#.#.o.o._ ) ) d h v V t.V t.t.t.t.b V v V V g g & % X % & * & * 2 4 * * - - - ",
"6.6.6.6.6.5.6.5.6.6.0.6.w.q.9.9.q.q.8.*.o.o._ _ _ ) _ _ ( _ _ ;.;.r.;.z.j.z.z.j.t.t.t.t.t.t.V B k $ % = = = & & , - * O & , 3 < ",
"4.4.1.2.2.2.,.,.,.,.2.5.5.5.9.9.9.q.9.9.9.8.5.5.8.1.1.<.#.o.o.o.:.r.l.r.k.V v V V I t.z.u.t.v h h u u u u = = - & & X . : 2 , , ",
"@.%.#.%.%.@.@.@.#.#.,.,.1.4.2.5.1.8.8.5.8.9.8.9.2.1.#.#.o.o.X.X.o.} f h g = 2 g k k v v h d i y e # # % @ & - * & X . & : : O . ",
"@.@.@...` ` ` ` @.#.,.,.,.1.2.1.1.5.5.6.8.9.9.6.9.8.8.<.#.#.#.o.o.) h h u 4 2 : g d s p i r r e t u # % @ % % % X & & & + X .   ",
"] ..` ` @.` ,.,.,.1.5.5.6.5.6.6.9.w.9.9.9.q.9.9.9.9.q.q.9.8.7.<.*.&. .;.v k k h { +._ _ ) ) ) f h u u e e $ = % % % . X . .     ",
"( ` ,.,.2.,.2.2.5.6.9.9.w.6.w.9.5.1.1.2.9.q.q.w.w.e.w.e.w.w.w.9.0.0.>.r.l l v :.7.3.*.&.&.+.:.;.;.) f a d y u t $ @ . .         ",
"( ..o.` ,.,.,.,.4.4.4.5.2.1.,.#.#.*.1.8.9.9.q.q.e.e.e.h.M.M.M.g.h.7.v 6 0 k ;.-.<.7.1.1.7.7.7.7.#.#.o.o.| [ f y $ # . @ @       ",
"~ ~ ~ ~ ~ / ( ( ] ..] X.( ( _ o.o.*.*.<.<.7.0.0.q.M.M.M.M.M.g.h.;.l < 1 l v 3.w.9.w.w.w.e.e.0.9.9.8.<.#.X.) a y y t $ $ @       ",
"` ( ( ~ ~ ~ ~ / / / / ( ( ( X.X.X._ | _ X.+.&.7.7.7.g.0.h.h.d.h , 2 2 2 v 3.h.h.e.w.w.9.0.0.7.<.&.X._ ) [ { a i y y y t $ .     ",
"1.#.o.X.] ' ~ ~ ~ / ' ] / / ~ ~ ~ s s ~ ~ ' ] ] X.$.&.3.7.{ = X O O X d >.8.4.3.>.&.+.+.+._ / ^ f ) ) _ ) a p i p p r # # X .   ",
"9.0.1.<.$.@...] / / ~ ~ ~ s ~ s s ~ ~ s s ~ s ^ ~ ' } [ y @ .     . d ] [ ) f s s a a a a a a s ) _ ) ) a p p i r r e e $ @ @ @ ",
"4.8.0.8.5.4.3.-.@.$.....] / / / ' ' ~ ' ~ ~ s ~ s s s p r t t e y a s i i y y i i p a f a ) [ [ _ ) ) a p p y r r e e # t # # . ",
"*.<.3.1.4.5.5.6.5.4.4.4.3.%.@.......] ] ] / ~ ~ ~ ~ f f i i p p p p p p p a a ' ) ) } [ } } } ' ^ f d i y r r e e e r e e e @ @ ",
"#.$.$.%.%.-.,.4.4.4.5.4.4.4.4.4.,.3.%.%.$.$.o.| ;.v v d p a a a s f ^ ) ' } } } | | [ / ' ' a a i i y r r r r r t y r e # # @ . ",
"o.#.$.$.%.%.-.3.3.4.4.4.1.4.4.4.4.1.4.4.3.3.:.p.;.;.v { } ] } } / } / } ' } } [ [ f a a p p y y y r r i i y i y y y t # @ @ @ @ ",
"%.%.$.@.@.$.%.%.-.3.3.3.3.3.,.,.,.<.<.3.-.$.=.:. .=.=.$.O.X.X.X.] ] } } } ' { ' s a a p p p p a a a f f s a i y e # @ @ . @ @ @ ",
"3.3.,.%.%.$.$.$.$.=.-.-.-.-.%.-.-.-.=.=.$.$.$.=.>.-.>.&.$.O.O.O.+.+.+.| } ' ' s ' ' ' ' ' | | | _ X._ ) s y t # # # # # # # # # ",
"7.4.7.3.-.-.%.%.$.$.%.=.=.-.=.-.$.=.=.&.$.*.-.>.>.=.=.=.=.=.O.=.+. .] ' ] ] ....O.=.-.-.<.-.=.O.O. .' j i y y i i i j y d d y u ",
"7.4.7.7.3.3.-.-.3.-.%.-.-.-.-.-.-.&.*.-.-.>.7.>.-.=.O.=.O.X. .] ] ..$.$.-.4.4.4.4.4.3.3.%.$.&.=. . .' { { }  .]  . . . .j j j j ",
"-.3.3.7.3.3.3.3.3.%.%.=.,.-.-.=.=.-.>.7.7.=.=.O.O. .O.......$.%.3.4.4.3.-.>.3.-.-.>.>.>.O.O.$.=.=.=.=.-.-.=.%.$.=.=. . .{ j j j ",
"f.s.f.f.f.f.f.g.f.d.f.f.d.s.d.f.d.M.d.s.s.s.s.a.s.a.s.s.f.f.g.f.s.s.s.s.s.l.M.M.N.N.l.M.M.f.f.g.g.f.f.f.f.d.s.s.s.a.p.p.p.p.p.v ",
"hXhXhXhXhXhXhXhXhXhXhXsXsXhXhXsXsXdXsXsXsXsXsXpXsXpXsXsXsXsXpXpXiXiXaXsXhXhXkXkXzXzXzXsXpXpXpXpXpXpXpXpXpXpXpXpXiXiXiXiXiXiXiX2X",
"FXGXGXLXKXDXKXDXDXHXHXDXGXGXDXFXDXDXHXHXSXDXSXDXSXSXDXKXDXSXDXDXDXDXDXDXKXKXKXGXDXDXDXDXGXAXAXAXSXSXAXSXAXAXAXAXAXAXAXSXSXZXAXBX",
"FXFXGXGXGXKXDXSXDXDXGXGXDXFXSXDXSXDXFXDXDXHXGXGXDXKXKXKXGXKXKXGXKXHXGXGXKXGXKXGXKXKXKXKXKXKXKXKXGXGXFXGXGXKXLXGXSXFXLXGXGXLXFXFX",
"FXSXFXFXSXSXFXSXSXSXSXSXSXSXSXFXSXFXSXSXSXSXSXSXSXSXSXSXFXSXFXSXCXCXSXFXFXGXGXGXFXFXFXFXFXFXFXFXGXSXCXAXFXFXGXFXFXFXGXGXGXFXFXFX"
};
