/* XPM */
static char *_df9ce47165542ccea2bc07952613f97IkLnbbyjBkxSdmVC[] = {
/* columns rows colors chars-per-pixel */
"64 64 137 2 ",
"   c #858793",
".  c #878B96",
"X  c #878B97",
"o  c #888A97",
"O  c #888C97",
"+  c #898B98",
"@  c #888C98",
"#  c #898D98",
"$  c #898D99",
"%  c #8A8C99",
"&  c #8B8D9A",
"*  c #8B8F9A",
"=  c #8C8E9A",
"-  c #8C8E9B",
";  c #8D8F9B",
":  c #8D8F9C",
">  c #90929E",
",  c #9294A0",
"<  c #9395A1",
"1  c #9496A2",
"2  c #9597A3",
"3  c #9698A4",
"4  c #9799A5",
"5  c #989AA6",
"6  c #999BA7",
"7  c #999CA5",
"8  c #999DA8",
"9  c #9A9CA8",
"0  c #9A9CA9",
"q  c #9B9DA9",
"w  c #9B9DAA",
"e  c #9B9FAA",
"r  c #9C9EAA",
"t  c #9C9EAB",
"y  c #9D9FAB",
"u  c #9CA0AB",
"i  c #9DA1AC",
"p  c #9DA1AD",
"a  c #9EA0AC",
"s  c #9EA0AD",
"d  c #9FA1AD",
"f  c #9EA2AD",
"g  c #9FA1AE",
"h  c #9FA3AF",
"j  c #A0A3AC",
"k  c #A0A2AE",
"l  c #A0A2AF",
"z  c #A1A3AF",
"x  c #A2A5AE",
"c  c #A2A4B0",
"v  c #A2A4B1",
"b  c #A3A5B1",
"n  c #A4A7B0",
"m  c #A4A6B2",
"M  c #A4A6B3",
"N  c #A5A7B3",
"B  c #A5A7B4",
"V  c #A5A8B1",
"C  c #A4A8B3",
"Z  c #A6A9B2",
"A  c #A7AAB3",
"S  c #A6A8B4",
"D  c #A7A9B5",
"F  c #A7A9B6",
"G  c #A8ABB4",
"H  c #A8AAB6",
"J  c #A9ABB7",
"K  c #AAADB6",
"L  c #A9ABB8",
"P  c #A9ADB8",
"I  c #AAACB8",
"U  c #ABADB9",
"Y  c #AAAEB9",
"T  c #ABAFBA",
"R  c #ACAEBA",
"E  c #ACAEBB",
"W  c #ADAFBB",
"Q  c #ADAFBC",
"!  c #ACB0BB",
"~  c #AFB2BB",
"^  c #ACB0BC",
"/  c #ADB1BC",
"(  c #AEB0BC",
")  c #AEB0BD",
"_  c #AFB1BD",
"`  c #AFB1BE",
"'  c #B0B3BC",
"]  c #B0B2BE",
"[  c #B0B2BF",
"{  c #B1B3BF",
"}  c #B1B4BD",
"|  c #B2B5BE",
" . c #B3B6BF",
".. c #B1B3C0",
"X. c #B2B4C0",
"o. c #B3B5C1",
"O. c #B4B7C0",
"+. c #B4B6C2",
"@. c #B5B7C3",
"#. c #B5B8C1",
"$. c #B6B9C2",
"%. c #B7BAC3",
"&. c #B6B8C4",
"*. c #B6B8C5",
"=. c #B7B9C5",
"-. c #B8BBC4",
";. c #B8BAC6",
":. c #B9BBC7",
">. c #B9BCC5",
",. c #BABDC6",
"<. c #BBBEC7",
"1. c #BABCC8",
"2. c #BBBDC9",
"3. c #BCBFC8",
"4. c #BCBECA",
"5. c #BDBFCB",
"6. c #BDC0C9",
"7. c #BEC1CA",
"8. c #BFC2CB",
"9. c #BEC0CC",
"0. c #BFC1CD",
"q. c #C0C3CC",
"w. c #C0C2CE",
"e. c #C1C3CF",
"r. c #C1C4CD",
"t. c #C2C5CE",
"y. c #C3C6CF",
"u. c #C2C4D0",
"i. c #C3C5D1",
"p. c #C4C7D0",
"a. c #C4C6D2",
"s. c #C5C7D3",
"d. c #C5C8D1",
"f. c #C6C9D2",
"g. c #C7CAD3",
"h. c #C8CBD4",
"j. c #C9CCD5",
/* pixels */
"*.a.w.i.w.w.a.q.r.t.t.t.t.t.t.t.y.y.y.t.y.y.e.y.y.t.t.y.y.y.y.y.y.y.y.y.y.y.y.y.y.y.y.y.y.y.y.y.y.y.y.y.y.y.g.y.y.g.y.g.y.y.g.K ",
"M *.,.5.5.;.5.5.3.3.3.3.3.6.6.6.7.5.7.7.7.7.7.7.7.7.7.7.5.5.7.7.7.7.8.5.t.7.7.t.8.5.t.7.7.t.8.5.t.t.t.t.5.t.t.8.7.t.7.8.7.t.g.G ",
"k Q +.*.+.+.$. . .$.$.+.+.$.$.$. .%.%.@. .@.@.@.%.%. .-.%.%.%.%.%.%.%.-.%.-.-.-.-.-.-.1.-.%.%.1.-.%.-.-.-.-.-.1.7.-.7.-.-.-.g.G ",
"v R X.o.;.5.5.;.3.;.;.5.,.5.;.,.1.1.1.1.3.3.3.3.2.1.3.3.2.2.2.2.3.1.2.2.2.2.2.3.5.2.2.2.3.3.2.2.2.2.3.3.2.5.2.2.-.-.7.7.7.%.g.G ",
"y L [ [ ;.w.w.w.u.w.u.u.w.w.i.w.e.e.e.e.e.e.e.e.e.e.e.e.i.e.e.e.e.e.i.i.i.y.i.i.i.s.i.i.i.i.i.i.i.s.i.s.i.s.i.s.g.t.s.e.-. .g.K ",
"k ) [ H r x 7 7 7 0 7 7 9 9 9 9 9 9 r 9 r r r 9 r r 9 r r r 9 r r 9 r r r r r r r r d r r r d r r r r r r r r r q q { i.8.=.i.D ",
"0 R [ I k +.R ' Q ) [ R ' ( [ [ ( ] ( ] ] ] ( ] ] ] ] ] ] ] ] ] ] ] ] { { { { { { { { { { { { { @.{ @.{ @.{ @.{ { D R 5.=.@.s._ ",
"k X.R H r ;.[  .o.o.X.+.X.+.+.+.{ @.@.@.@.@.@.@.@.@.@.@.@.@.@.@.@.@.@.@.@.@.=.@.@.@.@.@.@.@.@.@.@.@.@.@.@.@.@.@.-.I ( i.1.=.y.I ",
"d R [ H k ;.{ +.X.*.{ o.[ +.&.o.{ @.@.@.{ @.@.@.@.@.@.@.@.@.@.@.@.@.@.@.@.@.@.@.@.@.@.@.@.@.@.=.&.@.=.&.@.@.&.=.=.J ( e.=.@.y.G ",
"d R ' H k ;.{ +.o.*.o.+.+.+.+.+.@.@.@.@.@.@.@.@.@.{ @.@.@.@.@.@.@.@.@.@.@.@.@.@.=.=.=.=.=.@.=.=.@.@.=.=.&.=.&.o.=.D ( e.1.@.g.G ",
"d I [ H k ;.{ +.[ o.o.o.+.[ [ [ { @.{ @.{ @.{ @.{ @.@.@.@.@.@.@.@.@.{ { @.@.@.@.{ @.@.{ { @.@.@.@.@.o.@.@.@.=.&.=.D ( 8.1.-.y.G ",
"d U ( H z @.{ +.+.o.&.[ 5.3.5.5.2.2.2.2.2.2.2.2.1.1.2.1.1.1.2.2.2.5.2.2.2.2.2.2.e.5.e.e.e.5.e.e.9.9.2.9.@.@.@.=.=.J ( e.1.-.y.G ",
"d R ( D k @.{ { +.{ +.M +.;.;.+.1.=.1.=.1.1.=.1.=.=.=.2.1.=.1.1.1.1.1.1.1.1.1.1.@.=.=.=.1.=.=.=.&.2.=.i.=.&.@.@.&.D ( e.-.%.y.G ",
"d I ) D k @.+.+.{ [ { 3 I R ( R R R R R R R R R ( R R ( R ] ( ( R R R R R ( R ( ( ( ( ( ( ] ( ] ] ] R 2.=.&.&.@.=.Z ( 5.1. .y.G ",
"d U [ Z d @.{ +.+.[ @.7 { { &.1.2.2.5.2.2.2.2.2.2.1.2.2.2.2.2.2.2.5.5.5.2.2.5.5.5.2.5.2.2.2.5.5.9.2.Q 2.@.@.@.@.=.D ( e.3. .s.G ",
"d ( ) Z k ;.{ { @.[ @.3 R H ( +.{ { @.{ { @.@.{ @.@.{ @.{ @.@.{ @.{ @.{ @.@.@.@.@.@.@.@.@.@.@.@.=.=.R e.@.@.&.&.=.N ( 8.1.-.y.G ",
"d U ) I d @.{ @.@.{ { 5 ] I ] =.N z z r z d z d z z d z d d z z z z z z z z z z r z z z r z r ] =.=.] 2.=.@.=.@.=.J ( e.=.@.y.G ",
"d U ) D d @.{ { { { @.3 ] I ] @.@.] =.=.2.=.2.=.2.=.=.1.=.=.1.1.=.=.=.=.=.2.=.2.2.=.2.e.2.=.R R 2.=.] 9.@.=.@.@.=.N R e.=.@.y.G ",
"r I ) D z @.{ @.{ @.{ 5 ] I ( @.@.J @.2.2.=.2.1.1.2.2.1.2.2.2.2.2.2.2.2.2.2.=.2.2.2.=.2.9.e.R J 2.=.( 2.@.@.@.@.=.B ) 5.7. .y.D ",
"d I ) D d @.{ @.] @.{ 3 ] I ] @.] d R @.o.( @.] @.{ { { @.{ @.{ ] @.@.] @.@.@.@.@.@.@.] @.2.R R =.=.) 9.@.@.@.@.=.Z ( e.=. .y.A ",
"d U ) D d @.{ { { @.] 5 ] I ] @.@.r ] =.{ { =.@.@.{ @.@.@.@.@.@.@.@.@.@.@.@.@.@.] @.=.@.=.2.] J =.1.( 2.=.@.@.@.=.N R 5.1. .y.G ",
"r U ] D d { { { { { ] 5 ] J ( @.@.r ] @.@.{ @.@.@.{ { @.{ @.{ @.@.@.] @.@.@.@.@.@.@.@.@.=.2.R J =.=.( 5.=.@.@.@.=.J R e.%.@.y.D ",
"d I ) Z d @.{ @.] @.] 3 ] J ( @.@.r { @.] @.] ] { @.{ @.@.@.@.{ @.] @.] @.] ] @.=.@.] @.@.2.R R =.=.( 5.@.@.@.@.=.Z ( 8.3. .y.G ",
"d I ) Z d @.{ { ] @.{ 3 ] J ] @.@.z { { { @.{ @.@.{ @.@.{ @.@.@.@.@.@.@.@.@.@.@.@.@.@.@.@.2.R J 1.=.R 5.@.@.@.@.=.B ( 8.=. .y.A ",
"r U ( Z d @.] o.] ] @.2 ] I R @.{ r ] @.{ @.@.{ @.{ @.{ @.{ @.{ @.@.@.@.@.@.@.@.@.@.@.@.@.2.R J =.=.] 2.@.@.@.@.=.J R e.@.@.y.D ",
"r I ( D r @.o.{ ] o.{ 3 ( R ( @.@.d ] @.{ @.{ @.{ @.{ @.{ @.{ @.@.] @.] ] @.@.] @.] @.] @.2.R R =.=.R 9.@.@.@.@.@.B R e.@.@.t.A ",
"r J ( Z d @.] o.] o.o.3 ] I ( @.@.d ] @.@.@.@.{ @.{ @.{ @.{ @.{ @.] @.@.@.@.@.@.@.@.@.] @.2.R J =.=.R 2.@.@.@.] =.N R e.%. .t.A ",
"y U Q D d &.] { ] ] { 3 ] I R @.{ d ] { { @.{ @.{ @.{ @.{ @.{ @.@.@.@.@.@.@.] @.@.@.@.@.@.2.R J 1.=.R 2.@.@.@.@.@.J R e.%. .t.V ",
"y U ( Z d @.] o.o.] o.3 ) I R @.@.r ] @.] @.{ { @.{ @.{ @.{ @.{ @.@.@.@.] @.@.] ] @.@.@.@.2.R J =.=.] 2.@.@.] @.@.N R e.=. .y.D ",
"r U ) N y @.] o.o.] { 3 ] I ( @.{ d ] { ] @.@.{ { @.{ @.{ @.{ @.@.@.] @.@.@.@.@.@.@.@.] @.2.R J =.=.] 2.@.@.@.@.@.N R e.@.@.t.A ",
"r U R N d @...] ] o.{ 2 ) I R @.@.d ( @.{ @.{ @.@.{ @.{ @.{ @.{ ] @.] @.@.] ] @.@.@.@.@.@.2.R J =.=.R 2.@.@.] @.@.N R e.%. .t.A ",
"y U R B y @.] ..] ] o.2 ] I R @.{ d ] { { @.{ { { @.{ @.{ @.{ @.@.] @.] @.@.] @.] @.@.] @.2.R J =.=.] 2.@.@.@.@.@.J K e.%. .t.V ",
"r U R N d @.] { { { ] 3 ) Z ( @.{ d { { { o.{ o.o.o.o.o.o.o.o.o.] @.@.] @.@.] @.] @.@.@.@.1.R J =.&.R 2.@.X.@.@.@.N R 2.=.{ y.D ",
"r U R N r @.] { { ] ] 3 ] J ( @.{ d ( @.{ { o.{ o.o.o.@.o.o.o.+.] @.] @.@.] ] @.@.X.@.] @.2.R J =.&.R 2.@.X.@.] @.N R 0.1.@.t.A ",
"r U R Z d @.] { { { ] 3 ) J ( @.{ d [ { { { { o.{ { o.{ { { { o.@.@.] @.] @.@.] ] @.@.] @.2.R J =.&.R 2.@.@.@.@.@.S R 2.1. .t.A ",
"r I R N r @.] { ] { ] 3 ( J ( @.{ d ) +.{ o.o.{ { o.{ o.{ o.o.{ ] @.@.] @.] @.@.@.X.@.@.@.=.R J =.&.R 2.@.@.] ] @.N R 2.%. .t.V ",
"r J R N r @.] ] ] { ] 3 ] J R { { d ( { { { { o.o.{ o.{ { o.{ o.] @.@.] @.] @.@.@.X.@.] @.2.R J =.&.R 2.@.X.X.@.@.N _ 2.%.{ y.D ",
"r J R N d { ] ] ] { ( 3 ) D ( @.{ d ( { { { o.{ { o.{ o.o.{ o.{ @.@.] @.] @.@.] ] @.@.] ] 1.R J &.&.R 2.@.@.@.] @.D R 2.=.{ t.A ",
"r J ) N d @.] ] ] { ] 2 ] D ( @.{ d ( { { { { { o.{ o.{ { o.{ o.] @.] @.@.] ] @.@.X.@.] @.1.I J &.&.R 2.X.@.X.@.@.D R 2.%.| t.V ",
"r I R N r @.] ] ] { ( 2 ) Z R @.{ d ' { { o.{ o.{ o.{ o.o.{ o.{ ] @.@.] @.@.] @.X.] @.] @.2.R J &.@.R 1.@.] @.] @.N K 2.%.} t.V ",
"r I Q B y @.) ] { ] { 2 ( J R { { d ) { ( { ( @.{ o.{ o.{ o.{ o.] @.] ] @.] { ] @.@.@.] ] =.R J @.@.R 2.@.] @.] @.N R 0.&.{ y.V ",
"r I Q M y o.) ] ] { { 2 ( I R @.{ 9 ( { { @.( { o.{ o.{ o.{ o.{ @.] ] @.{ { @.@.] ] @.@.@.2.R N &.@.I 2.@.@.X.@.@.c R 2.&.{ t.c ",
"y I Q b r @.) ] ] ( ] 3 ( I I { o.d ( @.{ { { { { o.{ { { o.{ o.] @.@.] { @.@.@.@.@.@.] @.2.R J &.@.R 1.] @.X.] @.N R 9.%.| t.V ",
"w I Q b r @.] ] ] ( ] > ( I R @.) 9 ( { ( ( { @.{ { { { { { { { ] ..] ] ] ] ] ] @.] { ] X.=.J N &.@.R =.@.X.@.X.{ N K 2.{ | t.c ",
"r I U N r o.) ] ] ( { 2 ( I R o.{ d { @.@.{ @.{ @.@.@.@.@.@.@.@.@.@.@.@.@.@.@.@.@.] @.=.@.0.R J &.@.R =.X.@.] X.X.N K e.%.{ t.V ",
"w I R b r o.] ) ) ] ] 2 ( I R o.) 9 d d z z z d k k k k k k k z z z z z z z z z z z z z z Q N N &.@.R 2.@.] X.X.@.N R 2.@.{ t.V ",
"w I R N r @.) ] ] ) ] < ( J U o.@.Z z d z b Z z z z z z z z z z z z z N z z c c z z N z z ( J R &.@.R =.X.@.X.X.@.z R 2. .} t.x ",
"0 I R N r { ] ( ] ) ] 2 R J U o.&.&.1.@.1.&.=.&.;.;.;.;.;.;.&.1.=.=.=.=.=.=.=.2.@.=.3.=.@.2.] ] &.@.R 2.@.X.X.] @.c K 3.@.} t.V ",
"r I U b r @.( ] ] ( ] > o.J J &.{ { { { o.{ o.{ +.o.o.o.o.o.o.@.{ { o.o.o.o.o.o.+.+.+.+.+.+.+.*.@.=.R =.@.@.] ] @.N I 2.@.{ t.V ",
"0 I U M r { ] ( ] ] ( 2 R Z r z b z z b z M x M z b b z z z z z M b b M b M M Z v v k v v k M v c R J 2.@.] ] ] @.N R 2.&.{ 8.V ",
"r D Q b r @.] ( ( ] ( 5 R @.@.@.[ [ { [ { { +.{ { { { { { { { { { { { { { { { { +.+.+.+.+.+.o.+.@.=.] 2.@.] { @.{ N J 2.%.| t.V ",
"r J U N r { ( ] { { I 3 > 5 3 3 0 7 9 7 9 9 9 9 9 9 9 9 9 9 9 9 9 r 9 9 9 r 9 9 0 7 0 7 0 7 7 0 5 r 9 R ] ] ] R @.N R 1.@.| 8.V ",
"0 D R b r o.( ) R ] Q Z r z r d r r r r r r r r r r d q q r d r r r d 9 r r r r d k d d k k k k r y r R @.@.@.@.{ N R 2.%.} 8.Z ",
"r J U b r o.( ] ] ] ] @.) ] ] ) [ [ [ { [ +.} [ o.{ { { { { { { { { { { o.o.o.o.[ [ [ [ X.o.X.X.=.@.] ] ] ( ] ] @.N J 2.@.] t.c ",
"0 D U b r o.R ) ] ) R ( R ] ] ( R ' Q R ( [ ( [ ( ( ( ( ' ( ( ( ( ( [ ' ' ) ' [ ' [ [ { [ } [ [ ] ] @.@.@.@.] @.{ N I 2. .} 8.V ",
"r D U b 0 ] ) ] ( ] ] ] ( R ] ( ( [ [ ' ' [ [ [ [ [ [ [ [ [ [ ' { [ [ { { { { { [ [ [ { [ X.} o.] ] @.] ] ] ..] { N J 3.%.} t.c ",
"r R H M 9 ) ) ( ( ( R ( ( R ( ( ) ) ) ) ) [ ) [ ) ) ) ) ) ) ) ) ( [ ) { ( { { ) o.) o.o.) } ) } ] ] ] ] ] ] ] ] @.N R =.{ { y.A ",
"7 H H C k } #.o.@.{ @.{ { @.@.{ } o.} o.o.} X.o.@.o.@.o.@.o.o.o.@.{  .{ o.o.@.{ o.#.o.o.o.o.o.o.@.@.@.@.@.@.@.@.] N ( 2.%.{ t.x ",
"9 H J M 9 F F F J I I I I I J J I I I I I R I R I I U U U U U U I R I ( I ( ( I ( ( ( ) ) ) ( ( R Q R Q R Q Q Q ] N J =.{ } 7.A ",
"r I J v 3 9 7 3 2 3 3 3 3 3 3 3 3 3 3 3 3 3 3 3 3 3 3 3 3 3 3 3 5 3 5 3 3 3 9 3 1 1 2 2 2 2 2 2 5 5 4 4 4 4 4 4 5 5 z @.-.{ 7.j ",
"9 F H H x v v v N B B B N B N N v v C C B B B B Z D N N M B B B B B M D Z Z D D F H H J H L D U S J B J B J B J J B B I _ { 8.N ",
"u C I ( J R ( ( Q Q Q Q R Q Q Q ^ ^ ) ^ Q Q Q Q ( R Q R Q Q Q Q Q ) ) Q ) ) ) ) ^ ) ^ ^ Q Q Q Q ] ( ] Q ..( ] ( Q ..] ..{ { 2.c ",
"7 u u g r g d d y y y y y r z y p p p g p p y g d y d d l y y d d y d d d d d d h h h g v g l l g g g g g g l y l l y y z N %.J ",
"* O . . o o o + + + + + + + + + X @ @ @ @ X + + + + + + + + + + + + + + + + + + $ $ $ $ $ $ % + & & & & & & & ; + : + ; ;   2 ; "
};
