/* XPM */
static char *_ccf70173362420cd26b1e8632c9951cTVfweQxEblBpuSxu[] = {
/* columns rows colors chars-per-pixel */
"64 64 256 2 ",
"   c #0A0E1C",
".  c #060D18",
"X  c #0B111C",
"o  c #061117",
"O  c #12141E",
"+  c #03120F",
"@  c #132F16",
"#  c #2C261D",
"$  c #0B0E22",
"%  c #070E21",
"&  c #0C1223",
"*  c #0F142A",
"=  c #141622",
"-  c #1A1B25",
";  c #1B1D2A",
":  c #151929",
">  c #171C31",
",  c #211F2B",
"<  c #211E31",
"1  c #1E212D",
"2  c #192426",
"3  c #1C2433",
"4  c #18372E",
"5  c #22232D",
"6  c #292929",
"7  c #332826",
"8  c #363529",
"9  c #232532",
"0  c #252935",
"q  c #2B2B35",
"w  c #2C2D3A",
"e  c #272937",
"r  c #342D37",
"t  c #2D313D",
"y  c #293435",
"u  c #33333D",
"i  c #393838",
"p  c #29362B",
"a  c #2D1B18",
"s  c #453838",
"d  c #4F3533",
"f  c #374538",
"g  c #2C4936",
"h  c #08523B",
"j  c #454929",
"k  c #484638",
"l  c #525330",
"z  c #5A6139",
"x  c #747C28",
"c  c #777A38",
"v  c #706F30",
"b  c #5E5D23",
"n  c #2B3545",
"m  c #343542",
"M  c #3B3B44",
"N  c #383B47",
"B  c #2A3550",
"V  c #163C45",
"C  c #433E48",
"Z  c #413D52",
"A  c #284644",
"S  c #3C4746",
"D  c #355352",
"F  c #356654",
"G  c #394E6A",
"H  c #327B6B",
"J  c #43424C",
"K  c #484748",
"L  c #565746",
"P  c #4B4A54",
"I  c #484955",
"U  c #495458",
"Y  c #53525D",
"T  c #585859",
"R  c #524E4B",
"E  c #675455",
"W  c #576458",
"Q  c #4B6358",
"!  c #656B47",
"~  c #787B46",
"^  c #74765C",
"/  c #6B6D52",
"(  c #5B5B64",
")  c #5A5965",
"_  c #4B5762",
"`  c #665E68",
"'  c #5A6566",
"]  c #546F70",
"[  c #656569",
"{  c #757668",
"}  c #6B6B74",
"|  c #676876",
" . c #726D77",
".. c #6D767B",
"X. c #76777A",
"o. c #726D69",
"O. c #8D797A",
"+. c #B06972",
"@. c #836D53",
"#. c #C8737D",
"$. c #817931",
"%. c #798229",
"&. c #7C8339",
"*. c #3C9078",
"=. c #7D854B",
"-. c #558A70",
";. c #728775",
":. c #68B571",
">. c #60A751",
",. c #73C766",
"<. c #8A8736",
"1. c #928D36",
"2. c #888946",
"3. c #878957",
"4. c #93924F",
"5. c #888A79",
"6. c #91926E",
"7. c #89B472",
"8. c #AAA96D",
"9. c #A6A065",
"0. c #8FD56F",
"q. c #B0D66F",
"w. c #B3E673",
"e. c #8ED15B",
"r. c #CDD77B",
"t. c #6B7984",
"y. c #767986",
"u. c #74768B",
"i. c #576D8B",
"p. c #857D87",
"a. c #59938A",
"s. c #7C8589",
"d. c #7B8692",
"f. c #71948F",
"g. c #58AD8E",
"h. c #6FB290",
"j. c #7893A7",
"k. c #72B3AB",
"l. c #5DBEAB",
"z. c #76CD91",
"x. c #74CEAF",
"c. c #5DCDB5",
"v. c #6DD6C7",
"b. c #6DE2D1",
"n. c #3F9685",
"m. c #87878A",
"M. c #888A96",
"N. c #948C97",
"B. c #8B9499",
"V. c #93949C",
"C. c #989899",
"Z. c #909586",
"A. c #A2959C",
"S. c #8FAB92",
"D. c #A6A79B",
"F. c #AFB490",
"G. c #8C94A2",
"H. c #949CA4",
"J. c #9A9CA2",
"K. c #9A9EAA",
"L. c #9496A4",
"P. c #989AAD",
"I. c #A49BA5",
"U. c #A29FB0",
"Y. c #9DA3AB",
"T. c #99A4A6",
"R. c #9BA5B3",
"E. c #99B6B7",
"W. c #8AAFAD",
"Q. c #A4A3AC",
"!. c #A8A9A9",
"~. c #AAB5AB",
"^. c #A3A5B3",
"/. c #ACABB4",
"(. c #A7ABB7",
"). c #B3ABB5",
"_. c #AAB4B8",
"`. c #B4B3BB",
"'. c #BBBABD",
"]. c #B6B6B9",
"[. c #B7B8AA",
"{. c #C9BABA",
"}. c #E5A6B0",
"|. c #8FCC8C",
" X c #AED091",
".X c #8EE694",
"XX c #B1E993",
"oX c #8ED0B4",
"OX c #B2CAB6",
"+X c #97E1B2",
"@X c #BBE7BA",
"#X c #B5EDAB",
"$X c #CED28C",
"%X c #D0ED90",
"&X c #C8CBB9",
"*X c #CAEEAF",
"=X c #E4E096",
"-X c #A8ACC5",
";X c #ACB7C3",
":X c #B3B4C3",
">X c #BCBBC3",
",X c #BDBDC9",
"<X c #B6BAC5",
"1X c #B0B1C6",
"2X c #8BB9C1",
"3X c #C2BCC5",
"4X c #C0BFD1",
"5X c #BBC4C8",
"6X c #BBC9D5",
"7X c #B2CECF",
"8X c #ACEDCB",
"9X c #BDD7E1",
"0X c #8CE0CD",
"qX c #C3C2C5",
"wX c #C3C4CB",
"eX c #C5CACD",
"rX c #CACACD",
"tX c #C9C6CA",
"yX c #CAD1CA",
"uX c #D7D9C9",
"iX c #C5CBD4",
"pX c #CCCCD3",
"aX c #C8C8D5",
"sX c #D2CDD3",
"dX c #D1CDDB",
"fX c #CAD3D7",
"gX c #D2D2D5",
"hX c #D4D4DB",
"jX c #DAD5DC",
"kX c #D8DADC",
"lX c #D1CACD",
"zX c #E1D3D9",
"xX c #DCE4D9",
"cX c #D2E6C5",
"vX c #E5E7D5",
"bX c #CDD8E3",
"nX c #D4D4E3",
"mX c #D5DAE3",
"MX c #DCDBE3",
"NX c #DADAE8",
"BX c #D4CFE3",
"VX c #E2DCE6",
"CX c #DDE2E4",
"ZX c #DAE4EA",
"AX c #DAE7F1",
"SX c #CEE7E9",
"DX c #E2E3E5",
"FX c #E4E4EB",
"GX c #E8EAEB",
"HX c #F4F5EC",
"JX c #E8EAF4",
"KX c #EBF4F6",
"LX c #F3FBFD",
"PX c #FAFDFD",
"IX c #F5F5F7",
"UX c #EFEEEF",
/* pixels */
"x x x x x x x x x x %.%.x %.%.%.%.=./ } [ [ ..} | t.u.y.aXM.p.u.p.M.m.M.u.u.P.-X(.R.-X-X-XY.9.r.r.8.#.8.V.K.P.H.B.d.y.M.NX5XL.M.",
"x x x x x %.x x %.x x %.%.%.%.%.&.&./ ' ' .. .} ' | | y.t. .t.u.t.u...t.t.p.P.R.E.;X;X-X(.!.F.r.r.9.F.F./.(._.(.(.T.N.P.aXP.V.V.",
"~ v v v &.c v x x x %.v &.c %.=.4.=.5.m.y.m.M.;.u.u.u.M.d.M.B.G.G.K.^.P.u.U.R.-X5X5X<X<X`.D.$X$X=X9.8.A.C.J.T.J.H.V.V.V.U.M.M.d.",
"j l L ! ;.^ &.&.x x c =.=.=.=.=.=.@.8.F./.!.~.'.eXfXNXAXZXAXAXAXAXAXNXnX1X1XP.P.M...t.( W ^ F.$X9.l k E T ' o.} ..X.X.Y M i m u ",
"8 f i R Z.6.~ v x v =.6.6.5.3.4.4.<.F.uXuXuXcXuXcXvXxXCXkXCXAXGXAXmXhXZXNXBXnXaX5X;.y.S i k F.6.l 7 # 6 q q r r q s C s r q q m ",
"m.} {  .R j z c c ~ ~ ^ ;.^ 3.3.2.<.4.4.9.9.4.4.3.6.5.{ ;.R.fX].t.t.y.y.u. .u.y.X.f i 0 y E F.~ 8 6 6 6 q 6 9 7 r r r i s s C C ",
"qXQ.m.Z.J.5.^ 3.~ ^ { 5.O.{ 3.2.1.<.1.1.<.<.1.<.<.2.4.6.Z.C.T./.B.M.M.V.L.V.N.m.[ k i f i X.5.f 6 6 6 6 6 q r r r s d d d d R R ",
"<X>X'.].yXyXuX&XS.5.Z.qXT l 3.4.2.<.1.1.1.1.1.1.1.4.3.l o.m.C.'.M.s.m.s.m.m.y.p.o.L L L ! ^ ~ 8 # 8 8 6 i i J K C 7 d l b E b ! ",
"L.Q.!.'.'.&X&XlXuXHXDXQ.O.{ 8.8.6.4.2.2.$.4.4.4.4.9.9.z s ( C.Y.G.H.B.B.m.X.T [ ^ l l z l l l f j j j W ;.!.5XtXI.k ! ~ c c v $.",
"<X'.'.OXOXrXjXFXHXHXDX].eXyX&XOX$XF.~ v <.@.$.$.4.3.6.l s u Q.,X(.Y.T P P i R 8 ! z b f j l j l j j j ^ 5.rX~.m.E j z &.c $.$.b ",
"pXaX&XqXlXhXVXJXPXPXUX`.!.Q.D.C.C.uXZ.Z.&XF.! l b j f 7 5 C <XrXCXpXT.s.' r i @ p l ! z / ! ! ! / L z 5.Z.D.m.{ l ! v %.$.$.v v ",
"dXtXwXrXpXMXJXJXIXPXHX{.Q.`.>X{.kXkX[.[.vXHXvX&X&XD.k i i w K [ ZXZXT K S q k i f / S.&X*XcXxXvXuXyX5.D.[.D.W Q L F.z j j d b b ",
"NXaXtXrXgXMXJXIXPXPXGXwX>XnXBXnXJXbX,XH.aXFXGXY.m.;.D.gX5Xs.y.T.KXPXmXY.d.B.OXgX&XD.B.!.&XkXxX5X].qXyXGXGXD.Z.5.5.S.Z.6.@.@.9.6.",
"NXaXpXsXgXVXFXJXUXIXCXrXQ.hXBXNXFXFXaXQ.aXLXJX:X).A.yXIXkXY.T.6XKXPXKXfX_.wXZXLXKXyX~.<XxXIXKXeXY.6XDXPXPXDX].~.&XHXvXGX&XuXHXvX",
"VXtXgXgXkXDXGXJXIXJXMXrXL.hXNXNXFXVXdX(.aXJXJXaX_.'.fXKXZX6X(.aXUXUXPXJX5X6XJXKXPXGX5XrXKXPXIXGXeX7XHXPXPXUXGXJXZXLXPXPXKXDXHXHX",
"FXrXsXsXjXjXVXGXVXJXMXqXY.nXmXmXFXVX1XP.BXJXbX5X_.;XfXKXZX6X;X6XCXLXPXKXfXbXAXLXPXKXkXZXLXPXPXKXKXLXLXLXPXPXJXmXkXPXLXAXFXIXHXPX",
"CXrXpXdXsXjXjXDXDXDXMX<XM.fXbXCXCXkX(.U.6XbX9X;X_._.fXKX9X2X;X_.ZXKXLXKX9XbXSXKXIXIXUXPXPXPXPXLXAXAXKXLXIXKXhX| G.NXnXd.5XAXGXHX",
"mXhXaXaXBXjXjXkXMXhXjXwXd.fXCXfXxXkX1XP.G.R.E.E.SX9X7X9XW.j.d.d.fXKXKXfXf.f.7X7XrXGXHXUXIXIXPXGXt.t.OX9XSX6XY.S B ' f...5XhXY.~.",
"jXsXwXaXdXdXjXkXnXbXbX,Xd.;X6XOXyXyX`.(.R.7X7X7X9X7XT.d.H.W...] 6XAXxX;X] W.7XSXiXfXsXgXkXDXLXGXm.D ;.7X7X' n U ' Q ] f.OXT.aXnX",
"gXlXwXdXBXBXhXnXbX6X6X6Xu.d.H._.B.;.mXnXbXfX9XbX7XE.E.oXW.f.] E.KXLXKXKX7X] OXSXSXSX5X5XeXgXGXCXrX;.K S.Q U A 7X5XA -.-.] Y :XaX",
"lXzX4X4XaX,XbX6X;Xi.6X6X;X' m.5XyXrXNXnXbXAX9X7XW.E.oXW.-.y D BXLXKXKXGXeXQ D j.W.7X-Xd.d.OXOX5XlX'.OX5X..] B d.Q S Q ;.U ' ,X:X",
"}.{.{.).M...9XR.] ] R.] _.fX5XqXfXpXaXaXbX6Xk.j.k.W.oX;.D g ;XJXKXIXHXxXuX~.y g A F i.] y S S C.{.tXkXkXH.H.d.| S S 4 p n Q 4X4X",
"#.+.+.E 6 f 7X5XR.B.<XH._.6XfXOXyX`.t.y.M.W.j.k.2XW.f.] g f <XJXIXHXHXGXkXOXD V > G 2XW.A 2 p g R _.mXbXbXbXbX4X'.~.K M Y R.`.Y.",
"#.+.+.@.s T ].CXkXCXmXpXrXwXeX5X_.U I | ;X;X-XE.k.a.F -.F T.NXIXIXIXPXHXUXnXR.A V a.k.k.h.S.S.;.' ' `.fXbXnXJXJXIXHXDXCXNXZX].[ ",
"#.#.+.E d s ).gXkXDXtXsXqX`.<X_.m.P U y.^.Y _ ;XE.7XG H G R.6XBXVXVXnXnXfXpX`.U A a.k.k.oXS.S.] D A S._.jX3XaXNXFXUXUXGXZXwXM.r ",
"}.}.}.d a s 5.).sXlXsX].J u 0 y 9 N t G u.Z )  .<X6XG j.t.E.,X4XBXBXbXaX6X4X,XS g a.k.x.0XoXh.h.-.F ;.Z.yX!.)./.,X<X5XpXwX).} i ",
"HX}.E 7 a a d ` ].'.sXI.P 3 : * n i.G A B Z p.@._ ,XG 7XSXJXNXhXNXVXJXLXJXUXjXwXs.k.oXx.x.x.x.x.h.|. X X6.W K A G.R.Q.].'.>XJ.N.",
"zXo.A.d a 7 s o.).{.Q.P S ; * > 3 i.G B B Z p.O.Z p.d.;XbXCXT k C  .NXIXUXzXjX3Xm.h.oXx.v.x.0X+X+X|. X0.:.-.D g M.bXrXqXsXVXVXJX",
"GXlX{.R d d E O.3XlXY 5 y 5 n > > G i.G G G o.p.E C Z ^.wX'.8 # # K tXDXMXlX{.3X~.h.k.x.x.b.0X8X8XXXXX0.|.-.F ] B.CXkX5X3XpXZXAX",
"lX{.5.E R R o.A.3XlXS 2 2 0 n B B G u.u.u.i.C d R d i C.).).r a p o.m.).).).3X!.' p F h.x.+X8X8X*X*X.X.X.Xg.-.oXOXiXDXwX`.,XaXfX",
"3Xo.E j R R R N.).~.S 2 p q i N B B _ G G P < d C # r I.).I. .E 2 y r i C } U.].5XW.;.S.+X@XcX*X*XXX0.:..Xg.a.7XfXiXMXwX:X:X<XwX",
"K f p 4 2 4 4 A U W { ^ ;.;.;...( I D n B Z 7 d d 7 s N.I.I.p.C 2 2 - - , q Y ^.!.B.' oXcX*X*X*X*X X,.:.h.S.h.7XfXkXmX,X:X`.`.].",
"k.k.l.l.l.k.l.k.W.8X&X#X*X8XOX|.D.[.m.f 6 i s ` k r E A.I.I.m.M q t u m i m I Q./.B.W OXD.~.&X@X;.;.;.S.S.f.j.R.E./.;X(.R.H.V.V.",
"v.b.b.b.b.b.v.v.8X@X#X%X X|.|.:.S.5.;.;.{ 8 K 3XjXlXsXjXzXzXjXwXqXrXaXwX3XwX3XtXrX'.'.~.S Z.D.S.p @ @ 4 4 2 2 2 3 0 3 e 0 1 2 3 ",
"c.v.b.b.b.b.0X8X8X*XXXw.0.:.:.g.-.F Q W y.R E `.sXDXGXGXFXGXxXFXDXZXMXMXMXmXMXNXgXkXwXT.f U W ..O + + + o . o & % % % % $   o $ ",
"n.v.b.b.b.b.0X8X*X%Xw.w.0.0.z.z.g.-.] _ wXzXzX).OXrXkXkXxXGXGXCXkXrXFXDXDXNXMXhXeX<X(.V.K _.fXT.2 X X . X o & & & & % % & $ $   ",
"H l.c.v.b.0X0XcX*X%Xw.w.e.0.z.z.l.*.a.F ;XVXVX].).'.qXyXgXkXCXrXY I 5XNXhXpXaX,X:X(.(.V.Y ,XnX3Xp X . . . . . .   &   $ $ $     ",
"h l.x.x.+X#X@X*X*X%Xw.e.,.,..Xz.*.*.H F B.>XtXI.I.].`.OXtXaXfXaXm.( `.iXiX5X<X;X(.K.K.M.) wXIX4X9 X   O X X O O       .     O $ ",
"@ :.+X#X#XXX%X%X%Xw.w.e.>.,.z.x.g.c.a.A U Y.'.!.C.!./.`.,X1X,X1X(.(.wX:X1X1X^.^.R.H.K.G.I <XBX/.5       X   X o X X X . X     $ ",
"@ S.#X#X*X%X%X%Xr.r.w.e.>.>.:.z.g.x.a.D y X.).I.Q.J.Q.^.(.-X1X1X1X1X-X1X-X(.R.R.L.P.K.M.Y (.1X| - . $ O     X . . X     X $     ",
"@ |.OX*X*X#X*X$X%Xr.r.q.e.>.:.:.z.a.-.A 4 S m.I.J.J.!.Y.R.(.-XR.1X1X-X(.P.U.P.G.G.P.K.G.Z ` | w * $ * $ & & & % & & % % & & % % ",
"@ S.|.S.F. X X$X$X$Xq. X X7.z.z.g.*.F y 2 y O.C.C.C.C.T.R.L.R.bXnXNXNXU.L.P.P.G.G.M.N.K.N ) ) < : > > * > * * > * > > 3 > * * * ",
"g f g S f K K L j j l j f g g g A 4 D g O - [ V.C.Q.Z.N.V.M.K.mXnXMXNXG.G.M.M.M.M.L.L.M.Z ` | < < * > > > > 3 * : : : * > > 3 > ",
"~.D.C.C.V.B.m.V.m.l Z.D.D.5.C.Z.f.B.B.T 6 6 [ B.C.N.C.N.N.N.N.aXNXMXaXM.M.p.M.M.p.p.G.M.Z | u.N < m e 9 ; : 9 w 3 t n y e n V 3 ",
"<XC.y.} ' T ` X.O.m.D.D.I.A.).).A.I.N.Y N I s.C.J.C.A.A.N.p.V.fXpXgXgXM.m.m.N.M.M.G.M.N.Z u.M.U.U.K.U.M.J S y.H.P.P.K.K.K.R.Q.P.",
"JXVXVXZXhX5X).C.m.M.!.V.m.O.lXVXVXVXVXdXmXjXeX^.J.!.I.N.I.I.J.wXQ.V.4Xm.N.L.K.I.L.M.V.p.P u.p.V.A.U.V.( 0 5 w N m m m N N N N N ",
"zXdXiX5X,XM.} p.N.N.C.Y.J.5X>XMXVXdXjXVXUXJXMX,X,X`.`.m.I.).(.dX_.M.:XM.Q./.).`.1XI.I.I.`.sXdXVXMXVXsX` 9 9 e 9 ; > < > : ; N ) ",
"r M u t t m r ) ).).`._.T.B.W ~.6X} } `.JXVXGXkXhXnXsXhXBXm.,XpXaX1XaX(.`.1X).:X).3X>X>X`.).'.pXwXaX(.m < ; ; 9 9 3 > 9 9 9 9 9 ",
", , , , 9 u 0 ) ).'.qX5XJ.[ T C.`.[ ' C.NXFXVX).m.m.X.I.`.y.| :X,X,X,X).:X>XQ.Q.>X3XnXMXVXjXjXjXdXpX) , , 5 0 m C N I I I Y I 0 ",
"9 9 9 9 9 m q P L.3X3X3XpXgXgXCXVXdXjXFXUXMXDXgXsXlXlXy.( | N.<X5X^.:X:XwXdXNXMXVXFXGXVXVXNXFXFXVXdXP 0 u m 9 6 < q 0 < q < N Y ",
"9 ; , u M P J u } dXFXFXDXkXVXkXFXGXGXVXVXjXjXjXjXsXFXsXwX'.^.`.(.(.K.M.| '.pXpXdXsXsXpXsXgXmXFXJXfXI - - w w 9 r m m 9 w m )  .",
"e e 9 q 9 t w 9 Y `.,X>X>X].qX3X>X>X>XtXsXsXlXgXVXjXjXjXMXVXNXdXaX4XwXwX3XsXhXjXjXhXpXsXsXrXrXdXdXN.w , w I ) ' ) ) ) ) Y  .t.| ",
"5 e 9 e t m t 9 Y `.4X,X`.).`.`.`.`.].>X].{.'.3X3XlX3XlXdX3XwXwXwXwXwXwX,XwX].>X'.'.'.).).`.`.'.`._ ; ; 1 1 0 9 e w 9 , m  .u.} ",
"1 q 9 5 e e 9 q P L././.(.^././.].:X3X3X>X3X3X3X3XtX3X3XtXwX3XaXwXqXwXqX{.>X'.qX'.>X>X].).).`./.U.I 9 ; - - 9 1 9 9 9 ; n u.p.| ",
"9 1 3 0 t w 9 ; w Y J N u N ) } M.N.Q.Q./.)./.`.'.).`.>X:X3X>X>X'.).`._.].`.)./.).I./.).Q.I.U.U.L.N ; ; 1 1 9 q n q n 9 w ) M.u.",
"e 9 w 0 1 1 9 9 9 Z 0 ; - - q 5 t w r , w r r M Y ( P C | ( P C u u r M M u r K J q r I m 6 9 m J 9 3 9 1 : : 1 - ; ; : e w | N.",
"N m m t u e 9 1 9 I , O , w I P Y U 9   ; = O r N C , w J Y e - 2 5 O , q , , C P P Z P < = < < N 3 ; > > ; ; &   = = * 9 9 m ) ",
"1 1 0 5 9 9 5 9 9 S P ; < P ) ) P t = = - = - ; 9 q - - - 5 ; , 5 - - - i u r u Z ) ` ` | , Z ` U w ; : $ = 3 9 9 9 e ; - = = w ",
"3 1 1 ; - 1 ; 5 9 u I u m Y ` ) m ; ; ; O O - 9 ; 5 - = = & = = - 0 , = C C J C I P ) ` ` < O w N n n m 9 9 9 e e 9 9 ; 9 e n J ",
"- ; 2 : 1 - O O - q C N N N Y m ; - , = O = O = = =     - ; = , = 5 , 5 C u Y ) ) ) ` } | < O = N m m w ; : : - - ; ; 9 e w e w ",
"1 9 1 9 5 , 5 5 6 5 J J N q < r 6 q 5 O O 5 O O - - 5 w C P m I M u q - , u ) ( ) } `  .} ,   - > w m w e e 0 w e 9 9 e w m t N ",
"= ; 1 1 5 u M i m M T C M M u C P R K i 6 q q q q 5 5 O 0 i q P C w M C I C r ( } } u.y. ., < = ; e n m N w 9 m t t t e e e 9 u ",
"5 q 5 9 N C.,XwXtXwXpXpXaXtXaXsXsXrXrXwX].).!.I.N.m.X.E Y P C P P P ( ( | [ C  .p.m.m.m.p.Z } M w w m m w , = - 9 9 1 = = = ; N ",
"1 1 , - u `.tXtXpXpXpXpXsXjXjXjXkXzXkXkXzXxXDXjXVXmXjXdXjXsXsXdXjXnXNXjXMXVXsXjXhXjXaXlXtX`.N.y.| Y Y Z e 9 9 1 ; 5 5 2 3 ; = w "
};
