/* XPM */
static char *_e437428057244f6acb4e72bf0728f25fPBq0f3YF1Y28OdT[] = {
/* columns rows colors chars-per-pixel */
"64 64 247 2 ",
"   c #020104",
".  c #0B0805",
"X  c #050509",
"o  c #0A060A",
"O  c #0C0A0C",
"+  c #1A070C",
"@  c #120C0D",
"#  c #16110E",
"$  c #0E0D11",
"%  c #120E11",
"&  c #1B0D12",
"*  c #151214",
"=  c #1A1515",
"-  c #1C1917",
";  c #171319",
":  c #1A1619",
">  c #1D1A1A",
",  c #23050C",
"<  c #27070E",
"1  c #270A11",
"2  c #360812",
"3  c #211817",
"4  c #2F1A15",
"5  c #23151A",
"6  c #221D1C",
"7  c #291E1E",
"8  c #24211E",
"9  c #2A211E",
"0  c #31271F",
"q  c #1E1D20",
"w  c #231E21",
"e  c #291D21",
"r  c #262222",
"t  c #2B2423",
"y  c #2D2926",
"u  c #26242B",
"i  c #2D2629",
"p  c #2E2A2A",
"a  c #312624",
"s  c #322A26",
"d  c #392D25",
"f  c #31262B",
"g  c #342C2B",
"h  c #392E2D",
"j  c #35312D",
"k  c #3A322E",
"l  c #2D2C30",
"z  c #352E31",
"x  c #392D30",
"c  c #353234",
"v  c #3B3433",
"b  c #3D3936",
"n  c #363338",
"m  c #3A3738",
"M  c #3D3A3B",
"N  c #480C17",
"B  c #550E18",
"V  c #64111C",
"C  c #533919",
"Z  c #6B371E",
"A  c #6F1321",
"S  c #48372A",
"D  c #4F312E",
"F  c #413534",
"G  c #433935",
"H  c #4A3B34",
"J  c #423D3C",
"K  c #4A3D3C",
"L  c #6E3736",
"P  c #754D16",
"I  c #5F512C",
"U  c #45413E",
"Y  c #4B423E",
"T  c #4D493D",
"R  c #56483A",
"E  c #705232",
"W  c #766032",
"Q  c #3A3C40",
"!  c #443F41",
"~  c #454243",
"^  c #474546",
"/  c #4A4543",
"(  c #494645",
")  c #4A4846",
"_  c #4C4846",
"`  c #494648",
"'  c #4C4A4A",
"]  c #4F4F4F",
"[  c #524544",
"{  c #534944",
"}  c #524C4B",
"|  c #594D4C",
" . c #54514F",
".. c #5C514A",
"X. c #524E51",
"o. c #4F5252",
"O. c #555353",
"+. c #575657",
"@. c #5A5553",
"#. c #5B5956",
"$. c #5C5B5A",
"%. c #655548",
"&. c #765A4E",
"*. c #615454",
"=. c #635A55",
"-. c #6C5D56",
";. c #635D5B",
":. c #5E615E",
">. c #766A47",
",. c #64615E",
"<. c #6C625B",
"1. c #7A6357",
"2. c #74635C",
"3. c #5F5E61",
"4. c #635D60",
"5. c #656462",
"6. c #6B6562",
"7. c #6C6A66",
"8. c #6B6B68",
"9. c #726B66",
"0. c #756B69",
"q. c #746D6A",
"w. c #6F716B",
"e. c #747067",
"r. c #73726D",
"t. c #7B726D",
"y. c #757571",
"u. c #7C7572",
"i. c #7A7975",
"p. c #7E7C79",
"a. c #85383F",
"s. c #9B6A1F",
"d. c #B0721C",
"f. c #89552F",
"g. c #916E35",
"h. c #A97230",
"j. c #9B4A42",
"k. c #88624A",
"l. c #96684C",
"z. c #947946",
"x. c #876757",
"c. c #9A6954",
"v. c #9D6B55",
"b. c #AD7443",
"n. c #A46C58",
"m. c #A5735D",
"M. c #A9755C",
"N. c #B2775E",
"B. c #836D64",
"V. c #86756B",
"C. c #9D7969",
"Z. c #837973",
"A. c #837B75",
"S. c #837D7B",
"D. c #897E7B",
"F. c #957970",
"G. c #AA7866",
"H. c #B47A66",
"J. c #B0786C",
"K. c #B08C33",
"L. c #C29328",
"P. c #CEA639",
"I. c #E9AA3D",
"U. c #B28C4B",
"Y. c #AE964E",
"T. c #9A956D",
"R. c #898076",
"E. c #84827D",
"W. c #8C837D",
"Q. c #95867B",
"!. c #AD826C",
"~. c #B58569",
"^. c #BB836C",
"/. c #A88576",
"(. c #B88873",
"). c #AC9575",
"_. c #C98E4B",
"`. c #CFAC4C",
"'. c #EBAF42",
"]. c #C48A76",
"[. c #C6947D",
"{. c #858480",
"}. c #8B8581",
"|. c #8C8A85",
" X c #8D8E89",
".X c #938C84",
"XX c #9B8D86",
"oX c #928E8B",
"OX c #8E918B",
"+X c #93928D",
"@X c #9A968B",
"#X c #9B948D",
"$X c #959590",
"%X c #989792",
"&X c #9B9A95",
"*X c #9E9D99",
"=X c #A2958C",
"-X c #B49188",
";X c #A49C96",
":X c #B4A486",
">X c #A4A29D",
",X c #ACA59C",
"<X c #B9A59A",
"1X c #AAA8A3",
"2X c #B3ACA3",
"3X c #B8ADA5",
"4X c #B7B4AB",
"5X c #BCB5AC",
"6X c #BABBB6",
"7X c #CD8F81",
"8X c #C99781",
"9X c #D19485",
"0X c #D5A68E",
"qX c #C4B4A8",
"wX c #C2B9AE",
"eX c #C3BCB2",
"rX c #C7BEB6",
"tX c #E2BBA5",
"yX c #BEC2BE",
"uX c #C9C4B9",
"iX c #CCC6BB",
"pX c #D2C8BE",
"aX c #E7C9B9",
"sX c #C8C8C3",
"dX c #D3CDC3",
"fX c #DACDC5",
"gX c #D9D4CA",
"hX c #DDD4CB",
"jX c #D9D6D4",
"kX c #E7CEC1",
"lX c #E7D2C5",
"zX c #E2D5CC",
"xX c #E2D8CE",
"cX c #E3DBD3",
"vX c #E6DCD6",
"bX c #E8DFD9",
"nX c #E7E5D9",
"mX c #EBE4DD",
"MX c #F0E7DE",
"NX c #F1E9DF",
"BX c #ECE3E0",
"VX c #EFECE2",
"CX c #F4EAE4",
"ZX c #F3EFED",
"AX c #F3F1E9",
"SX c #F8F6F4",
"DX c #FEFEFD",
/* pixels */
"^ ! ^ ^ ^ ^ ! ! ^ Q ~ ! ! ! ! ! J ! / ! ~ ! ~ ^ ^ ^ ` O.` ` ^ U M U U M M M M M M M m b b m b c k v c j c c c c n n z n z l n n ",
"^ ^ ^ ^ ^ ^ ^ ^ ^ ^ ~ ^ ^ ! ! ^ ^ ! ! ~ ~ ^ ( ` ` ' ] O.] ' ^ ~ ~ U U J U M Q M M M M b b m b c v v c c v v c n n n n n n n n z ",
"^ ^ ^ ^ ^ ^ ^ ^ ^ ^ ^ ^ ^ ~ ^ ^ ^ ^ ! / ^ ^ ( ` ' X.+.] X.' ` ` ~ ~ ~ ~ ~ U U U M M M b M m m b b c b c v n c n n z c n l n z n ",
"` ^ ` ` ^ ) ` ) ` ` ^ ^ / ^ ^ ^ ( / ^ ^ ^ ^ ` ' X.X.X.O.X.X.` ` ^ ^ ~ ~ ~ ~ ~ Q J J M M b m m m M M c b n n n n n n n c n n n n ",
"` ` ) ) ) ) ) ) _ _ ( _ _ _ ( ( _ ` _ _ ` ` ' X.X.o.+.+.+.X.` ` _ _ ( ( ^ ^ ~ K J J U J J J J J M M M M M M Q M M M M M m M m m ",
") ) ) ) ) ) ) ) _ ` ` ( _ _ _ _ ` ` _ ` ` ' X.X.O.+.+.3.X.X.' X.} } _ ' ) ( ~ ^ U U ~ ~ ~ ~ ! ! ~ ~ ! J ! ! M ! Q ! Q M Q Q M M ",
") ) ) ) ) _ ) ) ( _ _ _ _ ` _ ` [ ` ' ` X.X.O.+.+.3.3.3.3.+.+.X.O.} } ' / ~ U J M J J M G m b F m v b m z n v m n v m c c v c c ",
"^ ^ / / ) / / / _ ^ / _ _ _ _ ' ' ' X.X.X.+.$.4.3.4.5.8.4.4.4.3.#.O.} ) J G v m c k h h h h g h g g f f f f p f f i f i p y y y ",
"~ ~ / / / ^ ~ ~ / / / ( _ _ _ ` ' } } O.@.;.4.6.0.u.S.%X%X+XD.8.,.=. ._ K G b x x h h h h g g f f g f f f f f f f f f i i i i i ",
"J J J ~ K K U ~ ! ! ~ ( / ^ ` [ ' } O.@.4.6.0.Z.}.=XsXjXjXrX#XZ.9.,.@.} / K G J F v h h h x g h h f x f f f x x z f f f f f f f ",
"M b b M M Q J J K J K ~ ~ ~ _ _ } | #.4.9.t.D.XX<XjXDXSXZXwX=XZ.t.4.*.| [ [ K H F F v h x x x x h g z g x x h f f f x f f f f f ",
"v m m m m M m b M J M J ! K Y _ { @.;.6.0.D.XX3XfXDXDXDXfX<XXXZ.9.-.*.| | [ ! K G F F F F x x x x x x x x f f h g x f f l f f f ",
"c j c c c c c c m M M M K U / _ } #.-.9.V..X<XrXSXDXDXvX3X=XZ.0.-.*.| | | | [ ! K K H D K F x F v x F x h h x h h g h g h g f f ",
"c c c c c c c b b b J K J ~ / } @.;.6.q.D.=XqXBXDXDXbXqX=XD.0.2.=.| | | | -.*.| | ! K K ! K K F G F F F F h x x h h h h h g h h ",
"~ ^ ~ ~ ) ` ) ' ' }  . . .@.#.,.6.0.Z.D.=X<XxXDXDXZXrX-X}.Z.9.-.=.| X.=.2.B.2.| | [ [ ! ! K D H F F F v F F F F h h h h g g f g ",
"w.e.w.w.i.y.i.i.p.p.p.p.E.E.W.}.|.oX;X2XeXfXSXDXSXdX3X;X.X{.u.r.6.5.4.Z.Z.0.=.*.*.| | | ! | | [ ! | ! ! [ ! K ! K K K Y K K K K ",
"@X@X$X%X*X*X&X*X;X>X>X*X*X>X>X1X1X6XrXfXjXZXDXDXcXrX4X>X*X$X+X X X X|.+X{.{.{.E.{.{.E.E.{.|. X XXXoXoXOXOXOX XOXOXOXOXOXOX$X+X@X",
"%X$X$X$X&X&X&X*X>X>X*X*X&X*X*X1X1X4XsXdXbXDXDXbXrX3X1X*X&X&X%X$XOX$X$X+X+X$X$X+X$X$XOX$X$X$X$X$X%X%X$X$XOXOXOX XOX XOXOX|.|.OXE.",
"y.y.y.y.y.y.W.Q.XXF.D.D.p.S.S.{.oX;X2XfXDXDXBXrX,X#X|.}.{.S.S.p.p.i.i.y.y.y.y.y.y.w.w.r.y.w.w.w.w.w.w.8.w.8.w.,.:.5.:.:.:.:.:.:.",
"O.O.+.:.$.3.V.G.J.J.J.F.Z.B.t.u.S.XXqXZXDXZXeX=XW.i.q.7.8.5.:.5.:.#.#.#.+.#.$.+.o.:.:.:.#.o.#.#.+.$.+.+.O.#.#.o. . .' T ) ) U ^ ",
"^ ^ o.3.' +.3.;.-.x.C.J.J././././.qXbXDXZXrX#XD.q.7.q.8.;.6.2.1.2.<.=.O.} O.' ' o.o.) ^ ) ] ' O.o.o.#.+.o.] #.o.] o.#.O.o.o.o.) ",
"{.i.8.i.3.w. Xp.{.w.p.Z.V.J./.(.[.0XaXkXqX/.Q.W.Q.=X=XJ.J.H.^.^.!.G.C.Q.Q.D.p.i.i.i.E.|.OX|.|.OXoX X|..XOX}.|.W.W.W.OXE.|.OX|.{.",
">X1X>X>X>X>X1X>X>X*X&X$X+X.X}.F.F.J.(.(.(.(.(.-X[.].H.N.H.n.n.N.H.].[.[.8X<X:X<X:X>XW.r.,.<.e.Z.Z.Z.E.A.Z.r.r.y.r.w.w.e.w.<.:.w.",
"1X6X6X6X6X6X6XyXyXsXsXsXyXuXyX6X4X2X<X<X-X[.[.].^.H.N.n.c.v.n.n.M.M.H.M.H.H.(.].).!.x.>.1.1.=. .( J c c v b b M T ' { @.#.#.:.7.",
"6XyXsXsXsXpXdXfXzXlXlXlXkXkXaXaXaXtXtXtX0X0X9X7X].J.N.n.n.n.n.n.n.l.n.m.m.H.(.[.8X0X0X[.).V.2.@.o.) o.o.#.o.o.T o. .]  .#.#.:.,.",
"yXsXdXqX7X8X7X7X].J.G.J.G.G.v.c.v.m.G.G.C.c.G.N.M.n.n.n.v.n.l.c.c.n.n.m.m.G.~.~.~.~.M.x.%.R T b b b b c j j j j j j b b b j j s ",
"uXdXjXjXdX4X|.5._ I x.T.Y.Y.g.E F b ~ ' x.b._._._.h.E &.%.%.&.&.k.k.k.k.l.c.v.c.k.&.I U d 0 y y y y j p 8 8 - - q 8 q q 8 r y p ",
"iXdXyXE.' j s g r W `.`.K.K.L.d.C u c J +.f.j.f.a.Z 4 5 6 r p m F [ *.t.Q.;X=XQ.V.%.G b k j p p y 8 8 8 8 8 0 0 j b U T ) ~ b j ",
"Q..XQ ; I s.b.U.h.f.W h.b.U.L.`.Y.K.U.`.h.Y H f 4 C E W z.>.I k u q u n O.y.OX,XyXpXgXdXuXuXyXyXyX,X1X2X2X4XyXyXuXiXuXuX4X,X@XW.",
"`.Y.K.W < D Z L k.b.N.~.~.J.]._.'.'.'.`._.M.n.c.n.h.U.U.Y.!.W I I I >.>.%.%.7.E.@XyXgXnXnXnXnXnXnXnXnXnXnXnXgXdXpXuX5X,XXXV.<...",
"P.s.K.h.T D f.l.n.G.N.~.^.^.~.~.J.H.H.~.(.(.~.~.H.m.n.l.k.f.s.K.L.P.P.P.K.g.W >.i.@XwXgXnXxXnXnXgXnXnXnXcXcXxXpXuX:XR.<.R Y R R ",
"b Q.:XT._.K.`.I.m.-.1.B.1.k.x.M.G.G.G.M.x.x.B.B.1.-.1.B.>.B.k.f.g.P P P C C d j T w.T.yXgXnXVXVXVXVXnXgXpX5X,XQ.2...S 0 4 8 y k ",
"j 7.x.g.s.K.f.P k - r j y 9 H 1././.T.x.-.T T b 6 - - - - y m ~ ) Q l r q 8 r y t y b T #.t.Q.OXQ.R.e.2.=.R T H k 0 8 = # $ * - ",
"8 ' y.Q     O O O # # . @ O . O.4XmXeX>X .. . . # # = # # # # - j j v j y 8 p p y 8 8 # @ O @ # - 8 9 d k v x s 8 - * * $ # # * ",
"> y Q U p - - # - # > r r j ,.2XcXnXAXVXpXE.@.U 8 8 - 8 t j ~ +.#. .T j p 8 t 8 8 > - # # 8 t s j b U U U Y U U J c p r 8 > > * ",
"q - $ $ r 8 c Z.@XE.,X4X5XdXxXnXdXdXdXdXpXpXpXiX4X,X,X>X>X,X,X@Xr.,.T b j y 9 8 y r r 8 8 9 p j j s y 9 p p k j h g j g p l p y ",
"q > $ * O j >XxXgXlXgXgXxXhXdXdXiXuXuXiXpXiXpXiXiXiXiXuX4X=Xe...b y 8 8 8 0 8 8 9 8 6 8 8 8 r t 8 9 > - ; > 8 8 r p p p l j l p ",
"8 - $ $ O ,.5X5XuXuXpXpXiXuXwX5XeXeXwX5X5XwXyX5X4X,X*XQ.7.~ j y 8 0 y y 9 8 8 8 8 - = # * * = - - - * * * ; > > q > > > > * > q ",
"9 8 * O X X   O 8 m ..e..X<X5XyXwXwXwX5X5X2X,X@XQ.t.<.T h p y y p j 0 8 8 8 - - - 3 - - - = - - > q > > - > 6 q q q - > > > > - ",
"t 8 - $                   # y b / { { }  ...R %.%.R S 0 9 t a s s y 9 9 8 - - - - - - = = = - 6 r r r 8 > - - > 6 8 8 q q 8 8 8 ",
"t - = = o         O X O X X X X X X X q Q ' U : @ 6 9 t 9 t t s y y 0 8 6 3 8 8 - 8 - - * # - > 8 8 r 8 8 - - - - 8 8 8 8 8 8 8 ",
"# # @ . O X   o $ O O X X O $ $ $ O X X ; l :.E. .o . 8 j h a t y s y 9 6 6 9 9 0 y j k h s 8 9 t t t r r r 8 r 8 8 8 r 8 y 8 8 ",
"O o X o O O O * q - * * * $ $ * * * $ $ $ $ O l |.S.i c / J k 9 a s k j y 6 6 y k k k k F G F h s h s s t t t r r r t y y p y l ",
". o . O $ O * $ * q q - * * $ $ $ $ $ * > y u * w u.D._ <.q.} t 7 9 a s h s 9 3 6 a h h h s h k k j h h h s y 9 r y p p p y y y ",
"X o O O # - > 8 8 8 8 y r w 8 > * * * * ; r j p w p 5.r.7.Z.0./ g t e 7 9 t t 9 3 3 6 9 9 a a 7 9 a s h F H K G k a 6 - - - > 8 ",
". O $ $ * q p t y y y j j j j j c l j c c l l c p c M / 4.|.}.#.h y y t 6 6 6 6 6 3 - - 3 6 7 6 3 3 3 3 7 s F K K K F h y > - - ",
"o o O $ * > r y p j p p j j j b b U U T ) T U U M U ~ U v *.#X0.f 6 6 6 6 - - - - - - - - - 6 : = & @ @ & 3 a k H K / [ T b y r ",
"o o $ $ * ; : r p p y p p p y p u j U U ^ U b M U b p M k v E.#X( 6 8 8 t t 8 6 - - - - - - = = = = = = = 3 7 s h k S G U T b j ",
"o o O % % ; = - r r w i u p i f l ; i v b b M U U U y 8 8 8 U >XW.j s j k b U k j 0 6 - * * - = ; ; * = 3 3 3 7 7 0 a a d h S G ",
", + % & * = ; = : > 6 t y f g u l w ; t y v b G U _ b 8 6 8 - @.4Xy.d b U b b b k k j j 9 - - = = = = 6 6 e e e 3 3 3 7 0 d k F ",
"< + + & - 6 - ; - ; : 6 e e r 6 w e > w r t g c b U T y # > - = 7.2X#.j k k k k j y 9 p j s t 8 6 6 - = 3 6 s v F h e 7 a s k F ",
", + + % 5 6 r w 6 > : ; : > : ; ; q e r r u r i j v G / - $ = * > i.%Xb 0 0 y y y y 8 - - 8 8 8 6 6 t 6 6 6 7 f F G K F s h h s ",
", , + + , 6 r w w w : ; * ; * * * q q u y i p r 8 y g h M > X $ O y {.7.r 8 q 8 8 8 8 - * * * * * * = 6 6 7 e a t a h x F a e 5 ",
", , , , , 3 e e w w q : ; ; * * * * ; : w t u y y 8 8 8 y J y O X O ' W.M * = - - - > - ; % O O O O @ = = 3 6 7 e a a a g g h f ",
", , , < , 1 5 t r t t e w > : : % * * * ; : w r t u t > > t v k > X O r.{.8 $ > ; * * * ; = % % O O @ % = = = 5 e s h h h y 7 6 ",
"2 2 2 < < < 1 5 i i i e w q ; : ; * $ $ $ * : ; > w t w > - 6 8 g j ; ; E.+Xq X > * $ * % % % % * = = ; = 5 5 5 e a h J [ *. .Y ",
"B N N 2 2 1 1 1 5 a e e w 5 : 5 : ; ; ; ; % * ; : : - : q > - = * > g r q p.1Xn o = = : 6 5 w w w w f f x ! x f e e f D F ! -.2.",
"A B N N 2 1 1 1 1 5 e 5 5 w w w w w w w e w r w : : : : : : : ; ; * * - r w ;.$X! % ; : w i i u w z ! 4.*.! ! ! 4.*.F f F ! F F ",
"A V B N 2 1 + + + + & & 5 e e e r t t t u t y y r r r > : > - - - * = * % = : z @.z @ & ; : e e w & w Q 4.*.! F | S.oX2.K D ! D ",
"a.L L L D F x x z x x z m ! / ! J ~ / / ( / ~ _ / ~ U J U J U J J b b v b v f e e n z i 5 : > w w q & & f ! n f f f ! 4.| F f F ",
"-X-X-XJ.F.Q.D.S.D.D.D.D.D.}..X.XQ..X.X}.}..X.X.X+X.X.XOX.X.X.X.XXXXX.X.X.XXX.X}.D.Z.Z.{.D.u.y.q.q.u.t.0.0.0.u.u.u.u.u.B.u.t.B.u.",
"lXzXzXjXzXfXjXfXfXgXfXfXhXhXgXfXhXhXgXgXhXhXhXhXhXhXxXxXhXzXxXxXxXxXxXxXxXcXcXvXvXvXhXhXcXcXzXzXcXzXcXcXzXvXvXzXzXjXvXvXvXcXvXvX",
"BXBXBXBXMXmXCXBXBXVXMXMXMXMXCXMXMXMXMXMXMXMXCXCXCXNXNXNXCXCXNXCXCXCXCXCXCXCXCXCXCXBXCXBXCXCXCXCXCXCXBXZXCXCXCXCXZXCXZXCXCXZXCXCX",
"vXzXfXvXbXnXvXbXbXbXbXbXbXbXvXbXvXzXzXxXxXzXxXbXmXbXmXmXbXmXbXhXvXmXbXmXmXmXmXBXvXvXBXBXBXBXBXBXBXBXbXvXvXvXvXvXBXBXBXBXBXBXBXBX"
};
