/* XPM */
static char *_f9ffb44739c4eafe6b3e8260b8a57d4Wj6aQyEbQmSxbpzI[] = {
/* columns rows colors chars-per-pixel */
"64 64 132 2 ",
"   c #6F717D",
".  c #737581",
"X  c #757783",
"o  c #767884",
"O  c #767885",
"+  c #777985",
"@  c #787A86",
"#  c #797B87",
"$  c #7A7C88",
"%  c #7B7D89",
"&  c #7C7E8A",
"*  c #7D7F8B",
"=  c #7E808C",
"-  c #80828E",
";  c #81838F",
":  c #828490",
">  c #838591",
",  c #848692",
"<  c #858793",
"1  c #868894",
"2  c #878995",
"3  c #888A96",
"4  c #898B97",
"5  c #8A8C98",
"6  c #8B8D99",
"7  c #8B8D9A",
"8  c #8C8E9A",
"9  c #8D8F9B",
"0  c #8D8F9C",
"q  c #8C909C",
"w  c #8E909C",
"e  c #8E909D",
"r  c #8F919D",
"t  c #8F919E",
"y  c #90929E",
"u  c #91939F",
"i  c #9193A0",
"p  c #9294A0",
"a  c #9294A1",
"s  c #9395A1",
"d  c #9496A2",
"f  c #9496A3",
"g  c #9597A3",
"h  c #9597A4",
"j  c #9498A4",
"k  c #9698A4",
"l  c #9698A5",
"z  c #9799A5",
"x  c #9799A6",
"c  c #989AA6",
"v  c #989AA7",
"b  c #999BA7",
"n  c #999BA8",
"m  c #9A9CA8",
"M  c #9B9DA9",
"N  c #9B9DAA",
"B  c #9C9EAA",
"V  c #9D9FAB",
"C  c #9EA0AC",
"Z  c #9FA1AD",
"A  c #9FA1AE",
"S  c #A0A3AC",
"D  c #A0A2AE",
"F  c #A0A2AF",
"G  c #A1A3AF",
"H  c #A2A4B0",
"J  c #A2A4B1",
"K  c #A3A5B1",
"L  c #A4A6B2",
"P  c #A4A6B3",
"I  c #A5A7B3",
"U  c #A5A8B1",
"Y  c #A6A9B2",
"T  c #A7AAB3",
"R  c #A6A8B4",
"E  c #A6A8B5",
"W  c #A7A9B5",
"Q  c #A7A9B6",
"!  c #A6AAB6",
"~  c #A8ABB4",
"^  c #A8AAB6",
"/  c #A8AAB7",
"(  c #A9ABB7",
")  c #A9ACB5",
"_  c #AAADB6",
"`  c #ABAEB7",
"'  c #A9ABB8",
"]  c #AAACB8",
"[  c #AAACB9",
"{  c #ABADB9",
"}  c #ABADBA",
"|  c #ACAFB8",
" . c #ACAEBA",
".. c #ACAEBB",
"X. c #ADAFBB",
"o. c #ADAFBC",
"O. c #ADB0B9",
"+. c #AEB1BA",
"@. c #AFB2BB",
"#. c #AEB0BC",
"$. c #AEB0BD",
"%. c #AFB1BD",
"&. c #AFB1BE",
"*. c #AFB3BF",
"=. c #B0B2BE",
"-. c #B0B2BF",
";. c #B1B3BF",
":. c #B1B4BD",
">. c #B2B5BE",
",. c #B1B3C0",
"<. c #B2B4C0",
"1. c #B2B4C1",
"2. c #B3B5C1",
"3. c #B3B5C2",
"4. c #B4B6C2",
"5. c #B4B6C3",
"6. c #B5B7C3",
"7. c #B7BAC3",
"8. c #B6B8C4",
"9. c #B7B9C5",
"0. c #B8BAC6",
"q. c #B9BBC7",
"w. c #B9BCC5",
"e. c #BABDC6",
"r. c #BBBEC7",
"t. c #BABCC8",
"y. c #BBBDC9",
"u. c #BCBFC8",
"i. c #BCBECA",
"p. c #BDBFCB",
"a. c #BEC1CA",
"s. c #BEC0CC",
/* pixels */
"~ #.X.X.X.o.X.o.o.X.X.#.#.#.#.#.X.X.X.X.X.-.o.-.%.;.%.%.-.%.%.-.%.%.-.%.%.;.%.%.-.-.-.-.-.;.;.;.%.%.;.%.-.;.-.-.%.%.2.o.4.-.r.W ",
"_ L c C H H L D D C D B D D D D D D D D D D D D D D D D D D D D D D D D D D D D L D D K D K K K K D K D L D D L L K L K J ( u.W ",
";.} s u 7 4 0 7 e u e u u u u e r r r r y r y y y y u u y y y y u u u y y u u u u u u y u u u u u y u z u y u s y y u c c ) a.W ",
"@.i.~ B B H H H V C B D B B C D D V V V V S Z Z Z Z Z S D D V D D D D D S D D D D D D D D K K D K D S K D V K D K L B y z ( u.W ",
"_ i.4.D X.X.H P [ ~ [ ~ ~ ~ [ [ ( ( ( ( ( ( ( ( ( ( ( ( ( [ ( ( { { { { { { { { ( X.( X.X.X.X.X.{ X.X.X.X.{ X.( W 8.[ p c X.r.W ",
"@.t.,.c D g g N l h l c c c c l z z z z c z b z c b c c c b c c c c c c c c c c c c b b c c c c b c M c b B c B u L o.u c X.8.) ",
"@.e.6.D H u ~ D K L L L L L L L D W W D W D W L W L W L W L W L W L L L W L W L L W W L L W W W W L ( K ( W S 2.D B -.r z ( w.O.",
"_ 0.,.V B 3 L O # # # $ $ $ $ # % % % % % % % % % % % % % % % % % % % % % % % % % % % % * * * * = + = @ * %   y o.l ;.u c X.w.U ",
"X.y.4.M M 1 o.K B Z Z Z V V Z V V V V V V V V V V V V D D V D D V D S Z D D D D D D D D D D D D K D D Z D K - , ( b ,.r x [ y.W ",
"` y.;.M M 2 4.W W W W / W [ ~ W ( W ( ( ( ( ( W ( ( ( ( ( ( ( ( ( ( ( ( ( ( ( ( X.( ( ( ( X.( ( ( ( [ ( ( ( 2 r ( b 4.r x [ y.W ",
"X.r.4.b V 2 9.[ W W W / W [ W W W ( W ( ( ( W ( ( ( ( ( ( ( ( ( ( ( ( ( ( ( ( ( ( ( X.( ( ( ( ( [ ( ( ( W ( 1 8 ( b 4.r x [ y.W ",
"` r.;.M M 2 9.o.W W ~ ~ W W / / ( W ( ( ( W ( W ( ( ( ( ( ( ( ( ( ( ( ( X.( ( ( ( X.( ( ( X.( ( X.( ( ( ( ( 1 8 ( b 4.r x / y.W ",
"X.r.;.M V 1 8.[ ( ( ( ( [ [ [ ~ ( ( ( ( ( ( ( ( ( ( X.( X.( X.( [ X.( X.( X.X.X.X.X.X.X.( X.X.X.X.[ X.( ( [ 2 r [ n 4.t x [ y.W ",
"( r.4.M M 1 8.[ W ( W ( ~ / / W ( ( ( ( ( ( ( ( ( ( ( ( ( ( ( ( ( ( ( ( ( ( ( ( ( ( ( ( ( ( ( ( ( ( ( ( W W 1 4 [ x ,.t n [ y.W ",
"( y.4.M M 2 9.[ ( ( ( [ ( [ [ [ ( X.( ( ( X.( ( X.( ( X.( X.( X.( ( ( X.X.X.( X.X.X.X.X.X.X.X.X.( X.X.( ( [ 2 8 W n ,.t x [ y.W ",
"` y.4.M M 2 9.X.( W ( ( ( ( ( ( ( ( ( ( ( ( ( ( ( ( ( ( X.( ( ( ( ( ( ( ( ( ( ( ( X.( ( ( X.( ( X.( X.( ( ( 1 8 ( n 4.t x / y.W ",
"O.r.>.M M 1 8.O.W ( ( ( ( ( ( ( ( ( ( ( ( ( ( ( ( X.( X.( ( ( X.( ( ( ( X.( X.( X.( X.( X.( X.( X.( X.( ( ( 1 4 ( b o.t n [ y.L ",
"` r.>.M M 1 8.X.( W ( ( ( ( ( ( ( ( ( ( ( ( ( [ ( ( ( ( X.( ( ( ( X.( X.( X.( X.( X.( X.( X.( X.X.( X.( ( ( 1 r ( c 4.r n [ y.W ",
"` r.;.M b , 8.X.W ( ( ( ( ( ( ( ( ( ( ( ( ( [ ( ( X.( ( ( X.( X.X.( ( ( ( X.X.( X.( X.( X.( X.( X.( ( ( ( ( 1 r ( c ;.r l [ y.W ",
"` r.;.M M 1 8.X.( W ( ( ( ( ( ( ( ( ( ( ( ( ( [ ( ( X.( ( ( ( ( ( ( ( X.( ( ( X.( X.( X.( X.( X.X.X.( X.W ( 1 4 ( c ;.r l [ y.L ",
"O.e.>.M M 1 8.X.W ( ( ( ( ( ( ( ( ( ( ( ( ( X.( ( X.( X.( ( ( ( X.( X.( ( X.( X.X.( X.( X.( X.( ( X.X.( ( ( 1 r [ x ,.0 l [ y.W ",
"` e.>.M M 1 8.X.( W ( ( ( ( ( ( ( ( ( ( ( ( ( ( ( ( ( ( X.( X.( ( ( ( ( X.( ( ( ( X.( X.( X.( X.( ( ( ( ( ( 1 4 [ l ,.r x [ y.W ",
"O.r.>.M b , 8.X.W ( ( ( ( ( ( ( ( ( ( ( ( ( X.( ( X.( ( ( ( ( X.( ( X.( ( ( ( X.X.( X.( X.( X.( X.X.( ( W ( 1 r ( l o.r l [ y.L ",
"` w.>.M M 1 8.X.( W ( ( ( ( ( ( ( ( ( ( ( ( ( ( ( ( X.( X.( ( ( X.X.( ( X.( ( ( ( X.( X.( X.( X.( ( X.( ( ( 1 4 ( l ,.0 l W y.W ",
"O.r.;.M M 1 8.o.W W [ ( W ( ( ( ( ( ( ( ( ( ( ( X.( X.( ( X.( X.( ( ( X.( X.( ( X.( X.( X.( X.( ( ( ( ( W ( 1 4 ( l ,.r l [ y.W ",
"` r.;.M M , 8.X.W ( ( ( ( ( ( ( ( ( ( ( ( ( ( ( ( ( ( ( ( ( ( ( X.( ( ( ( ( X.( ( X.( X.( X.( X.[ ( [ ( ( ( 1 8 ( l o.r l [ y.L ",
"[ q.;.M M 1 9.o.W ( ( ( ( ( ( ( ( ( ( ( ( ( ( ( ( ( X.( ( X.( ( ( X.( X.( ( ( ( X.( X.X.X.X.( ( ( ( [ ( W ( 1 8 ( z o.r l [ y.L ",
"` r.;.M M , 8.o.( ( ( ( ( ( ( [ ( ( ( ( ( ( ( ( ( ( ( ( ( ( X.( ( ( ( ( X.( X.( ( ( ( ( ( ( ( X.[ ( ( ( ( ( 1 4 ( z ;.r l W y.W ",
"` r.;.b M 1 9.[ W [ ( ( ( W ( ( ( ( ( ( ( ( ( ( ( ( ( ( X.( ( X.( ( ( ( ( X.( ( ( ( ( ( ( X.( X.( ( ( ( ( ( 1 8 W l ,.0 x [ y.I ",
"( q.-.M M 1 9.[ ( W ( ( W ( ( ( ( ( ( ( ( ( ( ( ( ( ( ( ( ( ( ( X.( X.( ( ( X.( X.( X.( ( ( ( ( X.( ( ( W ( 1 8 W l ,.r x [ q.W ",
"` q.-.b M > 8.X.W ( W ( ( ( W ( ( ( ( ( ( ( ( ( ( ( ( ( ( X.( X.( ( ( X.( ( ( ( ( ( ( X.( X.( ( ( ( ( ( ( ( , 8 [ l ,.0 l / y.I ",
"` r.;.M M > 8.[ W W ( W W W ( ( ( ( ( ( ( ( ( ( ( ( ( ( ( ( ( ( X.( ( ( X.( X.( X.( ( ( ( ( X.( ( ( X.( W ( 1 8 ( l ,.r l [ q.W ",
"{ q.-.m B < 2.X.L ( W ( W ( W ( ( W ( W W ( W ( ( ( ( ( ( ( ( ( ( ( ( ( ( ( ( X.( ( X.( X.( ( ( X.( X.( ( ( 1 4 ( c 4.r h W y.P ",
"{ t.-.m B , 8.X.( L ( W ( W ( W W ( W ( ( ( ( ( ( ( ( ( ( ( ( ( X.( X.( X.( ( ( ( X.( ( ( ( ( X.( ( ( ( ( ( 1 4 ( z o.r l W y.I ",
"{ q.-.B B , 8.X.W W W ( W ( W ( ( W W ( ( ( ( ( ( ( ( ( ( ( ( ( ( ( ( ( ( X.( X.( ( ( ( X.( X.( ( ( ( ( ( ( 1 4 ( z ;.r h W q.I ",
"{ q.-.c B , 2.X.W W ( W ( W ( W ( ( ( ( ( ( ( ( ( ( ( ( ( ( ( ( ( ( X.( ( ( ( ( ( X.( X.( ( ( ( ( X.( ( ( ( 1 8 W z ;.r l W y.I ",
"{ q.-.M m , 2.X.W W ( ( W ( W ( W ( ( ( ( ( ( ( ( ( ( ( ( ( ( ( ( ( ( ( ( ( ( X.( ( X.( ( ( ( ( X.( ( ( ( ( 1 8 / l ,.0 l / q.P ",
"{ q.-.M m , 8.X.W W ( W ( W ( W ( W ( ( ( ( ( ( ( ( ( ( ( ( ( ( ( ( ( ( X.( ( ( ( X.( ( ( X.( X.( ( ( ( ( ( 1 4 / x ,.t l / y.I ",
"{ q.-.M m , 2.X.L ( W ( W ( W ( W ( W ( ( ( ( ( ( ( ( ( ( ( ( ( ( ( ( ( ( X.( X.( ( ( ( X.( ( ( X.( X.( ( ( 1 8 W l ,.0 h / q.I ",
"{ q.%.M m , 2.X.( L ( W ( W ( W ( W ( W W ( ( ( ( ( ( ( ( ( ( ( ( ( ( ( ( ( ( ( ( X.( X.( ( ( X.( ( ( ( ( ( 1 4 [ l ,.r h W y.I ",
"{ w.;.M M < w.X.W W ( ( W ( W ( W ( W ( W ( W ( ( ( ( ( ( ( ( ( ( ( ( ( ( ( ( ( ( ( ( X.( ( X.( ( ( ( ( W ( > 8 W l 4.r h / y.W ",
"{ q.-.m M > 6.] W W ( W ( W ( W ( W ( W ( W ( W ( ( ( ( ( ( ( ( ( ( ( ( X.( X.( X.( ( ( ( X.( ( [ ( [ W W W , 8 ( l o.r l W y.I ",
"_ w.%.m B , 2.X.L ( W ( W ( W ( W ( W ( W ( W ( ( ( ( ( ( ( ( ( ( ( ( ( ( ( ( ( ( ( ( X.( ( ( ( ( ( [ ( W W , 8 W l ;.8 l / q.W ",
"_ w.-.m m , 2.X.( L ( W ( W ( W ( W ( W ( W ( W ( ( ( ( ( ( ( ( ( ( ( ( ( X.( ( ( ( ( ( ( X.( X.[ ( [ W W ( > 8 W l -.r l W q.K ",
") q.-.c m , 2.o.W W ( ( W ( W ( W ( W ( W ( W ( ( ( ( ( ( ( ( ( ( ( ( ( ( ( ( ( ( ( ( ( ( X.( ( ( ( ( ( W ( < 8 W l ,.0 l / 0.I ",
"{ q.-.m m , 2.o.W W ( W ( W ( W ( W ( W ( W ( W ( ( ( ( ( ( ( ( ( ( ( ( ( ( ( ( ( ( ( ( ( ( ( X.[ ( ( ( W W < 8 W f ,.0 l W q.I ",
"_ w.-.c m , 8.o.L ( W ( W ( W ( W ( W ( W ( W ( ( ( ( ( ( ( ( ( ( ( ( ( ( ( ( ( ( ( ( ( ( ( X.( ( ( ( ( W ( > 8 W h ,.0 h W q.I ",
"W w.-.n m , 2.X.( L ( W ( W ( W ( W ( W ( W ( W ( ( ( ( ( ( ( ( ( ( ( ( ( ( ( ( ( ( ( ( ( ( ( ( X.( ( ( W W , 8 W l ,.0 h / q.I ",
"{ w.%.c m , 2.] W I W W W W W W ( W ( W ( W ( ( W ( W ( ( ( ( ( ( ( ( ( ( ( ( ( ( ( ( ( ( ( ( ( ( ( ( ( W W ; 4 W z #.e j ! t.P ",
"W w.-.m m 1 8.o.W W W ( ( W W ( ( ( W ( ( ( ( ( ( ( ( ( ( ( ( ( ( ( ( ( X.( ( ( ( [ ( ( ( [ ( ( ( ( ( ( W ( 3 8 W z ;.9 j ! 9.! ",
"( 6.%.c m , 2.( I I W I W L W I ( ( ( ( W ( ( ( L ( L ( ( W W ( ( W W W W W ( ( ( ( ( ( ( ( ( ( ( ( ( W W W 1 4 W z X.9 j ! 0.! ",
"{ w.%.m m 1 2.[ ( W ( ( ( ( ( [ L W L L L ( L ( ( ( ( ( ] ( ( ( ( ( X.( ( ( ( ( ( ( ( [ ( ( ( ( ( ( ( ( ( ( 1 4 W z ;.9 j ! 0.L ",
"W w.%.m M < 8.X.I L L W W L W W ( ( ( ( ( [ ( ( ( W ( L ( W W W ( W W W ( ( W ( ( ( ( W ( ( ~ ( ( ( ( W W ( 1 4 ! j ,.q j ! 0.! ",
") w.-.c m > 2.X.W W ( ( W ( ( W ( ( L ( ( I ( ( ( ( ( ( ( ( ( ( ( ( ( ( ( ( ( ( ( X.( ( [ ( ( [ ( ( ( ( W ( 1 8 ! j ,.q j ! 0.L ",
"_ q.%.z z ; ;.#.L I W I L W L L ( L W ( L W I W L I ( ( L ( L ( W W W W W W W W W W ( W W W W W W W W L D W ; 1 ! g ,.q h ~ 0.! ",
"W w.%.m m < u.2.2.2.2.2.8.8.2.2.2.2.2.2.2.2.8.2.2.2.2.2.2.8.2.8.8.8.;.8.;.8.8.8.8.8.8.8.8.8.8.8.8.8.8.;.2.8.u z ! g ,.q h ~ 0.L ",
"R s.X.m D o B B D D D Z Z Z Z Z B Z D Z Z Z D Z Z Z D D D D D D V V D D D D D D D D K D D J D K D Z D D Z V V V B c X.u c K 0.P ",
"X.i.-.p R w 3 6 1 1 1 1 1 3 3 1 3 3 3 3 3 3 3 3 3 3 3 3 3 3 3 4 4 4 4 4 4 4 4 4 4 4 4 4 4 3 4 4 8 8 4 8 8 8 9 8 c L X.4 u ~ i.W ",
"X.-.-.y m H B D J H D D H D H H D D D D D D D D D D D D D D D D D D D D D D D L U D D D K D L D D D D K K K L W L L ! u M P 4.L ",
"( 6.q.L B D L Z B B Z B B B Z B C Z B S B Z C C V V V V D D Z Z D V D D D D V D S S D S V D S S Z Z Z D D D D Z B D L u u ~ y.L ",
"L i.6.;.q.q.2.2.q.8.q.q.q.q.q.q.i.q.q.q.q.r.q.r.y.r.q.y.r.r.q.i.y.r.y.r.a.i.y.y.u.u.u.u.u.u.u.u.a.s.y.a.i.i.r.y.y.y.a.X.l L y.K ",
"X.-.%.%.X.-.X.;.%.%.%.%.%.%.%.%.X.X.-.X.o.o.-.X.X.-.-.o.%.-.o.-.-.-.-.;.-.X.;.o.;.o.;.-.-.-.-.;.4.o.-.,.;.;.;.;.8.[ 4.9.~ W 9.K ",
"( K X.%.H ( ( ( ( ( ( ( ( ( ( ( X.( ( ( X.[ X.X.( X.X.( X.( ( X.X.[ X.X.X.X.( X.X.X.X.X.{ X.X.[ [ X.[ X.X.X.X.X.[ X.X.X.[ X.y.W ",
"o $   o o X o o o o o o o o o o X X X X X X X X X X X X X @ X X @ X X @ X X X X O O X O X X X X % O % O O O X O O # O O * . r Z "
};
