/* XPM */
static char *_f297ad1bfdc425185a3280a61024b575KhmkY0ll0PR985D[] = {
/* columns rows colors chars-per-pixel */
"64 64 256 2 ",
"   c #1B0703",
".  c #0C1804",
"X  c #171A07",
"o  c #181A15",
"O  c #0A120C",
"+  c #230401",
"@  c #2B0502",
"#  c #2C0A03",
"$  c #270A06",
"%  c #3B0B04",
"&  c #350904",
"*  c #261507",
"=  c #3A1206",
"-  c #261816",
";  c #351616",
":  c #172709",
">  c #1B330A",
",  c #1A2814",
"<  c #1C3415",
"1  c #0D2508",
"2  c #272918",
"3  c #382619",
"4  c #273718",
"5  c #2C320C",
"6  c #391D25",
"7  c #1B2A29",
"8  c #292A23",
"9  c #2A3724",
"0  c #363826",
"q  c #363132",
"w  c #0F1728",
"e  c #450C07",
"r  c #471509",
"t  c #481916",
"y  c #53180F",
"u  c #4B2419",
"i  c #58261A",
"p  c #4C2C0B",
"a  c #6A2A1A",
"s  c #4B2626",
"d  c #562B25",
"f  c #453A34",
"g  c #533433",
"h  c #6E352D",
"j  c #521A1C",
"k  c #29460D",
"l  c #294317",
"z  c #344919",
"x  c #38581B",
"c  c #31570E",
"v  c #3E641D",
"b  c #2B4426",
"n  c #364827",
"m  c #395527",
"M  c #394733",
"N  c #3D5536",
"B  c #2F4435",
"V  c #35592F",
"C  c #4B4C1C",
"Z  c #44582A",
"A  c #454935",
"S  c #485938",
"D  c #514E32",
"F  c #6D4938",
"G  c #486727",
"H  c #4B6636",
"J  c #556939",
"K  c #5A7839",
"L  c #52722C",
"P  c #6B7138",
"I  c #525215",
"U  c #34394A",
"Y  c #4C3D44",
"T  c #38494C",
"R  c #3B4D64",
"E  c #485B44",
"W  c #53524D",
"Q  c #6D534E",
"!  c #576746",
"~  c #597546",
"^  c #587453",
"/  c #52674F",
"(  c #637749",
")  c #656857",
"_  c #677758",
"`  c #736D51",
"'  c #52586A",
"]  c #6E5764",
"[  c #5B6B71",
"{  c #787766",
"}  c #6F6F6D",
"|  c #894839",
" . c #9E623C",
".. c #C3643E",
"X. c #90564C",
"o. c #AD5D47",
"O. c #84645B",
"+. c #8F6F52",
"@. c #B16F54",
"#. c #88786A",
"$. c #91756E",
"%. c #B77768",
"&. c #AF776A",
"*. c #C57358",
"=. c #C76E4E",
"-. c #C57B68",
";. c #E87E58",
":. c #5C8538",
">. c #66853C",
",. c #6A8648",
"<. c #768A4A",
"1. c #75954A",
"2. c #6B8659",
"3. c #748859",
"4. c #799658",
"5. c #699552",
"6. c #788766",
"7. c #799267",
"8. c #798676",
"9. c #708C71",
"0. c #5D8553",
"q. c #899456",
"w. c #85A35D",
"e. c #889867",
"r. c #959878",
"t. c #8B8D71",
"y. c #BC8378",
"u. c #AA8574",
"i. c #9BA97A",
"p. c #9BB774",
"a. c #8FAA6D",
"s. c #A9B675",
"d. c #AE8350",
"f. c #EA8B5B",
"g. c #E68659",
"h. c #F2895C",
"j. c #C6816A",
"k. c #DB8666",
"l. c #C58576",
"z. c #DD987A",
"x. c #D68C78",
"c. c #E58A64",
"v. c #E78964",
"b. c #E39B7C",
"n. c #E79979",
"m. c #EE8F67",
"M. c #E4A07F",
"N. c #DF8456",
"B. c #A9C878",
"V. c #B4CF79",
"C. c #9FC175",
"Z. c #737589",
"A. c #57638E",
"S. c #8A738C",
"D. c #788C8E",
"F. c #7888B6",
"G. c #779E95",
"H. c #7B92CC",
"J. c #6A8ED9",
"K. c #6B92DD",
"L. c #6493D9",
"P. c #7697D8",
"I. c #798ECB",
"U. c #7BA1DE",
"Y. c #5D8FE7",
"T. c #5E92E5",
"R. c #5E93EA",
"E. c #5490E8",
"W. c #5B96F0",
"Q. c #628FE5",
"!. c #658EE9",
"~. c #6393E5",
"^. c #6B95E4",
"/. c #6E99E5",
"(. c #6393E9",
"). c #6A94EA",
"_. c #6B9BEB",
"`. c #739CE4",
"'. c #7499E6",
"]. c #6592F4",
"[. c #75A2E4",
"{. c #7BA5E6",
"}. c #979888",
"|. c #8C908F",
" X c #B68787",
".X c #AE9291",
"XX c #89A48C",
"oX c #98A688",
"OX c #9AB389",
"+X c #94A996",
"@X c #A8B688",
"#X c #A8AA99",
"$X c #A9B997",
"%X c #ACAF90",
"&X c #9797A6",
"*X c #868AB7",
"=X c #9192B0",
"-X c #A997AC",
";X c #98A9AE",
":X c #ACB7A7",
">X c #B8BCA6",
",X c #A8A6BB",
"<X c #B7BBB9",
"1X c #ADACB1",
"2X c #CD968D",
"3X c #E49C82",
"4X c #E89E84",
"5X c #E9A284",
"6X c #E6A594",
"7X c #C8B6B2",
"8X c #DDB1A7",
"9X c #AAC583",
"0X c #B4CD8E",
"qX c #B9C7AA",
"wX c #B2C5B3",
"eX c #9FC087",
"rX c #C2CC8F",
"tX c #C6C7B9",
"yX c #DBD7BA",
"uX c #CCCBAE",
"iX c #EAD3BA",
"pX c #8897C6",
"aX c #8A98CA",
"sX c #87A6DA",
"dX c #96A7CD",
"fX c #B8B7C6",
"gX c #AFB3CB",
"hX c #85A8E6",
"jX c #93A9E8",
"kX c #AAA7CE",
"lX c #C4BCC9",
"zX c #C6BFD3",
"xX c #BDC9C6",
"cX c #B9C8D0",
"vX c #C8C8C7",
"bX c #D8CBC4",
"nX c #CAD3C9",
"mX c #D9D6CA",
"MX c #C9C7D3",
"NX c #CBD4D6",
"BX c #D8D9D8",
"VX c #D1CED7",
"CX c #E6DBCB",
"ZX c #EBDCCC",
"AX c #E7D8C9",
"SX c #ECDCD3",
"DX c #E8D8D3",
"FX c #F3DBD4",
"GX c #EFD7C8",
"HX c #DAE2DE",
"JX c #EBE2CA",
"KX c #EBE2D4",
"LX c #F4E2D5",
"PX c #F3E3CB",
"IX c #D7D5E3",
"UX c #CECFE9",
/* pixels */
"J.K.!.(.!.!.!.!.^.!.].].].!.).!.(.R.].~.(.R.E.R.W.R.!.!.~.).).(.].R.!.(.(.!.~.~.~.~.T.Q.Q.T.R.R.Y.Y.Y.!.T.T.T.T.Q.T.Y.T.Y.Y.Y.Y.",
"K.Q.).(.!.!.J.I.P.I.J.!.].).^.!._.R.(.Q.T.R.R.R.R.W.!.].(._.(.Y.(.!.(.(.Y.~.(.~.T.~.Q.T.Y.Y.Y.W.Y.Y.(.R.T.T.T.T.T.T.T.T.Y.Y.E.Y.",
"^.Q.).!.J.I.*XdX*X*XI.I.P.L.J.L.L.T.L.T.L.~.~.L.T.(.!.(.R.~.(.R.Q.~.!.(.R.R.R.T.T.T.T.~.!.Y.Y.Y.!.Q.Y.~.Y.~.Q.Q.Q.Q.T.Q.Q.Y.Y.Y.",
"!.!.^.P.aXaX=X,X-XS.=X*XI.I.P.K.L.L.^.^.L.~.~.~.L.(.(.R.T.T.~.^.~.(.(.(.R.R.R.R.T.~.T.T.(.R.(.!.T.T.~.~.~.~.~.~.Q.T.Q.T.!.Q.Y.Q.",
"^.^.J.aX*X,X-X2XS.g ] S.=XS.aXH.I.J.J.^.~.~.~.!.^.(.).!.).~.^.~.~.~.^.~.(.(.(.(.(.R.(.(.~.~.~.~.(.(.~.(.~.~.~.~.~.~.!.~.!.Q.Q.Q.",
"/.P.aX*XS.2X2X2X-.j e g ] S.-X*XI.aXJ.J./.^.^.^.K.J.J.!.^.~.K.K.L.~.^.^.^.^.(._.(.(.(.(.~.K.L.J.~.^.~.~.~.~.~.~.~.(.~.!.!.Q.(.(.",
"H.F.kX-X X2X2X-.*.y e e j d Q ] Z.pXaXH.P.P.I.aXpXpXI.I.P.^.^.!._.^./.K.^.^.^.(.(.(.(.(.K.K.P.P.~.~.^.Q.^.!.^.Q.^.).).).~.(.).!.",
"*X' -X2X6X3X3X-.*.e e e j t j j ] S.=X*XpXF.pXaX,X=X=XpXpXI.P.).^.^.^.^.P.K./././._.(.(.^.K.K.K./.^.^.^.^.^.^.^.^.~.^.~.).).).).",
"&X] 2X2Xz.n.3Xj.%.j e % r r r r t s ] S.|.&X-X7X8XS.S..X=XaXP.).L.'.^./.'.J.'.J.).!.).'.'._.'.'././.^./.^.^.^./.^.^.^.^./.).).^.",
".XO.l.6XM.n.z.%.&.e & & r = r = r y j s g $. X2X2Xx.x. XS.-XaXaXP.U.P.K.P.^.'.'.'.'.'.^._._._.(./.^././././././.^.^.^.^./.).^.^.",
"2X%.3X5Xn.n.z.l.%.y & % = = = r e r y y y j h %.-.-.-.-.2X X2X,X*XpXaXP.'.'.'.).'.'.'.)._._._.(._.'.`./././././.'././.^.^.).).^.",
"6X4X5Xn.n.M.3Xl. Xy % e % = r = e e e e e e y h -.*.*.;.-.-.S.2X-X-XpXaXsX'.'.).'.'.'.'._._._._._.'.`.K./.`./._.'.'./.`.'.'.'.'.",
"4X4X3X3XM.5X3Xl.%.y % % & % e % % e % e e e y i a j a *.*.-.-.-.2XS.2X-XaXaXP.'.).'.`.`.`.'.'.'.`.`.`.`.P.`./.P.`.`.`.`.'.'._.'.",
"4X4Xb.z.5X3X3X%.@.e & & % % % % = @ & & & & j i h e y y a %.*.-.-.x.S..X-XaXaXaXP.'.`.`.'.`.hX`.`.`.`.`.`.`.[./.`./.`.'./.`.`./.",
"3X4X3Xz.b.3X3X%.X.& # & @ # @ & @ @ # # @ e h X.Q t h j j i a @.*.x.-.y. X.X-XdXaXaXsX'.`.`.`.`.[.[.[.[.`.[.`.[.[.`.{.`.`.[.'.[.",
"3X3X3Xb.4Xx.3X%.h @ $ $ $ & @ @ & $ & # = t X.S.$.g 6 6 O.s j i h @.%.2X-. XS.2X,XpXaXP.sXU.sXP.`.P.[.`.[.[.[.[.[.[.'.`.{.'.[.`.",
"3X3Xz.5XM.b.x.%.i & + *   + @ @ @ & & = ; t Q -X1X] W q q } ] 6 d d h @.%.j.j.y. X-X,XpXH.aXP.sX{.{.[.[.[.[.[.[.[.[.U.U.U.U.{.`.",
"b.3Xz.M.z.5Xx.@.r @   +   + @ @ & % & = u D .XmXDXlX-X' ' S.Z.T S.d j i a @.%.l.l. X.X-X,XdXaXdXsXP.[.[.[.[.[.{.U.U.U.U.[.[.`.hX",
"b.b.z.z.n.3X-.%.r @       + + @ @ e % u Q $.yXDXBXIXNXfXgXkXD.Z.|.W ] r p a h o.-. X X X.X&XpXaXaXsXhX{.`.`.'.hXU.sX[.{.[.{.{.{.",
"b.z.z.z.3X3X%.%.r $ +   + @ @ & % & t t O.u.bXBXBXDXHXIXIXMXkX;X=XS.{ * i r y i h &.-.2X X X-X,XdXdXsXsXhXhXhXP.sX{.{.{.{.{.{.hX",
"n.z.b.M.4X3X%.%.t =     $ # + & & % r i O..XbXKXKXmXHXBXHXHXNXcXgX&X|.U W u Q ; j g | o.%.-. X.X-X-X,XdXsXhXhXjXhXhXhXhX{.{.hXhX",
"n.b.M.b.3X3X%.&.u = $   + # # & = = u g #.$.yXDXDXmXmXKXHXHXNXNXNXcX<X1X] ] W - 6 6 j a | @.&. X.X.X-XkXdXdXjXjXhXhXhX{.{.hXhXhX",
"b.b.3X5X3X3X-.&.t # + + $ # # & & = = F u. X7XbXvXbXmXBXmXHXBXKXHXNXMXUX<X,XS.' U U Y t y a | &.-. X X2X,XkXkXdXjXhXhX{.hXhXjXjX",
"4Xb.3X4X3X3X-.&.= # + @ @ # & & e = r F $.$.O.] ] { &XNXNXmXBXBXNXIXIXIXUXIXfXkXS.' W q s j y a X.&. XS. X-X,XkXjXjXhXhXhXhXjXhX",
"n.4Xn.M.M.M.j.d.t @ @ + @ & & # & = = d Q h 6 $.] q U &X|.gXBXBXBXBXIXIXBXIXIXIXzXgX&X} Y W g 6 j d $.&.u.y..X1XgX;XdXsXsXsXjXjX",
"4X5X5Xn.n.z.%.@.r # # # + & ; & r = 5 ` P 3 * $.} R U U R G.&XG.fXNXVXIXIXDXBXIXUXIXcX<X1X] ] 6 6 g i d @.u. X}.D.G.G.;X;XsXjXjX",
"n.n.M.n.n.z.%.@.i # + + & + $ p F p I P 3.5 0 r.|.} ' U R F.R T [ &X|.fX7XbXIXBXDXIXVXBXNXfX,XZ.A.Y ; u p C d.e.,.2.9.;XG.dXdXdX",
"n.n.n.c.k.k.@.%.d @ $ @ $ = * q.q.q.q.q.1.q.s.$XtXxX<XR R G.A.R R ' Y q W { tXVXVXIXnXBXNXNXUXcXgXS.{ g P +.e.P l m 6.XXD.+X,XgX",
"m.m.c.k.c.k.j.y.i # @   * * 5 P q.q.a.L v <.a.3.a.eXr.wXxXcXD.[ F.' U 8 q M [ |.=XcXVXNXBXBXVXIXNXnX:X}.t.C ( L c x 3.( S |.#X;X",
"v.v.c.c.k.*.@.| u + $   X p P >.L 1.<.G c 4.K x G 7.4.$XqX+XwXD.;X|.' M ] W ' ' ' A.|.kXvXvXNXvXnXqX#XqXoXn z z k x <.z Z t.oX+X",
"g.g.g.c.c.-.*.h d   * * 5 q.<.>.:.1.w.L 5 Z G 5.5.v G ~ 4.2.G.[ D.:XcXNXvX] } [ Z.A.A.' [ ) #Xi.$X0XqXoX+XA > > L <.e.( J _ 3.r.",
"g.f.c.c.k.*.@.y = * C 5 <.q.1.:.v v G >.x > Z Z K :.L L 5.0.7.^ G.wXNXHXVXMXUXgX*XA.A.Z.' A D 3._ e.oX8.+X! 4 Z ~ ,.( K S H ~ 0.",
"f.f.g.v.v.*.@.r # * >.I L ,.:.G x > k 4.L z ~ m m v :.L v 5.~ / E G.:XnXBXBXIXUXUXUXUXpX] [ ( ^ ^ S _ } :X}.! ( 3.4.4.,.~ 0.~ H ",
"g.f.c.v.;.=.@.r * 5 q.>.L :.4.~ > 1 1 H G 2.~ < l v 0.c x 7.2.b N 2.XX}.tXnXBXIXUXUXUXzXvXvXG.9.9.6.8.B ) 8.{ ~ 2.K K J x H V H ",
"f.f.v.v.k.@.@.p 5 P 1.1.>.>.G a.5.< m 4.^ H 4 4 4 > l ~ m ~ B B b / D.nXnXmXNXNXNXNXVXmXvXtX7.XXwX+X8./ 8._ 2.^ Z H J m b ^ V 0.",
"f.g.v.v.v.=...p P <.>.v >.:.K G H 1 ( S n n 4 ! E l > b < l B 1 , T XX7XtXtXnXNXBXnXVXnXtXqXwX9.+X$XXX2.9.9.^ ^ 2./ n n V 0.E 0.",
"h.f.v.v.f.*.@.p +.q.>.w.w.<.4.7.J > Z 4 > 4 b b N 9 , n < 1 B < < n q 0 A Q 8.<XxXwXwX#X>XXXOXXXOXqXoX2.5.0.0.^ ` ! ! S / V / ^ ",
"m.v.h.v.h.d.@.P P 1.v I z z Z m N : : 4 b N 9 9 N 4 , 9 8 9 8.T B 0 A * D ) 0 M / [ |.8.t.t.2.a.OX7.2.2.0.H H 9.6.) D ! ^ V b < ",
"v.f.m.m.f.@.+. .q.P k k S _ H 1 > Z : 4 l b < 1 , E o , 2 9 M S 9.! 3 3 Q t.0 A 9 B } |.9.! ( <.4.,.K 4.5.5.:.H t.` ! 2 b < l > ",
"h.f.f.h.f.@.d.P q.>.L P b 4 / > > Z > 1 1 T ^ < 1 < 2 M q 2 < 4 Z 6.oX` ` .X#.A B q } D.+X_ _ _ ~ Z C L :.:.~ 5.P g ) b b < V < ",
"m.f.g.f.g.@.d.P w.1.I Z 4 X M 4 J ( S 1 . N E b 1 , 9 ) |.E 4 : 9 _ >XtX>X}..X>X:X|.XX&X+X^ 6.( J J ,.G c v :.<.` F ` 2 9 , 9 9 ",
"N.N.f.f.g...d.d.P P L z X : : , ^ H / , , < b < : N W / 0 M 1 1 M %XqXwX#XtXtXnXnXxX,X|.+XXX8.~ ( z z G >.,.K <.` I ` 0 9 9 , X ",
"g.g.f.f.f.=. .<.D G 5 Z 5 X X : ! 9 M 9 2 9 9 9 , 0 q / 8 , < 4 J +XXX+XwXwXxXvXxXxXcX:XG.[ 2.z S H G K 1.:.K P ` D { ) < . < , ",
"g.v.g.v.N.*. .p C ` n n S ! S 4 b < , ) E o X X : , o , , . _ 2.}.qX+X+X<X:XxXnXxXxXcX;X;XXX9.m Z > k 1.K x L 3.P q.3.! b n , M ",
"v.m.v.c.*.*.X.% 3 { 4 S S ) M , : . X / ) 2 . X , o O o X X Q S.%X$X:XqXVX7XvXxXxXxX<X&XG.D.8.J k 4 H K ,.4.J ~ x ` t.! ) < > M ",
"g.c.g.c.=.o.| e   q 2 , ! t.0 8 0 : . 0 2 X 0 0 X X . O   0 O..X.X}.#XtX7XlX7X<XwXwX1X;X;X;X8.t.Z J ~ J J ( z m D r..XA M ! E 2.",
"f.f.N.N.=...a e - $ 3 X : 5 X , ) , X A 0 X * . . , o   * g Q | F ! t.` O.Q F ! n 7 7 U G.' q ) D z n J E , , , 0 #X.Xf 2 0 S ! ",
"g.f.N.;...o.a e $ - 0 , 5 X X 2 2 : : S ( 5 2 : , 4 , X u O.o.X.Q ^ t.Q $.+.Q { N o w w Z.U q 8 2 2 X 2 M 2 8 8 8 t.}.O.D X . 1 ",
"g.f.g.g...o.e & @ 6 q 2 n * 2 - 3 3 5 f C 2 , 2 A X o o 6 d h h ] } #.$.&.u.Q |.[ U w w Z.U U 3 X . * q q W ) 7 , { }.$.Q * X . ",
"g.f.h.g...o.e &   O   O * X   * g ` D { #.}.3 f W o o } #.W g F } } |.r.u.$.#.}.[ 7 w 7 Z.' Q 2 O . X * ; { q 7 8 }..Xg Q ; 3 ! ",
"v.v.;.;...o.e ;   O   - $ +   ; #.O.Q #.-X7Xd $.#.o o } D.W } ] } 8.#X$.t.+.#.#X0.T O 7 F.[ t.q 2 0 X X 2 ) , 9 7 &X#XW 6 f ) 4 ",
"g.g.h.;...o.e # $ - q $   - $ 3 $.] { #.7X.Xg $.] - w Z.D.[ W q q M #XJ i.u.t.qX9.0.E / D.[ D.E b n 0 D S n N ^ / { }.6 - 0 4 0 ",
"g.g.h.;...o.= * 2 9 f - 3 3 * 6 3 0 f f } #.W O.} - o [ D.9.[ ^ 8.XX#XOXrXi.u.$XOXa.XX9.G.D.R / n n H ~ ( 4 ! E _ }.}.M 5 4 z Z ",
"f.f.v.v.=.o.p * 0 0 D D W { ) 8.` f A 9 0 8 f 0 3 2 , 7 7 7 / T _ 2.t.6.r.i.oXi.OXeX7.9.G.[ V V H z G m > k 7.c N $X$X6.3.7.4.e.",
"c.m.c.;.*.%.$.+.t._ 3.G S e.r.t.J J l 1 < b m H e.a.7.e.^ E 9.^ m > l N x 5 n Z l v ~ / G.G.V H G K a.4.a.a.4.5.,.eX0Xe.a.p.s.p.",
"b.b.z.4X6X8XiX7Xr.( ( m z ,.,.^ ! J H b V H H ~ N m S m m < E N l > > > z k 4 > c L 9.9.G.G.XXeXp.C.B.B.V.V.V.C.p.9X0Xp.9X9X9XB.",
"iXiXiX8X8X8X7X7X#.! J Z Z J H J ! A ! n N 4 n > Z S 4 z < > N N m ( 5.1.w.w.q.1.p.B.0XwXG.G.0XeXV.V.rXV.V.V.C.B.C.B.B.s.0X9XOXOX",
"GXFXGXAXGXbXbXbXbXtX%X{ D 4 3 A ! ` ) 6.n b 4 A { i.OXp.i.oX+XOXp.9XV.V.B.V.V.0XV.rXqX0XG.9.0X0XV.V.V.V.B.V.B.p.B.p.e.e.>XqX:XwX",
"GXGXAXmXDXDXGXDXSXDXDXtX7X#X>X7XbXuXuX$XOXr.i.%X%XrXrXuX0XtX$X$Xi.@XrX0XV.V.V.rXrXV.0XqXG.7.eXC.C.B.B.@Xa.p.@Xr.@XuXqX#XxXxXgXgX",
"GXGXCXDXDXDXDXDXGXFXSXSXKXbXCXSXAXAXuXJXyXmXyXmXiXyXiXuXqXuXrXqX@X0XrXrXV.s.V.B.V.s.B.$Xa.G.9X9Xp.B.q.r.qXtXqX<XwXnXvXlXMXgXgXcX",
"DXDXDXDXCXDXZXSXGXFXLXFXLXAXZXLXSXLXLXyXyXmXJXKXCXyXPXZXiXyXAXJXmXyXyXyXV.s.s.d.B.a.@XrXtXvXtX@Xs.7X>XuX7XvXfXlXlXlXlXzXzXfXzXgX",
"DXDXDXGXCXCXAXZXSXGXFXSXLXKXAXJXZXSXAXGXPXJXJXDXSXKXZXGXLXJXJXAXJXPXiXPXiXiXJXyXyXuXyXyXmXmXtXtXuXyXtXtXvXvXMXlXlXlXzXlXfXfXzXfX",
"FXFXDXGXPXCXZXZXZXSXFXFXFXZXJXJXKXZXPXPXPXPXFXSXFXLXSXAXJXZXZXKXJXPXFXFXGXPXPXPXJXJXJXJXSXFXZXCXSXBXAXDXmXBXDXbXbXlXlXlXlXlXzXlX",
"DXFXDXGXAXAXAXCXAXSXFXFXLXKXPXJXSXKXJXPXiXPXSXFXDXDXSXKXSXPXKXKXKXLXLXFXPXLXLXLXKXJXJXJXFXFXFXSXSXSXDXSXDXSXAXFXFXFXDXVXDXIXDXlX"
};
