/* XPM */
static char *a5491751d6a443bff45fe6dd9451356dTz6Dbs4vjsWWIOEK[] = {
/* columns rows colors chars-per-pixel */
"64 64 240 2 ",
"   c #000000",
".  c #090807",
"X  c #0C0C0B",
"o  c #03040A",
"O  c #060712",
"+  c #131314",
"@  c #1B1B1C",
"#  c #161519",
"$  c #150D0A",
"%  c #231D13",
"&  c #2A2519",
"*  c #362916",
"=  c #3A2A0D",
"-  c #1C1D23",
";  c #1E2025",
":  c #1F2128",
">  c #232424",
",  c #24252A",
"<  c #2C2C2C",
"1  c #272829",
"2  c #342E28",
"3  c #3B342B",
"4  c #3A3224",
"5  c #2C2E32",
"6  c #2D3437",
"7  c #333434",
"8  c #3B3B3B",
"9  c #363739",
"0  c #790203",
"q  c #670E05",
"w  c #452B17",
"e  c #493619",
"r  c #543B1C",
"t  c #5C380C",
"y  c #443929",
"u  c #443E36",
"i  c #4F3824",
"p  c #7A3D26",
"a  c #4E0D04",
"s  c #57441A",
"d  c #534C1A",
"f  c #69460B",
"g  c #734E0B",
"h  c #7C530B",
"j  c #634A18",
"k  c #744916",
"l  c #67501D",
"z  c #7A5819",
"x  c #494827",
"c  c #574729",
"v  c #555625",
"b  c #484438",
"n  c #5A4E3B",
"m  c #544838",
"M  c #595437",
"N  c #4D5221",
"B  c #684A24",
"V  c #764A27",
"C  c #6B5326",
"Z  c #775929",
"A  c #674D35",
"S  c #67563B",
"D  c #795436",
"F  c #676439",
"G  c #786937",
"H  c #5E6333",
"J  c #3C3D41",
"K  c #3B4646",
"L  c #3F504A",
"P  c #444444",
"I  c #4B4B4B",
"U  c #474748",
"Y  c #544D46",
"T  c #435149",
"R  c #595548",
"E  c #4B4D51",
"W  c #4C5654",
"Q  c #535353",
"!  c #5B5B5C",
"~  c #565858",
"^  c #665A47",
"/  c #785848",
"(  c #635C57",
")  c #6C4F4C",
"_  c #55625A",
"`  c #566456",
"'  c #69644A",
"]  c #76654A",
"[  c #767548",
"{  c #6C6354",
"}  c #6E665A",
"|  c #696958",
" . c #736B54",
".. c #7B6C54",
"X. c #736B5B",
"o. c #7B6C5A",
"O. c #766654",
"+. c #79745A",
"@. c #6E715D",
"#. c #5B5D61",
"$. c #5D6263",
"%. c #5F7770",
"&. c #636363",
"*. c #6A6967",
"=. c #6B6B6B",
"-. c #66676A",
";. c #746C62",
":. c #736E6B",
">. c #677569",
",. c #7B7464",
"<. c #7A7569",
"1. c #6C6E72",
"2. c #6A6D78",
"3. c #6D7277",
"4. c #737373",
"5. c #72747A",
"6. c #7C7C7C",
"7. c #797777",
"8. c #850607",
"9. c #88322D",
"0. c #9F2A19",
"q. c #82580E",
"w. c #835912",
"e. c #835D1A",
"r. c #814409",
"t. c #93651A",
"y. c #8D661C",
"u. c #A8781E",
"i. c #864A26",
"p. c #84512A",
"a. c #875929",
"s. c #8E5A33",
"d. c #865835",
"f. c #935C33",
"g. c #935E3A",
"h. c #995D36",
"j. c #975233",
"k. c #AB5339",
"l. c #876525",
"z. c #876935",
"x. c #9A6035",
"c. c #96633B",
"v. c #917336",
"b. c #A3663C",
"n. c #A8693C",
"m. c #89554F",
"M. c #896948",
"N. c #996846",
"B. c #86755A",
"V. c #98775B",
"C. c #8F724F",
"Z. c #AC6D42",
"A. c #A56B43",
"S. c #B16D42",
"D. c #AE7147",
"F. c #B37244",
"G. c #BB7749",
"H. c #A67A5A",
"J. c #B97B55",
"K. c #837A64",
"L. c #8C7E6A",
"P. c #867866",
"I. c #837A74",
"U. c #927666",
"Y. c #A57E63",
"T. c #C27A4C",
"R. c #C47748",
"E. c #C87D51",
"W. c #758577",
"Q. c #B88E32",
"!. c #99835B",
"~. c #858251",
"^. c #B28759",
"/. c #B79958",
"(. c #AC8D4F",
"). c #8D826C",
"_. c #868368",
"`. c #95866C",
"'. c #888477",
"]. c #958A73",
"[. c #998975",
"{. c #999279",
"}. c #92936C",
"|. c #A78666",
" X c #B69B69",
".X c #A88C74",
"XX c #B58C74",
"oX c #A99579",
"OX c #B79777",
"+X c #B18F68",
"@X c #B7A575",
"#X c #C88254",
"$X c #D88754",
"%X c #CF814E",
"&X c #CC9773",
"*X c #FA9F67",
"=X c #E69664",
"-X c #C2A66C",
";X c #F3A775",
":X c #EF925E",
">X c #7D7F81",
",X c #7E8183",
"<X c #748C83",
"1X c #7E9391",
"2X c #848483",
"3X c #8B8B8B",
"4X c #898887",
"5X c #948C86",
"6X c #96958A",
"7X c #8C8E92",
"8X c #949494",
"9X c #9B9B9C",
"0X c #959799",
"qX c #8D958E",
"wX c #AA9987",
"eX c #AA9E92",
"rX c #ACA589",
"tX c #B6A997",
"yX c #ABA692",
"uX c #9D9EA3",
"iX c #9EA1A3",
"pX c #A4A4A4",
"aX c #ABABAB",
"sX c #A5A7AA",
"dX c #ACACB3",
"fX c #B3B3B3",
"gX c #BABBBB",
"hX c #B4B6BA",
"jX c #B1B0AC",
"kX c #96A69A",
"lX c #C9B585",
"zX c #CDAE92",
"xX c #EFBB97",
"cX c #C3B9AC",
"vX c #C39E86",
"bX c #EBCCB7",
"nX c #BEBEC6",
"mX c #BDC0C4",
"MX c #C7C7C7",
"NX c #D2D2D2",
/* pixels */
"  . Q U 9 Q @ ( 8 ; ! U Q J X     > ! 7 I 8 2 &.@ 8 Q ! ~ U -     Q &.U b ~ - P 8 5 7 9 1 7 5 . U 8 7 E 5 > 1 > + I 8 @ Q W J < ",
"    ! &.=.I # :.P 8 *.~ Q | @     @ 1.$.4.> 9 4.< I &.6.~ ~ b     ! I 8 8 =.; ~ *.4.I _ 7.*.! X ! =.-.( &.-.=.:.@ *.I 7 8 *.! b ",
"+ + X # @ O @ @ # @ - @ @ @ X X X X . X X X # # X @ + . @ # X   + + # @ @ . # & @ # + # @ X # X X X # @ @ + # # @ @ # > @ . X @ ",
"pXfXpX2X2X( &.>X6.! ~ 7.! 4.9X>XI.aXsX8X9X=.~ 3X8XQ P 4X#.~ -.| pXaXpX2X2X#.$.>XI.! ! 6.! 4.0X'.pXdXpX,X,X~ ! >X7.~ ~ 5._ 5.0X2X",
"pXpX3X7.7X3X3X>X2X3X4X4X6.=.fX9X8XfXpXQ I U U U I P 8 8 9 =.fXpXpXpX3X6.3X8X3X6.I.7X3X4X6.*.fXiXpXpX3X{ 7.<.o.o.<.<.<.<.O.-.dXaX",
"3XpX3X4X9X9X( P I ~ 0XiX8X&.0X6.6.fX0X! *.#.Q ~ Q Q *.*.&.&.9X2X4XsX3X4XpX4X8 5 5 I 8X9X8X*.0X>X4XaX4XM.|.H.Y.H.H.|.V.H.V.} 0X4X",
"I #.-.4X0XvX;XO.P 5 ~ 9X8XU 8 > Q 6.4.#.4.<.m.#.! 5 ~ 4.=.I I J I #.*.2XuXU.D.7 ; # U 9X7XU 8 , I &.*.'.6XI.,.P.I.I.0X8X[.U 9 1 ",
"2X| Q 2XuX|.xX#XD 2 J 9X0Xu Q 8X4.E U ~ 1.&XxX/ P 1 P 7.:.U P 4.3X( E 2XuXV.$Xm 3 % 9 9X8XP Q 0X4X! E 3XI.r.k r e r ^ 0X0XP Q 8X",
"gXMXpX>XeX&X:X*XE.w &.9X0XU pXgXfXMXjX! :.N.=XJ.h.y E 7.=.U qXMXfXMXaX,XeX#X$XJ.N.X ~ 9X8XU sXcXfXMXsX7.j r.w % r r w M 9XU pXgX",
"8XuX3X2XuX^.*XE.n.A 0X0X0XP pX9X7XuX8X~ Y.E.*X=Xh.x -.4.1.I 8X9X7X9X3X2X9XH.$XF.j.* 7X9X8XU pX9X8XuX3X6.e % e r e = * * 4XI pX9X",
"~ &.*.2XuX&XR.S.$XD 2X9X0Xu &.! Q *.:.Q 4.$X:XE.n.^ 1.4.:.U ! ! Q &.&.2X9XJ.b.x.#XD '.uX8Xu &.~ Q &.&.3X4.V p y r e = * 2XK | ! ",
"9 u J 2XuX0XH.G.s.s.g.U.8XQ &.8 7 8 9 Q 7.U.A.F.Z.V / =.1.I U 8 9 8 P 2X9X5XA.G.f.s.g.U.8XQ &.8 9 u P 4XL.B y V B e = R 9XQ &.9 ",
"4XMX9X7.uXC.R.g.b.b.n.h.O.5.pX8 :.hX9XQ 3.P.G.x.f.f.R.x.( 1.aXb 6.MX9X6.9XB.T.h.A.b.b.h.O.7.pX8 2XMX9X>Xo.V f.g.B r = b 4X6.pX8 ",
"8XsXI.,X6XV h.S.S.p.n.h.D =.W.1 8XfX4XQ 1.b.b.b.R.s.S.b.) -.3X< 2XfX6.>X5Xp.h.S.Z.i.S.h.S :.,X1 7XaX,X2X'.r s.V V s $ 8 #.=.6.< ",
"Q #.1.>XY.p.A.G.d.V.R.h.A 5.3X7 &.4.6.E B.p.b.T.p.s.R.a.^ =.9X7 I &.=.>XY.p.A.F.d.H.T.j.A 5.3X5 ~ ( *.2X4Xc.G.R.c.r $ + ~ :.3X7 ",
"Q 8 5 2XV.j.b.V / ,Xk.i.} #.! 7 I 9 : I M.p.G.f.e f.R.a.n &.:.7 I 8 7 2XC.h.A.p ) 1.k.i.{ &.! 7 E 8 5 2X4Xd.h.B = % = $ @ ! ! 5 ",
"sXMX7XI.n.j.F.n.k.m.8.q ;.J @ 5 3XnX4.Y h.x.Z.w B Z.A.V ^ P # 5 9XMX3XI.Z.j.F.n.j.m.0 q o.K @ 7 pXMX7X8 8 6 > & & > 3 1 > 7 @ 9 ",
"aXpX4XI.&XZ.R.E.b.q q r B.1.uX&.,XcXiXQ N.b.c.V S.Z.p.r ^ #.4X4.pXsX3XI.&XF.R.E.A.0 q t B.-.pX=.0XaX3XQ =.*.! ( ! U 5 1 3 -.pX=.",
"9X9X7.,XuXwXE.R.n.i.p n..X2.jX-.>XdX3XE 7.J.G.$XR.h.k V :.-.9X1.0X9X7.>XuXwXE.R.A.p p n..X1.dX=.8X9X7.:.6.! &.~ U 7 @ * r &.aX4.",
"sX9X'.5.8X3X8X&XXXXX+XwX3XQ &.u 4XaXI.E :.:.<.H.H.V.H.P.-.! :.! 9X9X2X4.7X7X5XOX.XXXXXwX3XQ ( P 9XuX2XQ U P Q I U 8 5 c d.R #.U ",
"*.Q I 5 7 7 < 6 7 6 J K P 8 2 7 =.&.I < 8 9 7 5 5 5 6 8 8 9 7 9 *.! I 5 8 7 7 7 5 7 7 8 P 7 7 9 *.~ I 9 9 7 9 7 7 7 8 P P 9 5 9 ",
"$ @ # # < @ 1 @ + # . + X X ; ; X   > . X X . + @ X > 5 > & - @ $ . > X X X X # ; # < 5 1 > # @ X X # . X . X - + @ X @ # # @ # ",
"X 2X=.4.Q 1 ,XU 5 Q 7.4.` 4.Q 1   . -.=.&.=.! 1 K P *.,X:.! #       &.4.&.=.&.> U 8 8X*.~ ! +     # 4.&.! =.< u 7 &.#.=.( I #   ",
"  1 1 J - # J @ 5 9 E 4.J J 1 @   . 5 9 J 8 1 ; 1 , 9 J 9 8 X       < 7 8 9 1 @ > > P # @ 8 .     . 9 8 K 9 - 1 > J 5 5 K P .   ",
"! I Y ~.~.~.F H ~.[ N N N T ~ Q ! Q Q `.K.L.{ ^ K.B.n n ^ ~ | #.! I Q 8X,X2X! ( 2X6.8 E :.! ! ~ ~ E Y B.+.B.^ ^ P.O.c x n R ! ~ ",
"sX7XM [ | { | R M @. .| [ @XdXaXpX,X' O.} } } X.} | X.} B.wXsXiXaX4X=.MX9XpX*.>XfXsXU 0XMXfXaXaXaX7XS ..;.} { R R o.X.*...wXfXaX",
"8X-.x @.2.I.&.E P I 1.5.+.}.0X3X,X-.n ;.-.1.-.$.-.=.=.-.<.L.,X6.0X&.~ jX8X9X&.8 Q I < 3XaX9X0X8X8X-.u <.5.I.$.W U E 4.5.<.[.0X8X",
"9 , x @.7.xXJ.P U > Q 5.+.M J 8 u 7 n ;.=.-.4XzX3X-.1.-.K.^ K P 8 > Q pX0XaX&.9 3XI.Q Q *.I 8 8 8 , i ;.6.xXJ.U U 1 ~ 7.K.n J 8 ",
"*.#.x >.P.&X;XJ.S @ ( 3.+.] -.*.1.#.^ } =.=....XbXW.-.=.,.o.3.4.*.! I pX9XpX&.Q NXfX#.E U | =.*.=.! m ;.P.&X;XG.S @ | 5.K.O.-.*.",
"fXuXM ;.P.;X*X$Xg.7 7.3.+.rXgXjXaX0Xn } =.:.M.`.zX4X&.1.,.wXdXaXfXpXP -.-.&.u 1 ! ( P 9X3.hXhXfXhXpXn ;.U.xX*X$Xg.9 5.5.,.wXgXfX",
"pX0Xx | P.*X$Xg.V ^ 5.1.+.}.9X9X7X2XY } 1.-.M.G !.<.*.-.,.].4X3XpX9XP &.~ 7 ~ &.=.&.P 9X#.pXuXpXsX0Xm ;.P.*X$Xf.V ( 6.4.,.{.sX9X",
"=.! x @.:.H.Z.S.d.A =.3.W.H ! *.=.! m X.-.1.] l wX7.=.-.<.O.#.&.=.! 8 fXaX&.fXaXfX0XQ pXI ! ( -.=.! y ;.4.Y.D.n.d.A =.5.P.' #.=.",
"Q -.' @.3.:.Z.Z.g.S.Z.o.,.F U 9 ! 1.O.} 3.&.Y U.;.E *.1.,.{ Q P Q =.&.8XuX! 9X8X9X6.I pX~ ! U 9 Q =.' ;.7.4.A.Z.c.n.Z.;.P.^ U 7 ",
"9XaX_.| 1.D Z.g.T.F.F.p.G rXdX#.2X0XK.X.~ # ; 1.E , 8 ~ ,.rXuX*.0XfXI.3XpX~ 0X9X9X2XQ 9X=.MXaX&.8XdXL.} 4.D Z.c.G.D.F.d.] tXdX&.",
"0X8X[ | B.V x.E.f.f.T.D F _.5.Q 4X,Xo.R O # - @ U I < 8 ,.K.-.~ 8X0X=.8XsXU 6.9X,X! b ! I 4X4.I 8X0Xo.;.o.V c.E.s.f.T.V ^ ).5.I ",
"9XuX+.| M.j.E.c.^ J.n.z.F ' ~ U 3X7Xo.3 o @ > 5 5 I - : ,...#.I 0XpX*.8XsXQ 8 I 7 5 P ! &.! ! U 8XiXo.;.M.s.E.x.^ ^.Z.d.] ' ~ U ",
"9XuX'  .N.Z.c.i.E R 0.D H rXmX_ 4X7XX.4 O - - + 7 P o # { tXgX$.0XsX~ qXaXU E gXfXfXfXgXcXMXgX( 8XsX{ o.N.Z.x.i.1.) 0.D ^ tXmX| ",
"6.-.x C.k.Z.G.k.9.9.8.w [ }.0X~ =.$.R & O O O # 9 + o O m.).,X~ 4.=.8 4XpXb Q MXdXaXaXpXuX9X0XQ 4.1.b N.b.Z.^.k.9.9.0 w ..[.8XQ ",
"W E x C.V.S.E.E.i.0 a V +.}.7XQ Q ~ m % o O - , 1 O O X S ].>XQ Y E 9 9 9 1 < :.6.3X9X9X7X8X8XW I E y C.H.G.E.#Xp.0 a V B.).7XQ ",
"0XhX}.| >XY.E.R.N.p j.H.B.M U 8 8XdX[.$ O o - - + o O o 3 ( U P 8XhX9X=.&.*.*.&.8 P U I U U U 8 8XhX{.*.2.Y.J.G.N.p f.H.L.n U 8 ",
"8XpX{.[ _.W.!.(.!.(.(.,.~.[ 1.E 4X7X[.* @ 3 4 y * # 3 - e L.6.! 3XpXaXfXhXjXjXfXI 6.4XE =.4.=.I 3XdX{.B.'.<.Y.+X`.^.^.K.B...1.W ",
"~ ! R N v N d d N M H F F {.pX*.! #.R n S S S A S ' ] ] ..'.0X*.~ ( ! ~ Q Q I I 7 7.0X4.pXpXpX*.Q #.R c c c c x c A ^ S ] 5XaX&.",
"1 > , , - ; ; ; - , , , 6 1 1 < 7 < 7 6 ; @ @ - ; ; 1 : 1 1 @ > 1 ; @ # < ; - # 1 < 1 < 7 > > < < > > : ; ; ; ; - , , , 5 1 > 1 ",
"                                    - } *.~ Q E I *.&.&.1 =.4.E #.| Q Q J P '.Q 4.8 6.7.&.@                                     ",
"                                    ; P 9 I J I 8 ! P Q > P ! J u J I J P @ P P b + K 1 8 >                                     ",
"                              . ^ Y { ( Y b b u 3 3 m u y y 3 y R Y R R ( Y u u 7 u m m y u m u .                               ",
"                              . '.<.K.`.`.].).).).).`.B.M.+. .B.5X,.K.`.L.).L.).L.L.].B.M...X.] X                               ",
"                              . ^ Y z u.u.t.t.z e.t.t.t.Q.z Y ^ { n z u.u.t.t.e.w.t.t.t.Q.g Y n .                               ",
"                              . B.K.w.z x M R { R M M u z q.' <.B._.w.l.^ ^ S ' W.| M b z q.' ...                               ",
"                              . `.`.q.j K %.E R } >.` 6 j h ' ).oX).q.G $.).]..X{.<X` L l h { _.X                               ",
"                              . K.{.w.l %.W.' zXbXoXW._ j w.,._.}.].w.Z ` oXbX|.K ` b 6 s w.<.<..                               ",
"                              . {.rXw.l W.1X|.OXOXV.W.%.C h K.].wXwXq.G qXbXzXH.2 ` >.K j w.L._..                               ",
"                              . K.<.h l %.].^.|.|.!.W.` l h R X._.<.g v.jXtX-XzXx 8 W.L d h R { .                               ",
"                              . '.'.f Z 1X6X&XXXOX^.1XW.C g } @.'.'.f [ kXH.vX+XM.b L L l g o.| X                               ",
"                              . | <.f v W.kXoXM.H.{.kX%.v f ;.R +.,.t Z qX+XxXV. XB.L W c f <.R .                               ",
"                              . ,.[ s d W qXyXD m.yXW.K d f _._.].+.t v >.B.M.C.&X}.` L r f _.,..                               ",
"                              . _.+.f l | (.lXjXjX-X~.` B f  .K.{.@.f s T T } .XzXlX(.W d f  .+.X                               ",
"                              . B.W.f l./.Q. XyXlX(.Q. Xz.f ).[._.+.g d T [  XtXjX/.Q.(.l.f ).`..                               ",
"                              . ).{.f l./.(././. X/.!./.z g rX{.].{.f Z /././.rX X/.v.(.y.f rX`..                               ",
"                              . ,. .f C oX}.@X-X X X X}.Z f `.`._. .f l./.H./. X-X-X!.oXz.f ]._..                               ",
"                              X K. .g B wX-X@X X X-XlX'.V k `.[.). .g C !.oX-XlXlXoX@XrXZ g `.`..                               ",
"                              . ^ ' f g Z l.e.z z l.l.z h f +...' ^ f g z Z l.l.z a.l.l.g f o.O..                               ",
"                              . L.oXM.v.Z l.d.C C Z C Z Z G OXwX`.oXM.v.Z a.z.B C Z C Z Z ] oXoX.                               ",
"                              . o.wXoXoXP...B.P.} o.^ O...L.oX`.P.wXoXoXP...B.K.} ..^ O...L.oX`..                               "
};
