/* XPM */
static char *_b070a07fdac4e69b0e50faef9899d239IahVOU5dc7bgRH4[] = {
/* columns rows colors chars-per-pixel */
"64 64 251 2 ",
"   c #08090A",
".  c #18170C",
"X  c #1B1C1C",
"o  c #171815",
"O  c #120E07",
"+  c #271A17",
"@  c #2C1D14",
"#  c #1D2317",
"$  c #1C230D",
"%  c #24231C",
"&  c #282818",
"*  c #37261C",
"=  c #2D3315",
"-  c #1D1D22",
";  c #2B1F22",
":  c #19242E",
">  c #232424",
",  c #292928",
"<  c #3C2323",
"1  c #362A27",
"2  c #2C3229",
"3  c #373629",
"4  c #292C33",
"5  c #3A2C36",
"6  c #2D3539",
"7  c #383637",
"8  c #432B2C",
"9  c #422927",
"0  c #462E35",
"q  c #453839",
"w  c #44362E",
"e  c #403D1E",
"r  c #3C413A",
"t  c #3D432A",
"y  c #37411E",
"u  c #494539",
"i  c #57493C",
"p  c #4B523A",
"a  c #48482F",
"s  c #68533A",
"d  c #16344F",
"f  c #393C44",
"g  c #253A4E",
"h  c #463B46",
"j  c #4E3F4C",
"k  c #1A4258",
"l  c #3A4347",
"z  c #2C4556",
"x  c #1D4C68",
"c  c #32566F",
"v  c #396976",
"b  c #356066",
"n  c #444343",
"m  c #494848",
"M  c #534C43",
"N  c #564A49",
"B  c #4B5349",
"V  c #5C544B",
"C  c #575649",
"Z  c #494852",
"A  c #4C5456",
"S  c #545452",
"D  c #5B5553",
"F  c #5C5954",
"G  c #59595B",
"H  c #564953",
"J  c #65584A",
"K  c #635C54",
"L  c #635E5B",
"P  c #685B56",
"I  c #735D4C",
"U  c #5D6259",
"Y  c #5C624A",
"T  c #63654A",
"R  c #74644C",
"E  c #65625C",
"W  c #6B635C",
"Q  c #696857",
"!  c #76685C",
"~  c #79785D",
"^  c #5A5B63",
"/  c #4F5866",
"(  c #645D63",
")  c #5A6466",
"_  c #446A79",
"`  c #516B73",
"'  c #6B6562",
"]  c #6D6A64",
"[  c #6D6C6B",
"{  c #656667",
"}  c #736B64",
"|  c #736D6B",
" . c #776865",
".. c #6A726C",
"X. c #73726C",
"o. c #7B726C",
"O. c #7B7465",
"+. c #6A6C75",
"@. c #6C7274",
"#. c #697579",
"$. c #747373",
"%. c #7C7572",
"&. c #787879",
"*. c #746E72",
"=. c #877659",
"-. c #846D67",
";. c #87776A",
":. c #837A74",
">. c #847C7A",
",. c #877973",
"<. c #927E70",
"1. c #7C817B",
"2. c #95836C",
"3. c #8C837C",
"4. c #87827A",
"5. c #978777",
"6. c #87816C",
"7. c #A18D77",
"8. c #AA937A",
"9. c #3B5D85",
"0. c #3D6787",
"q. c #487986",
"w. c #54778C",
"e. c #787B85",
"r. c #71798C",
"t. c #697FA2",
"y. c #827E88",
"u. c #59858C",
"i. c #5A8997",
"p. c #5C919D",
"a. c #4F828C",
"s. c #67898C",
"d. c #798588",
"f. c #678D95",
"g. c #788A96",
"h. c #6C949B",
"j. c #689499",
"k. c #73949C",
"l. c #77989B",
"z. c #73918F",
"x. c #6495A3",
"c. c #6C9BA4",
"v. c #6C9DAB",
"b. c #6798A5",
"n. c #729CA4",
"m. c #789CA5",
"M. c #6E89AD",
"N. c #6DA2AA",
"B. c #74A3AB",
"V. c #7CA4AC",
"C. c #76A4A7",
"Z. c #78A7B3",
"A. c #76ABB5",
"S. c #6EA09F",
"D. c #578BC6",
"F. c #5E91CA",
"G. c #6394CC",
"H. c #6998CE",
"J. c #6C9BD3",
"K. c #6698D0",
"L. c #729ED4",
"P. c #7A9ED2",
"I. c #799DCD",
"U. c #75A1D5",
"Y. c #7BA3D6",
"T. c #75A2D9",
"R. c #7BA5DA",
"E. c #7DA9DD",
"W. c #7EA9E0",
"Q. c #848283",
"!. c #888687",
"~. c #958B84",
"^. c #9B9189",
"/. c #889899",
"(. c #999696",
"). c #8C8C93",
"_. c #A8968D",
"`. c #94A196",
"'. c #B0A498",
"]. c #849CA5",
"[. c #8D97B4",
"{. c #86A5AA",
"}. c #97A6A6",
"|. c #88ACB5",
" X c #97B4BA",
".X c #8DAEB4",
"XX c #A9A9A6",
"oX c #BAB7B5",
"OX c #AEB2B1",
"+X c #C6AD93",
"@X c #CBB49C",
"#X c #D6B79A",
"$X c #C8AB8C",
"%X c #D4BBA3",
"&X c #D8BDA6",
"*X c #CBB9AA",
"=X c #E0BD9F",
"-X c #DAC3AA",
";X c #DAC7B7",
":X c #CCC6B4",
">X c #E4CBB7",
",X c #E2C8AF",
"<X c #99BAC2",
"1X c #84AADC",
"2X c #8CADDC",
"3X c #85A7D7",
"4X c #93ACD5",
"5X c #8DB0DE",
"6X c #93B2DE",
"7X c #9BB5DB",
"8X c #94A7C8",
"9X c #A8BACA",
"0X c #A4B9DA",
"qX c #B0B7C9",
"wX c #84ADE1",
"eX c #89AEE2",
"rX c #8CB2E2",
"tX c #87B1E3",
"yX c #93B4E2",
"uX c #9CBAE5",
"iX c #99BAE7",
"pX c #A2BDE4",
"aX c #A2BEE8",
"sX c #849BC7",
"dX c #9CC3CC",
"fX c #A9C4CC",
"gX c #AAC7D7",
"hX c #B4C2D4",
"jX c #B7C8D6",
"kX c #B5C9CF",
"lX c #A5C2EA",
"zX c #ACC5EB",
"xX c #ADC8EC",
"cX c #A8C3E4",
"vX c #B3CBEA",
"bX c #B9CEEB",
"nX c #B6C9E5",
"mX c #BAD3E7",
"MX c #9FC0E8",
"NX c #C5C7C8",
"BX c #D8CEC6",
"VX c #DBD2C7",
"CX c #C7D5D9",
"ZX c #CCD3D7",
"AX c #E3D4C8",
"SX c #C9DDE7",
"DX c #D4DFE7",
"FX c #D7E5EA",
"GX c #D4E8F0",
"HX c #E9F5FA",
"JX c #E9EDF0",
/* pixels */
"Y.Y.Y.Y.P.R.P.L.P.R.U.U.Y.U.U.U.L.Y.P.Y.Y.R.T.E.R.Y.P.3XsXsX( H / / M.sXP.P.P.K.J.J.J.H.H.G.F.F.F.F.D.D.D.D.D.D.D.D.D.D.D.D.D.D.",
"R.Y.Y.Y.T.P.R.P.P.R.Y.Y.Y.Y.Y.Y.Y.P.3XR.R.W.E.E.Y.1X3X3XsXt.j 5 5 j sX3XP.P.P.P.U.J.J.J.H.H.K.F.K.F.F.F.F.F.D.D.D.D.D.D.D.D.D.D.",
"3X3XR.3X3X3X3X3XW.R.3XR.3XY.Y.3X3X3X3X3XwXW.wX1XY.2X3X3X3Xy.h 5 5 c sXsXP.P.T.P.U.U.L.L.J.H.J.K.K.G.F.F.F.F.F.F.F.D.D.D.D.D.D.0.",
"wX1X2X1X3XeXwX3XwX3X3X3X1X1X1X1XeX2X2X2XeX1XtX1X5X2X4X4X4Xt.h 0 5 j [.sX3XwXwX3XE.U.U.U.I.L.J.J.K.K.K.K.G.F.F.F.F.F.F.D.D.D.D.D.",
"2X2X2X2X2X2XeX2X2X2XeX2X5X5X5X5XeX2X2X2XrXtXtXtX5X4X5X4X8Xy.j 5 0 j [.4XeXeX3X3XE.E.E.R.Y.U.T.T.J.J.J.H.J.H.G.F.K.F.F.F.D.F.D.D.",
"2X5X2X6X6X6X6X4X6X6X5XyX6X5XrXyXyXyX6X6XiXtXiXiX6X6X6X7X0Xt.j 0 0 H [.4XeX3X3X3X5XW.E.E.E.R.T.T.T.T.J.J.J.J.H.H.K.G.G.F.F.F.F.F.",
"6X6XyX6XyX6XyXyXyXyXyXyXyXyXyXyXiXyXyXiXiXiXiXiX7X7X7X7X8Xy.j 0 j j [.4XyXyXeXeXtX5X5X1X1X3XE.E.R.R.R.T.T.T.J.J.K.K.K.K.K.F.K.F.",
"uXuXpXiXiXuXiXiXiXiXiXiXaXiXiXuXiXiXiXiXiXiXiXiXuXuX7XuX0Xr.j h 0 j 8X4XyXeXyXyXrXtXtX1X5X1XW.W.W.E.R.R.R.R.T.T.T.J.J.K.K.K.K.K.",
"aXaXaXaXaXaXaXaXaXaXaXaXaXaXiXiXaXaXaXaXaXaXiXMXaX0XaX0X4Xy.j 0 j j 4XiXiXyXyXyXyXyXyXeX5X5XwXtXwXwXwXE.W.W.R.T.T.T.L.T.J.J.J.J.",
"aXaXaXaXaXaXaXaXaXaXlXlXlXlXlXlXaXaXaXaXaXaXlXaXaXaXaX0X0Xy.j 0 0 j 8X4XiXiXiXyXiXyXyXyXrX5XtXtXwXeXwXwXW.W.W.E.E.E.R.E.T.T.L.J.",
"vXaXaXaXaXaXaXaXzXzXlXzXlXxXxXlXaXbXaXaXaXaXaXlXzXaX0XaX0Xy.j 0 0 j qX7XiXiXaXaXiXiXiXiXuX6XyXyXrXrXeXeXtXtXeXwXW.W.W.E.R.R.T.L.",
"vXvXaXbXaXSXaXSXzXzXzXzXxXxXxXxXaXaXbXbXxXxXxXxXnXzXzXzX4Xr.j 0 5 j qX0X0XaXaXaXaXaXiXiXiXiXiXyXiXyXyXyXrXrX5XtXwXwX1X1XwX3XR.W.",
"vXaXbXnXaXSXaXaXvXvXvXbXxXxXxXxXzXnXnXaXzXzXnXnXzXnXnX0X4Xy.j 0 0 j qX0X0XaXaX0XaXaXcXpX0XMXpXpXiXyXyXyXyXyX6X6X6X6X2X2XeX2X3X3X",
"bXnXnXbXSXaXSXaXbXbXbXaXbXbXbXbXnXnXbXnXbXnXbXbXnXnXnXnXqXr.j 0 0 j qX0XzXaXaXzXlXlXcXcX0XgXpXpXpXpXpX0X7XiX7XuX6X6X6X4X4X2X4X4X",
"SXbXSXnXSXbXSXbXbXbXSXSXvXSXbXbXbXbXbXbXbXbXbXbXbXnXnXnXqX-.i 0 0 j qXhXnXaXzXbXzXzXcXcXgXcXpXzXcX0X0X0XpX0X0XpX0X7X4X7X4X4X4X4X",
"0XNX0XqXhX0XqXNXhX0X0XjX0XnX0XnXnXqXhXqXhX0XqXnXhXhXqXqXqX( 0 0 < j qXqXqXhXhXqXjXhXhXhX0XjXjXqXhXhX9XhXqX9X9X9X9X9XqX0X9X9XqXqX",
"( +.*. .+.*.*.*.| | +.r.` r.#.+.+.&.#.$.&.e.e.y.).).(.y.y.I 0 9 8 j XXOXXXOXoX*XoXoXoXoXqX*XoXoXXXXXOXoXoX'.XX'.XX(.XX(.(.^.(.'.",
">.,.<.<.,.<.<.5.5.5.).d.g.g.g.e.(.(.^.~.^._.^.^._._._.y.<.i 0 0 0 0 -.-.-.,.5._.^.5.5.5.5.5.2.2.5.2.2.2.2.<.6.6.;.;.;.6.<.;.-.-.",
"2.=.7.<.<.<.<.5.~.3.r.c w._ c / e.!.^.~.~.^.7.<.~._.7.<.-.8 8 0 9 0 ,.-.-.-.;.2.2.2.2.5.7.5.2.2.2.2.2.7.8.5.7.5.5.5.5.5.5.2.<.<.",
"s s I =.I R R P W ' Z / c c d g f Z $.:.,.<.-.<.<.<.<.,.-.8 8 9 9 9 -.<.-.<.5.5.7.5.5.7.7.7.7.7.7.7.7.8.7.5.5.2.2.5.6.6.;.~ -.-.",
"~ 2.;.,.,.,.<.<.,.&.f z c v d z 6 q 4.^.^.^.3.~.~.<.~.5.I 9 8 < 9 < -.-.<.=.;.;.;.-.~ ~ ~ ! -.~ T R I R I s V i V J N M V V N w ",
"K ! J ! ! P ! o.-.*.g g x i.d d l l @.%. . .*.,.%. .-.-.J < 9 < < 9 -.J ! J ! J u J V N D ! ! V = @ 3 J J w * w J Q V V V K C w ",
"p M q M q 0 0 u N ( g d c w.d d 6 6 { ' S m D H D D J ! i @ @ < < 9 -.i  .! } V q P W K ' &.4.W * & 3 K K w 1 M Q W ' ' L :.o.( ",
"u u q N j q u H ( +.g x x 0.k k g m U [ K D | S H ( P ,.I 9 * < < 9 -.-.-.I W J M W ( D D L | E u B n S C u u F K F K K V ' P V ",
"J V J V K P P V ( { g k x 9.x d l l F E V J P M N i s ! I * < < < 9 -.,.,.j q J M C M n M C M 2 , h ( m q 1 1 H M i M i u u i i ",
"K V K P P P P P K Z g d x 9.x d f A { ] W W Q ! I ! I I J * * < < < H  .! ! ! -. .' ' W ] ' F 2 , h *.N 5 1 w D ' E W K P K P P ",
"1.&.%.:.>.Q.>.4.%.m g g c 0.d d 6 Z &.~.3.~.3.3.,.,.-.,.I 8 < < < 8 -.-.~.>.,.y.!.3.!.Q.!.Q.X.q , m *.m , 1 M >.>.&.%.[ $.$...[ ",
"X.&.F G ' !.&.' { n d g 9.w.d g l A U ] | 3.y.| | >.| ;.J 1 + < @ < ,. .:.%.:. .G &.!.e.Q.!.&.7 > M *.N 1 1 q >.>.@.m l A +.#.e.",
"Q $.7 q n *.{ q h 6 : d 9.G.d d 4 A B B { &.+.^ ( &.E ] w & 8 8 5 5 | 0 | $.%.G n $.!.+.e.y.y.> + m %.F 3 > 1 &.).&.6 : f r.g.r.",
"1.%.q H L &.' 5 4 , d g 9.t.g d : l m S ' &.+.G ^ e.W %.W w < < < 1 :.:.>.>.[ S l e.).r.+.+.#.4 > n X.S q , q !.!.e.f 6 Z r.e.^ ",
"V ' P P K L K M D Z g k 9.9.z g A [ $.' S ' o.%.:.o.W :. .< < ; ; 8 >.%.:.' { } ( $.%.( | | X.u 4 m &.G h 7 N %.o.o.S B S [ { B ",
"Q W ' W L ( ' L E [ l z _ c z z ) @.[ X.| o.W :. .o. .! P @ + + + 1 -. .P | o.| } [ | [ | ' ] F > n &.G 7 1 L } E ' W ' F S L F ",
"4.3.4.:.6.!.4.~.y.&.#.+.#.) ....X.4.!.~.~.3.~.^.3.~.,.,. .@ + + + < -.,.,.3.4.&.&.4.!.Q.!.Q.%., + n { G 5 ; 7 X.Q.4.&.*.[ $.&.+.",
"L W W :.4.o.' { ( ( { S S F E ' U } %.:.E F E } o.P K ,.-.8 @ @ ; < } 6.,.} E D 7 [ 1.#.y.d.| > 2 B e.^ f 4 , $.&.| m Z f +.$.+.",
"M N V P V K V L D D L H G F L [ { E L L D V F W ' W V -.' P P P P P  .} } ] $.) G +.#.@.&.$.$.D 2 U X.A m 6 f $.&.@.G A Z ..#.+.",
", 1 1 u w u 3 1 1 q M 1 7 7 h H h G H q 7 7 q V P P V 5.~.~.3.,.>.>.3.3.4.&.$.^ A e./.e.e.d.1.3 2 [ Q.G f , f e./.Q.) ) / d.d.g.",
"1 1 3 u 3 1 1 3 u M V 3 5 7 5 h 5 ( ( h q 7 q J W Q M ,.^.5.~.^.^.~.~.~.Q.%.+.+./ #.e.r.+.e.&.3 2 X.&.{ Z - l &.d.&...#.) d.1.1.",
"! W } %.o.o.O.! O.O.-.O.,.,.%.>.:.:.:.:.>.:.:.,.<.3.:.3.Q.4.Q.4.>.%.4.>.Q.y.y.).).!.).e.!.Q.%.M u } !.D 5 4 7 +.@.@.d.#...` #.` ",
"V C K M i V V J J Q E J N J J s Q W ( P P K K W W K W [ E F U U E L ' L [ ^ ( ^ ^ G G ) ( ^ q 3 w V P V , ; % 1 U S Z A l A m l ",
"3 & 1 . . & $ = i u , * . . . $ 3 J F * . O + % % % S S 2 % 2 > > X ; , m 5 4 4 , 2 > - # N M C u a M H ; . , p E 3 o X - X # > ",
"a 3 a & p Q a T V M 2 1 O O = a ~ Q T & O O O o + - S { r p t 2 S ) B 4 G 6 B B B B y l # A Q u 3 i i u $ $ ~ 1.O.Y #         X ",
"p p C B u C M C u M h , + $ s 1.T y p p 3 o o o > - { ..{ B r 2 l U ) r U l 6 m U Q t # t ] Y t @ = 3 a $ p 1.T p Q 2 #     o - ",
"Q y a = = & 3 & % 7 m 7 O + Y 1.= . & Q u o - - - > U ..Q p y 2 : 4 m > ) r # r p B p = & Q W a = = e T = T Y a y p y $ o   o o ",
"T 3 $ . . . $ O o - Z 6 o 4 p p & & & r (.f ; - X , { 1.X.p & # # - o > { n > 4 B Y t $ & ] ! a = @ = 1.e T = = = = y # o     - ",
"t 3 . o o # # . o , n 4 6 A U C 3 , n B XXn G n X - ' X.U 2 & > - - o G Q.e.Z ( ) Y l = 2 U K u e e a 2.= V a y # $ # #   : o   ",
"= u 2 7 2 > # . o > 6 f @.6 U r r n X.!.NX*.h S 7 , { *.B # > # - - r XXy.!.Z h ` Y r # 2 F % w R s T 1.& T Q p y 2 2 n : f : o ",
"% u n { 4 2 o 2 C 2 4 H { 6 4 2 F n XXNXFX*X&.' m + D { h > Z n 6 6 A NXe.y.{ f 1.r t # % n o 3 =.=.=.= @ * C T U r X l , 7 6 4 ",
"& 7 G { 4 Z 2 ] E ^ f }.g.l A 2 { Q.(.VXJXJXZXX.m , ^ ).Z m m 4 2 , U kXe.qX/ f A # : # Z S u Q 7.=.2.s & , u B S 7 - 6 - - > > ",
"F ..1...../.(.NXNX:X(.DXNX1.) ) &.NX).JXJXJXNX) m l &.OXA A S A r A OXNXy.NX^ m n l l 6 l B M i s i s s i q M M M n r r 6 r r 7 ",
"#...#.` ` d./.DXHXFXNXJXJXfX..` 1.ZXZXHXJXJXZX) l /  XOXU U OXOX1.` kXkXoXkXe...&.d.z.}..XXX:X*X%X@X*X*X'.XX'.XXXXOXoXoXOX}.}./.",
"s.f.z.j.k.z.z. XkXkXFXFXFXOXz.z.z. XFXHXHXFXVX/.s.z.{..Xl.{.DXCXS.l.CXCXjXqX.X{..X{.V.{.].}.ZXAXVXVXBXBXVX;X'.5.o...X.#.1.r.#._ ",
"h.n.j.j.n.n.n.|.fXfXFXFXGXfX{.l.{.<XHXHXHXJXkX}.C.p.S.N.V. XHXSX XkXmXGXmX9X<XC.C.|.V.V.m./.NXBX*X>XVXVXAX;X;X'.6.! U U _ ` _ _ ",
"f.v.b.b.n.h.f.h..X XSXSXSXkX{.k.l.fXHXHXFXFXqX}.k.C.B.C.C.<XHXSX X}. X X<X.XA.A.A.A.A.C.S./.oXAXVXBXAX>X;X-X,X,X'.5.! B A ` / b ",
"V.8XV.m.V.Z.|..X9XSXGXGXSXjXdX X XFXHXHXJXJXkX.XC.|.C.Z.<XSXJXDXkX X X X{.V.C.N.C.N.S.C.C.l.}.VXAX@X>X>X>X>X,X,X,X-X'.6.Q A U A ",
"n.].k.n.m.m.n.m.m.<XfXfX9X X X X XDXFXHXHXFXCX X{.m.{.{.{. XCX X.X{.k.m.s.j.C.S.S.S.S.S.S.l. XVX>X-X-X>X>X,X=X,X-X-X-X+X8.=.Y u ",
"g.k.f.l.k.f.r.h.m.m.9X<XdX|.g.C.}.DXJXHXJXDXkX`.d.l.l.m.V.{.hX Xl.l.C.V.{.C.h.S.z.S.S.p.j.z.`.:X>X;X@X-X>X>X,X,X,X=X#X-X#X$X2.R ",
"s.|.j.f.s.u.u.h.k.m.|. XdXV.s.f.}.GXFXHXFXCXkXl.g.l.h.l.l.C.fX|.j.C.V.C.V.k.k.s.z.C.{.k.s.l.`.VXAX>X+X&X>XAX>X;X-X-X-X,X#X=X=X$X",
"h.h.h.b.j.j.j.p.B.m.C.m.V.B.V.{.9XFXFXHXFXkXkX.Xk.k.m.k.k.C.|.A.b.V.A.c.n.j.j.s.s.l.l.s.j./.`.:X>X;X'.'.*X;X;XBX:X-X-X-X#X=X=X#X",
"A.N.A.A.x.N.x.v.B.Z.V.V.Z.V.|..X9XNXCXHXFXkXkX<X|.{.A.C.N.Z.A.A.Z.v.b.x.v.N.v.f.f.n.V.h.j.l.`.VX;X&X+X'.;XBX&X*X-X-X%X%X%X#X#X#X",
"b.b.v.v.N.v.x.Z.v.A.Z.Z.<XdXgXjXGXGXSXJXFXGXSXkXdXdXdXI.A.A.v.A.Z.v.v.v.B.x.b.j.f.c.m.j.j.l.`.:XBX&X%X'.*X>X>X&X@X#X@X%X&X%X@X%X",
"v v 0.q.i.x.x.v.Z.Z.B.Z.|.dXgXnXCXSXGXGXGXSX9X|.v.v.b.x.v.A.v.v.A.N.N.S.x.i.p.N.N.j.j.u.a.p.l.:X;X*X&X+X$X#X&X=X#X#X#X#X#X#X%X%X",
"x.p.i.i.i.x.x.w.i.q.i.v.b.Z.|..XdXkXfXfXqX<X].k.f.i.i.q.q.q.v 0.v v v v q.q.p.i.s.u.u._ v 1.s.XX*X&X%X@X$X$X#X#X=X=X#X$X$X+X$X'.",
"h.j.i.j.n.A.A.p.x.p.b.A.b.x.v.Z.<XdXdX<X<X X{.V.Z.v.v.b.x.x.x.b.B.v.j.i.u.a._ v b b _ b b v 1./.*X&X@X+X8.8.$X#X#X#X=X#X#X$X$X$X",
"C.{.h.u.u.p.a.a.p.A.v.p.p.x.x.v.A.A.|.dXgXV.h.b.B.b.i.x.p.i.n.n.n.c.j.j.j.j.C.C._ _ a.q.a.j.l./.:X-X@X+X8.7.$X#X#X#X$X$X#X$X$X$X"
};
