/* XPM */
static char *c1395328b29a4f318898a4f10d5b1ae7l8dol4KBXb9E4hCP[] = {
/* columns rows colors chars-per-pixel */
"64 64 205 2 ",
"   c #686A76",
".  c #6A6C78",
"X  c #6B6D79",
"o  c #6C6E7A",
"O  c #6D6F7B",
"+  c #6F717D",
"@  c #70727E",
"#  c #727480",
"$  c #737783",
"%  c #757783",
"&  c #757985",
"*  c #767884",
"=  c #767885",
"-  c #777985",
";  c #777986",
":  c #767A86",
">  c #777B86",
",  c #777B87",
"<  c #787A87",
"1  c #797B87",
"2  c #787C87",
"3  c #797B88",
"4  c #787C88",
"5  c #797D88",
"6  c #797D89",
"7  c #7A7C88",
"8  c #7A7C89",
"9  c #7B7D89",
"0  c #7B7D8A",
"q  c #7B7F8B",
"w  c #7C7E8A",
"e  c #7C7E8B",
"r  c #7D7F8B",
"t  c #7D7F8C",
"y  c #7C808C",
"u  c #7D818D",
"i  c #7E808C",
"p  c #7E808D",
"a  c #7F818D",
"s  c #7F818E",
"d  c #7E828E",
"f  c #7F838F",
"g  c #80828E",
"h  c #80828F",
"j  c #81838F",
"k  c #818390",
"l  c #808490",
"z  c #818591",
"x  c #828490",
"c  c #828491",
"v  c #838591",
"b  c #828691",
"n  c #838592",
"m  c #838792",
"M  c #838793",
"N  c #848692",
"B  c #848693",
"V  c #858793",
"C  c #858794",
"Z  c #848894",
"A  c #858994",
"S  c #858995",
"D  c #868894",
"F  c #868895",
"G  c #878995",
"H  c #868A95",
"J  c #878996",
"K  c #868A96",
"L  c #878B96",
"P  c #878B97",
"I  c #888B94",
"U  c #888A96",
"Y  c #888A97",
"T  c #898B97",
"R  c #888C97",
"E  c #8B8E97",
"W  c #898B98",
"Q  c #888C98",
"!  c #898D98",
"~  c #898D99",
"^  c #8A8C98",
"/  c #8A8C99",
"(  c #8B8D99",
")  c #8A8E99",
"_  c #8B8D9A",
"`  c #8A8E9A",
"'  c #8B8F9A",
"]  c #8B8F9B",
"[  c #8C8F98",
"{  c #8C8E9A",
"}  c #8C8E9B",
"|  c #8D8F9B",
" . c #8D8F9C",
".. c #8D9099",
"X. c #8E919A",
"o. c #8C909C",
"O. c #8D919C",
"+. c #8D919D",
"@. c #8E909C",
"#. c #8E909D",
"$. c #8F919D",
"%. c #8F919E",
"&. c #8E929E",
"*. c #8F939E",
"=. c #8F939F",
"-. c #90929E",
";. c #90929F",
":. c #91939F",
">. c #9193A0",
",. c #9094A0",
"<. c #9195A1",
"1. c #9294A0",
"2. c #9294A1",
"3. c #9395A1",
"4. c #9296A1",
"5. c #9395A2",
"6. c #9296A2",
"7. c #9397A3",
"8. c #9496A2",
"9. c #9496A3",
"0. c #9597A3",
"q. c #9597A4",
"w. c #9498A3",
"e. c #9498A4",
"r. c #9599A4",
"t. c #9599A5",
"y. c #9698A4",
"u. c #9698A5",
"i. c #9799A5",
"p. c #969AA5",
"a. c #9799A6",
"s. c #969AA6",
"d. c #979BA6",
"f. c #979BA7",
"g. c #989AA6",
"h. c #989AA7",
"j. c #999BA7",
"k. c #989CA7",
"l. c #999BA8",
"z. c #989CA8",
"x. c #999DA8",
"c. c #999DA9",
"v. c #9A9CA8",
"b. c #9A9CA9",
"n. c #9B9DA9",
"m. c #9A9EA9",
"M. c #9B9DAA",
"N. c #9A9EAA",
"B. c #9B9FAA",
"V. c #9B9FAB",
"C. c #9C9EAA",
"Z. c #9C9EAB",
"A. c #9D9FAB",
"S. c #9D9FAC",
"D. c #9CA0AB",
"F. c #9CA0AC",
"G. c #9DA1AD",
"H. c #9EA0AC",
"J. c #9EA0AD",
"K. c #9FA1AD",
"L. c #9EA2AD",
"P. c #9FA1AE",
"I. c #A0A2AE",
"U. c #A0A2AF",
"Y. c #A1A3AF",
"T. c #A1A3B0",
"R. c #A1A5B0",
"E. c #A2A4B0",
"W. c #A2A4B1",
"Q. c #A3A5B1",
"!. c #A3A5B2",
"~. c #A4A6B2",
"^. c #A5A7B3",
"/. c #A5A7B4",
"(. c #A6A8B4",
"). c #A6A8B5",
"_. c #A7A9B5",
"`. c #A7A9B6",
"'. c #A8AAB6",
"]. c #A9ABB7",
"[. c #ABAEB7",
"{. c #AAACB8",
"}. c #ABADB9",
"|. c #ABADBA",
" X c #ACAEBA",
".X c #ADAFBB",
"XX c #AEB0BC",
"oX c #AFB1BD",
"OX c #AFB1BE",
"+X c #B0B3BC",
"@X c #B0B2BE",
"#X c #B1B3BF",
"$X c #B1B3C0",
"%X c #B2B4C0",
"&X c #B3B5C1",
"*X c #B3B5C2",
"=X c #B4B6C2",
"-X c #B5B7C3",
";X c #B6B8C4",
":X c #B7B9C5",
">X c #B8BAC6",
",X c #B9BBC7",
"<X c #BABCC8",
"1X c #BCBECA",
"2X c #C0C2CE",
/* pixels */
"a ( T ( | T | I T ( T | F | | F ^ T | | | | ^ T E E | E E | -.-.E E | :.| | | ^ | | | :.@.| :.:.@.:.| :.:.:.| :.:.| :.:.:.T 0.e ",
"|  XXX'.&X#X[.+X#XXX+X#X#X#XXX#X&X#X#X#X XXX#X&X#X#X#X&X#X&X+X#X&X&X&X&X#X#X&X>X>X&X#X#X>X&X&X&X>X&X&X&X&X>X;X&X>X&X;X&X>X;X2XA.",
"; %.E.I.I.I.S.I.J.Y.Y.I.I.^.H.Y.I.I.I.I.I.I.I.Y.Y.^.Y.I.W.Y.I.^.Y.^.^.I.^.^.^.^.I.^.^.^.^.^.^.^.Y.^.'.^.I.^.^.^.^.^.'.^.(. X>Xy.",
"0 F J.I.A.E.I.I.I.Y.Y.I.I.Y.I.Y.I.^.I.^.(.Y.^.I.^.^.^.Y.^.^.^.^.^.^.I.^.^.'.I.^.^.^.'.'.^.^.^.'.'.(.'.^.'.'.'.'.'.^.{.'.'.'.>XI.",
"e %.S.a.T.}.^.[. X'.^. X+X^.'. X{.'.'.'.'.'.'.{.^.'.{. X X X'.'. X X'.'.'.'. X#X X X'. XXX#X X X X X X#XXX{. X#X#X'. X X'.(.;Xy.",
"<  .l.%.%.J.Y.J.j.I.I.A.A.A.'.I.I.H.^.^.^.^.I.^.Y.(.'.^.I.I.^.'.'.I.I.^.'.'.(.I.^.^.^.'.'.Y.(.'.'.'.^.^.^.(.^.^.(.{.&X#X'.[.1Xj.",
"0 ( M.>.a F I.I.| | A.| T y.J.A.| V @.0.j.A.T T 0.y.A.0.V T j.l.H.| T :.j.I.A.V T 0.y.^.j.V :.0.^.I.:.V 0.(.A.V A.A. XoX^.W.>Xj.",
"; %.l.>.t ; a.&XA.V I.A.:.j.H.&XI.| 0.A. X#X0.:.A.I.#X X>.>.I.W.>XA.:.j.H. X#XA.@.I.^.&X'.:.j.A.'.&X'.| | '.{.:. XI.{.#X X^.>Xj.",
"2 R k.:.g E @ | A.| T V y.| 0. X(.:.y.:.I.#XI.:.:.0. X Xj.j.| I.#X X:.y.:.'.#XI.j.0.j. X Xj.v.0.A.#X{.:.g j 0.j.A.D ^.#X'.(.>XA.",
"; <.A.X.g A.:.g V V '.H.:.T y.#X'.:.0.@.I.XXI.:.0.:.'. Xj.y.:.0. X'.0.j.:.I. XI.j.0.:.'. XI.v.:.^.XX'.:.:.H.T 0.(.A.W.#X'.'.>Xj.",
"2 ..0.:.e D 0.I.< :.y.j | 0.:.I.I.@.:.| A.^.j.:.0.| I.'.:.:.:.:.^.I.:.0.| A.^.A.:.:.:.^.^.j.0.:.| '.^.g < j.(.j ^.'.^.&X'.'.>Xj.",
"5 ( j.| V V i 0.. j V  X0.:.X.H.j.T @.@.y.A.:.| :.:.v.I.@.| 0.0.I.y.| :.:.A.A.0.T 0.0.A.A.:.@.j.j.^.:.| j.7 0.i :.j.^.&X(.^.>Xy.",
"> O.D...V :.j T I % < j ^.0.'.^.Y.A.I.^.Y.'.I.I.I.^.^.^.I.A.I.^.'.I.A.Y.^.(.'.I.I.^.^.(.'.Y.I.^.(.(.Y.T :.V 0.:.| V ^.&X(.^.>Xj.",
"> ( f.<.e | A.^.I.^.0.e | I.>.0.j.0.y.j.0.j.0.j.0.j.j.0.A.j.j.j.j.j.j.A.j.j.v.j.A.j.j.j.A.A.j.j.A.0.Y.'.j.I.^.(.^.| '.#X(.(.<Xj.",
"> ..z.<.e j.A.j. X^. Xj.0.A.I.^.Y.^.^.^.I.^.Y.^.^.^.^.I.'.(.^.I.I.Y.'.(.^.^.^.^.^.^.'.^.^.(.'.^.^. X:.(.I.^.'.#X#XI.'.&X'.(.>Xj.",
"0 L M.%.e A.D 0.0.^.'.j.j.:.j.I.I.Y.I.^.I.(.^.I.^.H.'.I.I.I.(.^.(.^.^.Y.^.^.^.^.^.Y.'.^.I.'.'.^.^.'.j. X0.:.^.I. X'.'.&X(.^.;Xj.",
"> %.a. .s q.%. .:.0.A.| y.j.:.I.A.:.0.0.0.:.0.0.0.0.0.0.0.0.y.y.y.y.y.y.y.y.y.j.y.0.j.y.0.A.0.I.^.'.j.{.j.:.0.y.H.A.(.#X{.^.;Xj.",
"0 ..f. .t >.%.q.y.y.0.D 0.j.0.I.A.:.y.y.j.0.j.0.0.0.0.0.0.0.0.0.0.0.0.0.0.0.0.y.j.0.v.j.0.v.^ :.(.{.j.^.0.0.j.A.v.| ^.#X'.^.&X0.",
"; ( f.9.k %._ %.y.:.-.e -.j.0.I.'.0.I.'.'.'.{.'. X{. X X X X X X X X X X X X X X{.'. X{.{.#Xj.0.(. Xj.Y.1.y.n.n.j.g ^.#X(.'.>Xv.",
"; ( f.%.k q.l.T.^.^.I.^ 0.j.:.A.I.V 0.I.I.I.Y.I.H.H.A.H.H.H.H.H.I.H.I.H.I.I.I.I.^.Y.Y.^.Y.XXy.:.^.'.v.'.A.^.'.{.'.0.'.#X^.(.&Xy.",
"3  .f. .t q.l.Z.^.'. Xj.j.j.:.I.^.V 0.I.H.A.I.A.I.I.I.I.I.I.Y.I.Y.Y.Y.^.Y.^.Y.Y.H.I.I.I.I.#Xj.0.'.'.j.(.A.I.'.+X%X(.'.oX'.^.;Xy.",
"=  .l.>.k 5. .W :.A.^.:.j.y.:.^.^.V y.I.I.A.I.I.H.I.I.H.I.I.I.I.I.H.I.I.I.I.I.I.I.I.I.Y.H.#Xy.0.'.'.j.(.0.:.0.A.'.I.^. X X(.<Xj.",
"3  .a. .t 9.>.q.:.y.v.| 0.0.:.I.I.V 0.I.H.I.A.I.I.I.I.I.I.I.I.I.I.I.I.I.I.I.I.I.Y.Y.I.^.I.#Xy.:.Y.'.j.'.y.0.y.v.H.0.'.#X'.^.&X0.",
"3 W a.>.k  .W  .0.:.:.g :.j.0.I.I.V y.I.I.I.A.I.H.I.I.I.I.I.I.I.I.I.I.I.I.Y.Y.Y.Y.I.A.^.I.#Xy.0.^. Xv.^.-.:.j.v.j.V (.&X^.^.&Xn.",
"; _ l.%.k >.>.q.l.j.>.t :.j.:.Y.^.V 0.H.H.I.I.I.H.Y.I.I.^.g :.I.A.'.H.^.A.Y.H.Y.Y.Y.Y.I.I.#Xy.:.(. Xv.(.y.A.H.A.A.D I.&X(.^.>X0.",
"0  .q. .t a.S././.]./.:.0.j.:.I.^.j 0.I.H.A.I.H.A.v.j.(.0.^ g @.@.v.I.j.I.^.I.I.Y.Y.Y.I.I.XXj.:.Y.(.y.'.H.W. X#XoXn.'.#X^.^.;Xj.",
"= _ a.>.k q.>.>.A.^. Xj.j.0.:.I.(.j :.I.I.A.I.I.A.-.| ^.g :.| ^ :.:.0.j j.{.(.^.Y.Y.Y.I.I.XXy.0.{.{.j.{.v.v.I.(.#XY. X X'.^.&Xj.",
"3  .q.>.k >. .>.:.0.I.:.0.0.0.I.^.j 0.I.I.v.A.I.g A.^.y.:.j.j.0.y.j.j.T V y.I.Y.Y.Y.Y.I.I.#Xj.:.Y.'.y.(.:.:.0.y.^.v.{.#X'.(.;Xy.",
"3  .q. .t >. .>.:.:.0.T :.j.0.A.^.j 0.I.A.j.A.H.T   :.:.A.H.0.y.:.j.v.A.^ T I.v.Y.Y.Y.I.I.XXy.0.^. Xv.'.0.0.j.v.A.@.(.#X^.^.>X0.",
"= _ l.>.s  ._ W j.:.:.e @.j.0.I.^.V 0.I.A.A.I.I.T :.A.A.A.-.H.:.A.0.@.y.0.| (.H.I.I.Y.I.I.XXj.:.^.'.y.H.| :.0.0.0.V ^.&X^.W.<X1.",
"3 _ a.%.s q.q.M.A.A.q.V :.y.:.I.Y.g 0.H.I.I.A.0.:.e H.^.I.I.:.A.^.Y.:.:.:.V j.^.Y.^.Y.Y.I.XXy.:.'.{.j.'.j.A.^.'.A.@.^.#X'.^.;X0.",
"; _ q. .t q.l.T.^. X X1.j.j.| I.^.V 0.I.H.v.| e (.I.:.I.[.:.D A.^.{.:.0.y.:.T H.Y.Y.^.I.I.XXy.:.^.^.j.{.I.Y.'.#X&XI.'. X(.Y.%Xj.",
"5 P s.&.a l.(  .j.H.(.j.j.y.:.Y.I.V y.H.H.A.$.9 ^.A.@.0.Y.i g y.H.^.:.:.y.:.0.H.I.Y.Y.I.I.XXy.:.(.'.y.(.0.:.v.I.'.I.'.XX'.^.;Xy.",
": ` e.O.a <.>.>.@.y.v.@.y.y.:.Y.^.V 1.H.H.n.( - H.:.j.:.^.@.@ T @.0.A.@.A.0.7 0.I.I.Y.I.I.XXy.0.^.'.y.^.0.0.0.:.^.v.'.XX(.Y.;Xy.",
": &.s.O.s ( %.W :.0.:.j :.j.:.H.W.n 1.H.H.A.:.I j y.:.I.^.v.D g :.{.v.y.j.j.| ^ I.I.I.I.I.XXj.:.^.{.j.I.@.:.j.v.0.^ I.#X'.^.>X0.",
"$ O.z.%.s %.%.%.y.0.@.e :.v.:.I.Y.j y.H.A.A.A.A.D V :.T  XI.^.A.A.H.Y.I.0.j j.I.I.I.I.I.I.XXy.:.I.'.v.^.:.0.j.A.0.T H.#X'.Y.;X0.",
", ` s.&.0 l.l.J.Y.^.H.T y.j.@.I.(.V 0.H.v.v.H.I.^ A.(.y.0.^.y.j.j.y.y.y.:.A.(.A.I.I.I.I.I.XXj.:.^.(.0.'.H.I.(.'. Xy.^.XX^.I.<Xj.",
", ` s.&.0 l.>.M.Y.XXXXy.j.0.@.I.(.j :.H.H.A.A.v.< g (.^.^ A.I.:.y.| @.:.A.0.v.^.I.I.I.H.I.XXy.:.'.(.0.(.v.I.'.#X#XI.'.#X^.I.>X0.",
": ` s.&.t >.( | :.v.Y.:.y.y.:.Y.Y.g :.H.I.H.A.j.j.  i Y.e 0.| v.Y.g j.o j.A.j.j.I.I.I.I.H.XXy.:.I.'.j.'.0.:.0.y.(.A.'.XX'.^.&X0.",
": ] e.] g $.1.:.:.:.v.^ :.v.:.v.Y.V 0.H.v.A.A.A.v.y.7 :.T e 0.^.^.y.T ^ j H.Y.Y.I.I.I.H.I.XXy.:.(.'.y.Y.:.j.j.0.A.j.^. X(.Y.&X0.",
", P y.%.e | T R 1.:.| s y.j.@.I.(.j :.H.H.v.v.Y.A.A.n.H.v.D 7 V V j.I.A.H.I.I.I.Y.I.I.I.I. X0.:.Y.'.v.Y.| :.y.y.y.V ^.#XY.^.&Xy.",
"; ( a.%.g :.X.0.v.y.:.s @.j.:.H.^.j 0.H.H.I.A.v.n.I.A.H.H.1.| :.:.A.I.A.I.I.A.H.H.I.Y.Y.I.#Xj.:.(.'.y.^.0.v.H.A.y.D Y.#X'.^.&X0.",
", ] q.| e 0.A.T.(.{.(.@.:.y.:.H.^.j 0.H.A.I.I.H.j.H.H.n.H.A.n.A.A.Y.I.I.Y.I.H.I.I.Y.Y.H.A. Xy.:.Y.(.y.'.v.I. XXX#XH.'. X^.Y.>Xy.",
"= ( j. .g :.:.:.n.Y.[.y.y.y.0.I.Y.j :.H.j.j.A.v.A.I.H.n.A.I.H.H.A.A.A.A.H.A.A.H.H.Y.I.H.H.XXj.0.^.(.j.(.0.y.H.^. XI.'.XX(.I.;X0.",
"% T j.| g :.| T @.:.I.:.0.0.:.I.Y.j 0.Y.I.H.Y.I.I.I.H.A.H.A.H.A.I.I.I.Y.^.I.I.^.I.Y.Y.Y.Y.#X0.| (.(.0.^.:.:.0.0.Y.v.^.XX'.Y.;X0.",
"< T 0.T e :.:.:.:.-.:.T :.y.@.H.^.V T 0.y.y.j.0.j.y.y.j.v.j.j.j.y.y.j.j.j.y.0.j.A.A.j.j.j.{.0.0.^.^.y.^.@.:.y.j.A.:.Y. X^.I.;X0.",
"< ^ y.:.e W I T :.:.| e :.j.:.H.Y.^ T D D V T V V V D T I D T T T D T ^ T T T T T T D T T A.@.:.I.(.j.^.@.:.j.j.:.g I.#X'.^.&X0.",
"- ^ y.:.g :.0.A.H.I.y.g :.j.:.H.Y.A.I.I.I.H.Y.H.H.I.^.Y.I.I.Y.H.^.I.I.Y.I.^.Y.I.I.Y.^.^.H.'.0.j.^.(.y.^.y.I.^.Y.^.| ^.#XY.Y.&Xy.",
"< T <.<.t q.a.J.!.].&X| j.0.:.H.I.A.I.H.H.H.A.I.A.I.I.I.I.I.Y.I.A.I.Y.I.Y.I.I.I.I.I.Y.I.I.I.I.^.^.(.j.^.v.^.'.XX;XA.'.#XI.Y.&Xj.",
"2 X.l. .0 9.%._ q.Z.I.j.a.:.T j.0.:.0.0.0.j.0.0.y.j.0.0.y.y.j.j.j.0.y.0.j.j.0.j.j.j.j.0.j.j.y.j.0.I.:.XX:.@.v.I.I.Y.W.oX'.^.&X:.",
"$ P a.%.t 5.%.%.>.W T.V | (.| 0.y.0.0.:.:.j.0.y.0.0.0.0.j.0.0.y.0.y.j.j.0.0.0.j.j.j.j.j.j.j.j.0.y.I.A.A.v.:.@.:.H.I.I.[.(.Y.;Xy.",
"> F e.%.s _ W %.%.>.0.( T 0.I.j.y.0.j.j.j.v.0.j.0.j.A.j.y.y.j.A.j.j.0.A.j.A.A.j.j.j.j.A.A.0.v.j.A.v.v.H.-.y.y.j.0.V H.#XY.^.%Xy.",
"5 ( s.Q s %.%.q.T % g I.j.g 0.:.j e T :.0.>.g s | | 0.T e V | y.0.T < D :.j.:.g V | :.0.| j T | A.0.7 T  XT y.T A.| W.#XY.^.#X0.",
"5 P f.%.s _ ] U.@ ^.T V | I.A.}.A.( :.v.'.{.1. .j.I.#XI.:.:.j.^. XI.^ 0.A. X'.0.| j.^.XXI.:.0.A.I.;Xv.7 e v.XXT I.Y.^. X(.I.;Xy.",
"$ P e.=.e s e >.< o ^.g | T k. X^.| | $.I.{.y.>.:.0.'.(.0.:.:.j.[.Y.:.0.:.Y. XA.| :.j.'.'.:.:.<.H.{.^.i g :.T T @.y.A. X(.^.&X0.",
"5 O.=.O.s 9.B B :.< % | | F 0.'.W.>.:.| A. Xn.1.@.| ^.'.j.:.| y.{.^.:.0.| I. XA.j.:.| (. XA.0.:.v. XI.| o g V I.A.^ I.#XY.^.#X0.",
"3 W q. .k C l.P.| | v.y.| T | ^.T._ %._ 5.`.a._ $.| n.^.1.( $.| ^.I.T j.D j.^.j.| 0.D J.[.:.0.| 0.^.^.T :.k.D :.>XY.I.#X^.I.&X0.",
"= W l.%.t k q.S.V - 0.:.T :.T j.q.C  . .>.S.>.J $.| y.n.$.T :.:.A.l.( 1.| 0.I.0.| :.X.A.I. .| :.| A.A.V V H.y.@ y.^.{.'.I.Y.#X0.",
"; W a. .t t W  .:.g | :.T | j.0.q._ >.5.q.l.5. .1.1.y.j.:.$.0.0.j.0.1.:.0.0.A.:.:.:.j.a.j.>.| j.A.j.:.0.I | H.F i | ^.#X(.Y.&X0.",
"3 W 5. .k k n n I V e ^ D g T g J n n J C C J C n T T C V V V D D V T j T V T V F V R F T T V T V | V | T g | R D j :.{.Y.I.&X0.",
"3 W q.>.>.>.$. .:.@.:.:.:.:.| :.>.$. .>.>. .1.>.| 1.:.:.:.:.:.:.>.>.0. .:.1.:.:.<.<.<.:.y.4.<.*.:.a.:.:.y.y.4.y.1.l.1.l.Y.(.#X1.",
"= W a.a.y.q.y.l.y.v.0.:.j.j.0.A.l.l.q.l.l.j.l.l.j.n.j.j.j.j.j.j.n.n.l.l.n.A.l.S.z.G.M.D.D.z.J.M.I.a.k.k.D.D.k.L.M.P.M.H.I.(.%X0.",
"3 W %. . . .| :.T 0.| :.0.| :.E %.%.>.$.>.>.$.>.:.@.$.:.:.:.$.:.>.>.>.>.>.>.>.>.=.=.<.<.*.=.4.<.*.*.k.y.<.a.<.>.n.>.1.l.%.1.oXl.",
"; k n k k V g g D e V g e T g n k n n k k C g V g g n D V n V V C n n C T k D n L n M M M P L m m D m m F V n W n W C W W C y. ."
};
