/* XPM */
static char *_e879239a7274e9cd0da6bf79bb72575fOhYgXttnIwwpKOn[] = {
/* columns rows colors chars-per-pixel */
"64 64 168 2 ",
"   c #737581",
".  c #777A83",
"X  c #7B7D89",
"o  c #7E808C",
"O  c #7F818D",
"+  c #7F818E",
"@  c #80828E",
"#  c #80828F",
"$  c #81838F",
"%  c #81848D",
"&  c #82858E",
"*  c #83868F",
"=  c #818390",
"-  c #828490",
";  c #828491",
":  c #838591",
">  c #838592",
",  c #838793",
"<  c #848790",
"1  c #848692",
"2  c #848693",
"3  c #858793",
"4  c #858794",
"5  c #858891",
"6  c #868992",
"7  c #878A93",
"8  c #848894",
"9  c #858995",
"0  c #868894",
"q  c #868895",
"w  c #878995",
"e  c #878996",
"r  c #868A96",
"t  c #878B97",
"y  c #888B94",
"u  c #888A96",
"i  c #888A97",
"p  c #898B97",
"a  c #898C95",
"s  c #8A8D96",
"d  c #898B98",
"f  c #8A8C98",
"g  c #8A8C99",
"h  c #8B8D99",
"j  c #8B8D9A",
"k  c #8C8E9A",
"l  c #8C8E9B",
"z  c #8D8F9B",
"x  c #8D8F9C",
"c  c #8E919A",
"v  c #8E909C",
"b  c #8E909D",
"n  c #8F919D",
"m  c #8F919E",
"M  c #90929E",
"N  c #90929F",
"B  c #91939F",
"V  c #9294A0",
"C  c #9294A1",
"Z  c #9395A1",
"A  c #9395A2",
"S  c #9496A2",
"D  c #9496A3",
"F  c #9597A3",
"G  c #9597A4",
"H  c #9599A5",
"J  c #9698A4",
"K  c #9698A5",
"L  c #9799A5",
"P  c #9799A6",
"I  c #969AA6",
"U  c #979BA7",
"Y  c #989AA6",
"T  c #989AA7",
"R  c #999BA7",
"E  c #999BA8",
"W  c #9A9CA8",
"Q  c #9A9CA9",
"!  c #9B9DA9",
"~  c #9B9DAA",
"^  c #9C9EAA",
"/  c #9C9EAB",
"(  c #9D9FAB",
")  c #9D9FAC",
"_  c #9DA0A9",
"`  c #9EA1AA",
"'  c #9FA2AB",
"]  c #9EA0AC",
"[  c #9EA0AD",
"{  c #9FA1AD",
"}  c #9FA1AE",
"|  c #9FA3AF",
" . c #A0A3AC",
".. c #A0A2AE",
"X. c #A0A2AF",
"o. c #A1A3AF",
"O. c #A1A4AD",
"+. c #A2A5AE",
"@. c #A3A6AF",
"#. c #A1A3B0",
"$. c #A0A4B0",
"%. c #A1A5B1",
"&. c #A2A4B0",
"*. c #A2A4B1",
"=. c #A3A5B1",
"-. c #A3A5B2",
";. c #A2A6B2",
":. c #A4A6B2",
">. c #A4A6B3",
",. c #A5A7B3",
"<. c #A5A7B4",
"1. c #A7AAB3",
"2. c #A6A8B4",
"3. c #A6A8B5",
"4. c #A7A9B5",
"5. c #A7A9B6",
"6. c #A8AAB6",
"7. c #A8AAB7",
"8. c #A9ABB7",
"9. c #A9ACB5",
"0. c #AAADB6",
"q. c #ABAEB7",
"w. c #A9ABB8",
"e. c #AAACB8",
"r. c #AAACB9",
"t. c #ABADB9",
"y. c #ABADBA",
"u. c #ACAFB8",
"i. c #ACAEBA",
"p. c #ADAFBB",
"a. c #ADB0B9",
"s. c #AEB1BA",
"d. c #AFB2BB",
"f. c #AEB0BC",
"g. c #AFB1BD",
"h. c #B0B3BC",
"j. c #B0B2BE",
"k. c #B1B3BF",
"l. c #B1B4BD",
"z. c #B2B4C0",
"x. c #B2B4C1",
"c. c #B3B5C1",
"v. c #B4B7C0",
"b. c #B4B6C2",
"n. c #B5B7C3",
"m. c #B6B8C4",
"M. c #B6B8C5",
"N. c #B7B9C5",
"B. c #B8BBC4",
"V. c #B8BAC6",
"C. c #B9BBC7",
"Z. c #B9BCC5",
"A. c #BABDC6",
"S. c #BBBEC7",
"D. c #BABCC8",
"F. c #BBBDC9",
"G. c #BCBFC8",
"H. c #BCBECA",
"J. c #BDBFCB",
"K. c #BDC0C9",
"L. c #BEC1CA",
"P. c #BFC2CB",
"I. c #BEC0CC",
"U. c #BFC1CD",
"Y. c #C0C3CC",
"T. c #C1C4CD",
"R. c #C3C6CF",
"E. c #C4C7D0",
/* pixels */
"o - - - - - & * < $ 4 < ; < > > & 5 & 5 5 & 5 5 & < 5 5 7 5 < 5 5 5 5 5 5 5 5 s 5 5 7 5 5 5 5 7 5 5 s 5 5 s s < 5 7 7 a 7 5 c . ",
"{ V.D.b.J.D.b.K.V.V.C.A.C.V.V.F.Z.G.B.Z.G.Z.L.Z.G.Z.Z.G.S.S.S.L.S.S.Z.G.L.G.Z.L.S.L.K.K.K.L.L.L.S.L.L.Y.L.S.L.T.R.Y.K.Y.T.Y.E.2.",
"4 ~ 8.e.8.1.3.8.8.f.i.3.8.i.p.r.q.u.q.e.u.q.a.e.a.a.u.u.u.u.u.g.a.a.a.g.a.a.a.a.a.a.a.g.g.h.g.a.h.a.a.a.l.g.g.g.g.g.a.l.h.l.L.+.",
"d D 3.e.3.8.i.8.,.i.8.8.8.8.w.w.2.e.q.e.e.2.e.e.e.e.e.e.i.a.e.e.g.e.i.i.e.e.e.g.e.p.e.e.e.g.a.e.p.p.e.a.p.g.p.t.a.g.h.h.e.p.Y.2.",
"d / { #.e.z.f.j.b.i.i.k.b.i.i.b.k.k.k.k.k.j.k.n.k.k.k.k.k.B.k.k.m.k.n.n.k.n.B.k.m.n.k.n.k.m.m.B.k.m.B.B.n.k.n.m.m.n.m.m.g.g.Y.o.",
"i ~ -.E / w.f.3.i.8.i.i.w.j.f.f.g.e.g.g.g.g.e.e.g.g.g.g.e.e.g.k.k.i.i.g.l.k.k.e.p.g.k.k.k.p.p.k.m.g.g.g.k.j.g.k.j.k.N.H.k.g.Y.>.",
"i D -.~ i G 8.8.R J ,.R M ..,.,.! B L ] =.>.! L _ =.2.] R L ] >.2.^ L ^ ] 2.2.R L ! o.2.o.R R ] 8.2.{ J ^ 2.=.L 2.>.j.V.p.8.H.2.",
"q E -.E d q { D.8.R i.8.W ,.8.V.2.! =.e.k.k.=.! =.e.k.g.=.] 2.g.S.4.] =.8.n.n.2.o.2.j.m.k.>.o.4.g.D.p.R { m.c.^ k.8.p.D.k.p.U.=.",
"d D =.P l Z $ W ,.D M R ] W { N.i.] ] L e.k.4.] o.^ k.k.>.] ^ >.m.j.{ >.R i.B.8.o.{ { n.n.2.>.! 8.D.g.{ Z f =.{ 4.J 8.U.p.p.U.o.",
"d E =./ x +.! l B i j.,.+.Z ,.j.g.] ] ! e.n.e.] ] ^ k.k.2.] ! o.n.j.{ >.! 8.n.8.o.o.{ g.k.2.o.! 2.k.k.! L 2.J o.p.2.4.n.j.p.U.o.",
"2 P =.! 2 P { 4.@ W 0.B B J / g.2.! ! L =.e.=.! ! L 4.e.=.] L ! p.8.! o.L >.g.2.{ ^ L 4.p.=.] { ! p.p.B 0 2.8.Z i.p.i.n.k.p.U.o.",
"d D =.P x P l +.$ i i i.+.W R / =.! L L ^ >.] ! ^ ! =.=.^ ! ! ^ 2.>.R { L o.2.o.L { L o.2.{ { ] L 8.{ J R 0 ! f { o.p.D.k.8.U.>.",
"d P >.G x ..l J Z i O R i.4.j.k.i.e.e.4.e.g.i.e.e.e.g.g.e.i.e.i.g.g.e.p.4.p.k.p.i.g.p.p.k.i.8.p.k.p.e.R { f { o.R S 8.V.p.p.U.o.",
"2 P =.E 4 { 4.r.=.w.+.0 { =.W / ] =.o.o.] =.o.o.] ] ] ] o.o.o.o.o.o.o.=.o.=.o.o.o.=.o.o.>.o.o.=.2.o.8.8.{ >.g.2.p.R 8.D.i.p.U.o.",
"d P { / l { =.>.c.i.b.=.{ 8.,.f.2.i.4.i.4.e.e.e.e.i.e.e.i.i.e.i.e.e.p.p.i.p.i.i.p.i.p.p.p.g.g.g.8.k.! k.i.8.m.U.H.8.p.D.g.p.U.o.",
"q D >.D l =.Z +.=.g.j./ ,./ { 0.e.g.2.i.e.g.e.e.e.g.i.e.i.i.i.i.p.e.p.e.p.p.i.p.j.e.p.p.e.j.g.8.k.k.o.m.R { 8.4.k.g.p.m.k.8.U.o.",
"d G $.P j ) R D P ] >.L ] ] ^ 0.=./ o.! ^ ^ o.{ ] ] ] ] ] ] ] ] { { { o.{ { { { o.{ o.{ ^ o.{ 8.p.k.o.p.{ ! ! R 8.2.p.N.p.a.K.O.",
"d P $.E d ) / / ^ ] o.S o.+.] 0.o.G ! L ^ L ! L ! ^ ! ! ! ^ ^ ^ ^ ^ ^ R R { R { R R { { ^ o.S R e.g.o.p.{ o.2.2.o.! 8.V.k.p.K.=.",
"2 U ;.E s / J R { ] ! N ! ] ^ 4.c.=.i.c.n.j.n.j.n.k.k.n.k.n.k.n.k.n.m.n.m.n.n.k.m.n.m.m.k.m.o.{ e.k.o.k.o.o.o.=.=.R 2.B.h.a.Z.+.",
"e U $.U i ..,.8.f.i.4.P { o.] r.4.k ^ 4.,.,.r.2.4.4.4.2.4.4.4.4.2.2.2.4.8.2.8.8.8.8.8.8.p.m.o.^ e.k.o.k.2.8.k.k.k.=.8.D.g.e.S.O.",
"q P { R k @.,.,.g.j.c.o.+.{ ] r.i.N { 4.4.,.0.2.4.4.e.e.4.e.e.e.8.8.8.8.8.8.8.8.2.2.4.2.8.m.o.R g.k.{ p.=.8.k.m.N.p.j.B.p.a.L.+.",
"8 H -.W k / D M ! >.r.] { ] W 4.i.k ^ 4.>.4.4.2.4.4.4.4.4.4.4.4.4.8.4.8.4.8.8.8.p.p.p.8.8.k.o.R p.k.{ p.! { { ] g.8.p.m.p.a.Y.+.",
"t I ..R i  ./ / P ! +.P =.{ { r.0.k { 4.4.4.4.w.4.e.4.4.4.e.4.4.8.8.8.8.8.8.8.8.4.8.8.2.8.m.o.R 8.g.o.g.] { ! ! 2.{ 8.m.p.a.S.O.",
"9 I ..R i / J R { { ! N ! =.! 4.r.x o.4.4.4.>.4.4.4.4.4.4.4.4.4.2.2.2.8.4.8.4.8.i.8.8.4.8.m.o.{ p.k.{ p.{ { o.2.o.R 2.D.h.q.Z.+.",
"8 P o.W i { / ] +.../ M { { ! 4.i.k ^ 4.2.2.4.2.4.4.4.4.4.4.e.e.8.4.8.4.8.4.8.4.8.8.8.8.4.m.o.R i.j.{ p.o.o.2.2.>.R 2.m.k.e.S.=.",
"t P ] H l +.8.i.j.j.j./ { ] ! 4.i.k o.4.2.2.4.2.4.4.4.4.4.4.4.4.4.8.4.8.4.8.4.8.4.8.4.8.2.m.o.R p.j.{ k.2.p.n.m.m.2.i.m.p.6.Z.+.",
"d R { H 7 / ! / ,.g.k.] { ] { 0.i.k ^ 4.2.2.2.2.4.4.4.4.4.4.4.4.8.4.8.4.8.4.8.4.8.8.4.8.2.n.o.R i.p.{ p.o.o.8.p.m.i.p.m.a.q.K.' ",
"4 P ..R k / R D J ..,.W { { ! 0.i.k o.4.2.2.4.2.4.4.4.4.4.4.4.4.2.8.4.8.4.8.4.8.4.8.8.8.2.m.o.R p.p.o.p.{ ^ ^ { 8.o.p.V.g.u.K.' ",
"4 R #.G d { R R / / ..J ..] ! 4.0.k ^ 4.4.4.4.>.4.4.4.4.4.4.4.4.4.4.2.8.8.4.8.4.8.8.4.8.2.m.o.R p.j.o.j.{ R { { =.{ 8.m.a.e.K.+.",
"q P #.R 0 / R ! +./ W M ] ] W 8.w.k o.4.2.2.2.2.2.4.4.4.4.4.4.4.4.4.4.4.4.8.4.8.4.8.8.8.2.m.o.R 8.p.{ p.{ { o.2.] R 2.m.p.q.Z.O.",
"< G #.E k ....,.,.,...B / ] / 0.i.k ^ 4.2.>.4.>.2.2.4.4.4.4.4.4.4.4.4.4.8.4.8.4.8.8.2.8.2.m.o.R k.k.{ p.o.2.i.8.2.{ 2.B.g.q.Z.+.",
"4 U #.G i ..,.8.j.b.k.] ..] / ,.i.f ^ 4.>.4.2.>.2.2.2.4.4.4.4.4.4.4.4.2.2.8.4.8.8.8.2.8.2.n.o.R 8.p.{ p.2.p.m.m.S.8.8.m.a.q.K.=.",
"w S o.L f { J J { 2.p.{ o.{ ! 8.8.h ! 2.2.2.=.2.2.2.2.2.8.2.2.2.4.4.4.4.4.4.8.8.4.8.2.8.2.m.o.R 2.p.o.j.! R o.8.p.2.p.m.8.p.U.] ",
"w L o.J 7 { J L J { ] J ] ] R 2.8.f { 2.2.2.2.2.2.2.2.2.2.2.8.8.4.4.4.4.4.4.8.4.8.4.2.8.2.n.o.R p.j.{ p.R R ! ! 8.o.8.m.p.8.D.{ ",
"q D o.L u { J J { R { Z { o.R o.e.v { 2.2.2.2.2.2.2.2.2.2.8.2.2.4.4.4.4.4.4.4.8.4.8.2.8.2.m.o.R 8.p.^ p.! { ] o.] R 2.m.p.8.D.o.",
"w G o.J 0 { R { ] { ! v ! ] { 8.8.v ! 2.2.2.2.2.2.2.2.2.2.2.2.2.4.4.4.4.4.4.2.2.8.8.2.8.2.k.{ R 8.p.{ p.{ { 2.8.o.R 2.m.p.8.U.=.",
"e D } D 0 o.o.8.e.8.8.J { { R 2.8.h { 2.2.2.=.=.2.2.2.2.2.2.2.2.4.4.4.4.4.4.4.4.2.8.2.8.2.n.o.R p.p.R j.2.8.p.k.g.o.8.m.p.8.D.{ ",
"w D } L f ] { ] p.k.k.o.o.R L 2.8.v R 2.2.=.2.2.2.2.2.2.2.2.2.2.2.2.4.4.4.4.4.4.2.8.4.8.2.k.{ R i.p.{ j.>.2.e.k.m.8.p.m.p.8.D.] ",
"> S } P f { B J R o.2.R { { { 8.8.h { 2.2.2.2.2.2.2.2.2.2.2.2.2.2.2.4.4.4.4.4.4.4.8.2.8.2.k.o.R 8.j.o.p.R J R { p.2.p.m.p.8.U.o.",
"e D } L 0 { J L J { o.J { { R 8.8.v R 2.=.2.2.2.2.2.2.2.2.2.2.2.2.2.4.4.4.4.4.4.2.8.2.4.2.n.o.R p.p.^ p.{ { { { o.{ 8.m.p.8.D.{ ",
"e D } P h / L J { R R Z { { R 2.8.v { 2.=.2.o.8.2.2.2.2.2.2.2.2.2.2.2.2.2.4.4.4.2.2.2.4.2.k.{ R t.g.{ i.^ { } o.{ J 2.V.p.8.U.{ ",
"e D } D w / R } o.o.{ M R ! ! 2.8.f R 2.2.2.=.o.=.2.=.2.=.2.2.2.2.2.2.2.2.2.4.4.8.8.8.8.2.n.{ L i.p.{ p.{ o.2.8.o.R >.c.t.8.K.] ",
"w D } L f o.=.t.k.k.g.R { { R 2.8.h { =.2.2.8.2.2.2.8.2.2.2.2.2.2.2.2.2.2.2.2.2.2.2.2.2.o.k.o.R 8.p.{ p.2.8.k.m.N.8.i.m.p.8.D.] ",
"e D } P w ^ L ^ o.8.g.{ { R ! 8.8.v { 2.] o.=.o.=.=.=.=.=.=.2.2.2.2.2.2.2.2.2.2.4.8.2.2.2.m.o.R 8.p.{ p.{ o.2.6.c.6.8.c.p.8.V.+.",
"> Z } L u ^ Z Z J ! =.R ] R R 2.8.v ! 8.8.2.8.2.2.8.8.2.2.2.2.2.2.2.2.2.2.4.2.2.2.8.4.8.2.k.{ J i.p.{ 8.R L ^ ^ 6.o.4.c.p.8.B.O.",
"> S } L h } J L R R ! B ] { R 2.8.f Z R { R { { ! { { ! { { { { { { { o.{ o.o.o.{ o.{ o.o.p.o.{ 8.g.{ p.^ ^ { } =.^ 8.m.p.8.V.] ",
"w L } J 0 ^ S L { R L v { { { 2.8.B Z v M h v v v v v v v v Z v v v v M v v v v Z v v Z M { J R 8.p.^ t.^ { } } ^ S o.n.8.8.S.O.",
"> S } J f o.} 2.2.2.2.Z R { R 2.8.2.8.8.8.2.8.2.8.8.8.8.8.8.e.8.8.8.8.8.8.i.8.p.8.8.i.p.2.k.o.o.8.t.{ p.o.6.t.g.t.{ 4.B.i.8.H._ ",
"q S } P h { R 8.p.c.n.J o.^ R 8.2.2.2.2.2.2.2.2.2.8.8.2.2.2.2.2.2.2.8.2.e.2.8.2.8.4.8.8.2.2.8.8.8.p.^ p.o.i.p.m.D.8.8.k.p.8.D.o.",
"> L } N 0 } L S { } i.R o.R J R R R L L R { { R R { R ! { ! { R ! { ] R { R ] { { R { { { o.o.{ { 6.^ k.} J o.{ 2.2.p.m.p.8.D.{ ",
"> D } S w } S J J R o.Z { k.J { { { { R ! o.] ! { R { { { { { { { { o.] ] { ] ] o.{ { { o.o.o.} ^ 8.2.o.^ L J ^ 2.o.8.m.8.4.D.o.",
"> D } L w J Z ^ L M o.{ v R =.R R ! ] o.] ] { { { { { { R { { o.o.! { o.o.o.o.! { o.o.o.{ { o.o.4.{ R c.o.o.R o.{ J o.k.p.8.m.{ ",
"> L } L e } R o.R Z $ 8.o.b o.{ Z f Z R { R M v J R o.L v B R { { B M J R o.{ M Z L { o.L M L R } o.v u p.v 8.R 2.{ 2.m.p.4.V.o.",
"> S / L e P J o.  o.{ f R o.2.k.2.R R >.p.j.{ R ] 2.m.8.! ] =.8.k.2.! ] >.k.g.o.R o.8.n.t.{ o.o.i.D.o.u f o.k.S 2.2.p.k.8.2.V.o.",
"e S / L q b w J v X o.0 { M 2.k.2.R R R 8.k.o.R ! { g.p.{ ! ! o.m.8.{ ! R p.k.>.R { o.j.p.{ { R 2.n.8.v 0 J h L Z J 8.m.p.8.m.R ",
"q D / S h } J S J 0 $ R J J { p.2.{ ! J o.k.>.{ R B e.g.o.R J { p.2.o.! J 4.p.>.o.R J p.j.} { L o.g.t.R o f k 2.8.{ o.k.p.4.D.o.",
"; P / G e D } 5.S S 5.>.L S D >.>.J R Z R j.{ L P D #.y.} P E D 8.2.J { Z R p.o.L ^ S >.t.^ { S R i.6.L } =.L k m.k.6.m.t.6.D.{ ",
"; D / G e N E } S v P P G P P } { J L Z R 2.R L E D / >.E G E P =.o.R ! J R 8.{ L ^ S o.6.L ^ L J o.>.Z u } =.> J 8.g.p.t.t.k.] ",
"> P / G e j N D ^ b L L P / P } { R ^ R ^ o.{ R } / } } / / } / ] { ! L { ! o.! ^ } ^ } o.^ } } 6.L { =.J L =.^ f h 4.k.e.8.B.o.",
"> D } P j e j x b w h f j j e j u f u f f u u f e g j e f f e f h v v f v v h f h k h f h h u k k k k v v k h b S $ ^ g.e.2.D.] ",
"> N / / G D P P P D P P P P P P R ^ L ^ ^ L ^ ^ P / / P / / ^ ^ L R R L R { B ! / / } E ^ / ^ / J =.o.L / } / / ^ } ^ } p.8.V.R ",
"e D } / } / } / } } } } } } } } { } { } } ^ } } } *.} } } =.} =.o.2.o.o.] 2.{ 2.#.>.=.} =.>.#.=.>.o.#.=.=.} #.2.#.w.#.#.2.8.Y.] ",
"e j D D D D D D P D D D D D G N S S S S S S D D G D D G J S L L J J Z S S S B L G P L G L P G L E G E ^ D P / P P L L / L R p.{ ",
"# # > # ; # # # # > > > # > > > $ $ > O > 1 > > > # > e > > > 1 $ 0 1 1 0 $ 0 < ; e > > q ; q w > > > w q > q > > f q > 1 w v Z "
};
