/* XPM */
static char *c2429a729ea7453e9d8aabd44cec3cea1aE4NWU3kTwByNCK[] = {
/* columns rows colors chars-per-pixel */
"64 64 164 2 ",
"   c black",
".  c #010101",
"X  c #020202",
"o  c gray1",
"O  c #040404",
"+  c gray2",
"@  c #060606",
"#  c #070707",
"$  c gray3",
"%  c #090909",
"&  c gray4",
"*  c #0B0B0B",
"=  c #0C0C0C",
"-  c gray5",
";  c gray6",
":  c #101010",
">  c #111111",
",  c gray7",
"<  c #131313",
"1  c gray8",
"2  c #151515",
"3  c #161616",
"4  c gray9",
"5  c #181818",
"6  c #191919",
"7  c gray10",
"8  c #1B1B1B",
"9  c gray11",
"0  c #1D1D1D",
"q  c #1E1E1E",
"w  c gray12",
"e  c #202020",
"r  c gray13",
"t  c #222222",
"y  c #232323",
"u  c gray14",
"i  c gray15",
"p  c #272727",
"a  c #282828",
"s  c gray16",
"d  c #2A2A2A",
"f  c gray17",
"g  c gray18",
"h  c #313131",
"j  c #323232",
"k  c gray21",
"l  c gray22",
"z  c #393939",
"x  c #3A3A3A",
"c  c gray23",
"v  c gray24",
"b  c gray25",
"n  c #414141",
"m  c gray26",
"M  c #434343",
"N  c #494949",
"B  c #4C4C4C",
"V  c gray30",
"C  c #585858",
"Z  c #5B5B5B",
"A  c gray36",
"S  c gray40",
"D  c gray43",
"F  c #6F6F6F",
"G  c #747474",
"H  c gray46",
"J  c #767676",
"K  c #7C7C7C",
"L  c gray49",
"P  c #808080",
"I  c #818181",
"U  c gray51",
"Y  c #838383",
"T  c #848484",
"R  c #888888",
"E  c #898989",
"W  c gray54",
"Q  c #8B8B8B",
"!  c gray55",
"~  c #8D8D8D",
"^  c #8E8E8E",
"/  c gray56",
"(  c #929292",
")  c #939393",
"_  c gray58",
"`  c #9A9A9A",
"'  c gray61",
"]  c #9D9D9D",
"[  c gray63",
"{  c #A2A2A2",
"}  c #A4A4A4",
"|  c #A5A5A5",
" . c gray65",
".. c #A7A7A7",
"X. c gray66",
"o. c #A9A9A9",
"O. c #AAAAAA",
"+. c gray67",
"@. c #ACACAC",
"#. c gray68",
"$. c #AEAEAE",
"%. c #AFAFAF",
"&. c gray69",
"*. c #B1B1B1",
"=. c #B2B2B2",
"-. c gray70",
";. c #B4B4B4",
":. c gray71",
">. c #B6B6B6",
",. c #B7B7B7",
"<. c #BCBCBC",
"1. c gray76",
"2. c gray77",
"3. c #C6C6C6",
"4. c gray78",
"5. c #C8C8C8",
"6. c gray79",
"7. c #CACACA",
"8. c #CBCBCB",
"9. c gray80",
"0. c #CECECE",
"q. c #D0D0D0",
"w. c #D2D2D2",
"e. c gray84",
"r. c #D7D7D7",
"t. c #D8D8D8",
"y. c gray85",
"u. c #DADADA",
"i. c gray86",
"p. c gainsboro",
"a. c #DDDDDD",
"s. c gray87",
"d. c #DFDFDF",
"f. c gray88",
"g. c #E1E1E1",
"h. c #E2E2E2",
"j. c gray89",
"k. c #E4E4E4",
"l. c gray90",
"z. c #E6E6E6",
"x. c #E7E7E7",
"c. c gray91",
"v. c #EAEAEA",
"b. c gray92",
"n. c #ECECEC",
"m. c gray93",
"M. c #EEEEEE",
"N. c #EFEFEF",
"B. c gray94",
"V. c #F1F1F1",
"C. c gray95",
"Z. c #F3F3F3",
"A. c #F4F4F4",
"S. c gray96",
"D. c #F6F6F6",
"F. c gray97",
"G. c #F8F8F8",
"H. c #F9F9F9",
"J. c gray98",
"K. c #FBFBFB",
"L. c gray99",
"P. c #FDFDFD",
"I. c #FEFEFE",
"U. c white",
/* pixels */
"                                                                                                                                ",
"                                                                                                                                ",
"                                                                                                                                ",
"                                                                                                                                ",
"                                                                                                                                ",
"                                                                                                                                ",
"                                                                                                                                ",
"                                                                                                                                ",
"                                                                                                                                ",
"                                                                                                                                ",
"                                                                                                                                ",
"                                                                                                                                ",
"                                                                                                                                ",
"                                                                                                                                ",
"                                                                                                                                ",
"                                                                                                                                ",
"                      O O             O         O           O         O   O   O                       O     O                   ",
"                  * O     O O                       O * O         O O     O O                     O O             O     O       ",
"                    O     *               O     O O O O     O O   O O       O     O O       O       O     O   O O O             ",
"                O   O   O   O                           O *                               O     O       O     O O         O     ",
"                  O * 5 5 3 9 5 5 5 5 5 5 5 5 9 5 9 5 O O O   O O O     O O * 5 5 5 5 5 5 5 5 5 9 5 9 5 9 9 5 , *   O     O     ",
"                  O 9 _ +.$.+.&.$.$.$.+.$.+.$.$.+.+.( 5 O   O         O     3 F ..+.$.$.+.$.$.$.+.+.$.+.+.+.{ K ,   O     O     ",
"                O   9 r.C.F.M.C.F.C.F.C.C.F.C.F.M.F.y.e O O O         O     9 ..v.C.F.C.C.F.C.C.F.F.F.C.F.C.M.+.5 O       O     ",
"                  O 9 2.r.a.h.h.h.h.a.h.h.k.h.k.K.K.h.9 O     O   *       O , ( r.a.h.h.h.k.h.a.h.y.a.k.F.K.K.$.5         O     ",
"                    , f c c k v c c k c c k c F k.U.a.e     O         O     , e c c c c c k c c c v v V r.K.F.,.9               ",
"                      * - *   O   O O   * O * v k.U.a.e               O       - O O   O O O O O   O O a 2.F.F.,.9       O       ",
"                                            * M h.K.a.e                                               e 2.U.K.&.5               ",
"                          O O O             O M h.U.h.e                   O O                   O O   e 2.U.F.&.9   O           ",
"                                            O M h.U.a.e                     O                         e 2.U.F.,.5 O             ",
"                O     O O     O         O   O M h.K.h.e           O                             O O   e 5.K.F.&.9       O       ",
"                                            * M k.U.a.e                       O   O       O       O   9 5.U.C.,.5   O           ",
"                          O     O       O   * M k.U.a.e         O       O                         O   e 5.K.F.,.5 O             ",
"                    O * e e e e e e 9 e e e a A v.K.a.i     O     O     O     * 9 e e e e 9 9 e i i 9 c 5.U.K.&.9               ",
"                O   O a 1.a.h.y.a.h.a.a.h.h.a.k.F.U.a.e                 O     5 { q.h.a.h.h.h.a.a.y.h.a.C.K.F.&.9       O       ",
"                    * f k.U.K.U.U.U.K.K.K.U.U.F.U.U.a.e         O           O e ,.K.U.K.U.K.K.K.U.K.U.U.K.K.F.$.5               ",
"                O     h <.a.h.h.a.a.a.h.a.y.a.k.F.U.a.e                 O   O 5 { q.y.a.h.a.a.h.a.h.a.a.F.U.M.,.9   O           ",
"                  O O - e i e i a i a a a i a Z k.K.a.9       O     O         - i i i i i e e a e i e M q.U.F.,.5 O             ",
"                    O   O O O O           O * N a.K.h.e             O     O   O     O O   *     O   O e 5.F.K.$.9       O       ",
"                        O O O       O O     O v a.U.h.e                   O     O         O O O     O e 5.U.K.&.5   O           ",
"                      *               O     - M k.U.h.9   O                       O     O             9 5.U.C.,.5 O             ",
"                O     O       O   O       O O M h.K.a.e         O             O             O     O   9 5.K.F.,.9               ",
"                  O O     O               O O M h.U.a.e       O   O       O                     O     e 5.K.F.$.5       O       ",
"                        O O       O   O O   O M h.U.h.e               O     O   O O O                 e 5.U.K.&.9               ",
"                O O   O           O         O M h.U.a.e O         O   O       O                   O   9 5.U.C.,.5   O           ",
"                  O O 5 , 3 3 3 , 3 , 3 5 3 9 V h.U.y.e O         * O     O   , 3 3 3 3 , 3 3 3 , 3 , h 2.U.F.,.9               ",
"                  O 5 L ~ ~ W ~ ~ ~ ~ ~ ( W ~ +.C.U.a.e                     , A W W ~ ~ ~ ~ ~ ~ _ ~ ~ ` h.K.F.$.5       O       ",
"                O   e 0.C.M.M.C.C.C.M.C.M.M.M.C.F.K.y.i     O         O O   9 ] k.M.C.M.C.C.M.M.M.M.M.M.F.K.F.,.9   O           ",
"                  O e q.M.v.M.M.M.M.M.M.M.C.M.v.v.M.q.e     O     O     O   3 ] k.M.M.M.M.M.M.M.M.M.M.M.v.M.a.+.5               ",
"                  O 3 J W W U U U U T U U U U U U U J ,     O   O       O   - Z U U U U U U T T U U U U U T J S - O             ",
"                  O   9 - , 3 - , 3 , , , , , , - 3 5   * O   O     O     O   , - , , , , , , , , , , - 3 3 , * *               ",
"                    O O     *                   O O *   O O     O         O O O                             O O                 ",
"                O   O                                     O O         * O   O O                               O               O ",
"                    O     O O O                 O     *           O     O         O                   O                         ",
"                  O O O   O                     O       O   O O   *     O O   O                         O                     O ",
"                              O       O     O     O O   O O O         O       O             O   O                   O           ",
"                  O O   O O                                   O O         O                                 O                   ",
"                                                                                                                                ",
"                                                                                                                                ",
"                                                                                                                                ",
"                                                                                                                                ",
"                                                                                                                                ",
"                                                                                                                                ",
"                                                                                                                                ",
"                                                                                                                                "
};
